<?xml version="1.0" standalone="no"?>
<!DOCTYPE svg PUBLIC "-//W3C//DTD SVG 1.1//EN" "http://www.w3.org/Graphics/SVG/1.1/DTD/svg11.dtd" >
<svg xmlns="http://www.w3.org/2000/svg" xmlns:xlink="http://www.w3.org/1999/xlink" version="1.1">
<metadata>
Created by FontForge 20170731 at Tue May  2 20:44:10 2017
 By Aleksey,,,
Copyright (C)2016 Commercial Type.
</metadata>
<defs>
<font id="Canela-Light" horiz-adv-x="381" >
  <font-face 
    font-family="Canela Light"
    font-weight="300"
    font-stretch="normal"
    units-per-em="1000"
    panose-1="0 0 0 0 0 0 0 0 0 0"
    ascent="800"
    descent="-200"
    x-height="476"
    cap-height="732"
    bbox="-132 -260 1126 1150"
    underline-thickness="20"
    underline-position="-120"
    unicode-range="U+0020-FB04"
  />
<missing-glyph horiz-adv-x="161" 
 />
    <glyph glyph-name="f_b" unicode="fb" horiz-adv-x="827" 
d="M548 -15q-95 0 -155 54l-37 -44h-7v624q0 62 -27 101t-65 39q-42 0 -65.5 -39.5t-23.5 -115.5v-128h118v-18h-118v-319q0 -97 23 -137v-2h-120v2q24 37 24 137v319h-63v18h63v84q0 101 49 160t129 59q52 0 94 -23l55 23v-373h2q27 39 70.5 62t95.5 23q91 0 146.5 -67.5
t55.5 -175.5q0 -111 -63.5 -187t-180.5 -76zM559 3q67 0 110.5 63t43.5 168q0 102 -45.5 155.5t-119.5 53.5q-40 -1 -74 -18t-52 -40v-209q0 -88 40 -130.5t97 -42.5z" />
    <glyph glyph-name="f_f_b" unicode="ffb" horiz-adv-x="1081" 
d="M801 -15q-96 0 -154 54l-37 -44h-7v624q0 62 -27 101t-66 39q-42 0 -65 -39.5t-23 -115.5v-128h118v-18h-118v-319q0 -97 23 -137v-2h-120v2q24 37 24 137v319h-181v-319q0 -97 23 -137v-2h-120v2q24 37 24 137v319h-63v18h63v64q0 101 46 160t118 59q42 0 60 -14l12 -92
l-6 -2q-18 27 -30 43.5t-29 30.5t-32 14q-28 0 -47 -40.5t-19 -114.5v-108h181v84q0 101 49 160t129 59q52 0 93 -23l56 23v-373h2q27 39 70.5 62t95.5 23q91 0 146.5 -67.5t55.5 -175.5q0 -111 -63.5 -187t-181.5 -76zM812 3q68 0 111.5 63t43.5 168q0 101 -45.5 155
t-119.5 54q-40 -1 -74 -18t-52 -40v-209q0 -88 40 -130.5t96 -42.5z" />
    <glyph glyph-name="f_f_h" unicode="ffh" horiz-adv-x="1059" 
d="M71 0v2q24 37 24 137v319h-63v18h63v64q0 101 46 160t118 59q42 0 60 -14l12 -92l-6 -2q-18 27 -30 43.5t-29 30.5t-32 14q-28 0 -47 -40.5t-19 -114.5v-108h181v84q0 101 49 160t129 59q52 0 93 -23l56 23v-377q75 89 171 89q68 0 104.5 -39t36.5 -107v-191
q0 -60 3.5 -90.5t18.5 -61.5v-2h-118v2q23 53 23 152v175q0 51 -24.5 82t-78.5 31q-78 0 -136 -59v-254q0 -89 22 -127v-2h-117v2q22 43 22 126v491q0 62 -27 101t-66 39q-42 0 -65 -39.5t-23 -115.5v-128h118v-18h-118v-319q0 -97 23 -137v-2h-120v2q24 37 24 137v319h-181
v-319q0 -97 23 -137v-2h-120z" />
    <glyph glyph-name="f_f_j" unicode="ffj" horiz-adv-x="742" 
d="M674 -29q0 -169 -134 -186l-2 5q34 20 49.5 51.5t15.5 89.5v427q0 70 -36 100h-145v-319q0 -97 23 -137v-2h-120v2q24 37 24 137v319h-181v-319q0 -97 23 -137v-2h-120v2q24 37 24 137v319h-63v18h63v64q0 101 46 160t118 59q42 0 60 -14l12 -92l-6 -2q-18 27 -30 43.5
t-29 30.5t-32 14q-28 0 -47 -40.5t-19 -114.5v-108h181v84q0 101 47.5 160t123.5 59q62 0 92 -26l17 -129l-6 -2q-36 64 -66 100.5t-60 36.5q-33 0 -54 -40.5t-21 -114.5v-128h142q67 0 112 20z" />
    <glyph glyph-name="f_f_k" unicode="ffk" horiz-adv-x="985" 
d="M985 0h-113l-179 249l129 144q46 51 8 81v2h123v-2q-37 -17 -60.5 -36t-54.5 -55l-85 -95l141 -196q50 -68 91 -90v-2zM71 0v2q24 37 24 137v319h-63v18h63v64q0 101 46 160t118 59q42 0 60 -14l12 -92l-6 -2q-18 27 -30 43.5t-29 30.5t-32 14q-28 0 -47 -40.5
t-19 -114.5v-108h181v84q0 102 47.5 160.5t128.5 58.5q54 0 95 -23l56 23v-650q0 -89 22 -127v-2h-117v2q22 43 22 126v491q0 62 -27.5 101t-67.5 39t-63 -40t-23 -115v-128h118v-18h-118v-319q0 -97 23 -137v-2h-120v2q24 37 24 137v319h-181v-319q0 -97 23 -137v-2h-120z
" />
    <glyph glyph-name="f_h" unicode="fh" horiz-adv-x="805" 
d="M191 0h-120v2q24 37 24 137v319h-63v18h63v84q0 101 49 160t129 59q51 0 93 -23l56 23v-377q75 89 171 89q68 0 104.5 -39t36.5 -107v-191q0 -60 3.5 -90.5t18.5 -61.5v-2h-118v2q23 53 23 152v175q0 51 -24.5 82t-78.5 31q-78 0 -136 -59v-254q0 -89 22 -127v-2h-117v2
q22 43 22 126v491q0 62 -27 101t-65 39q-42 0 -65.5 -39.5t-23.5 -115.5v-128h118v-18h-118v-319q0 -97 23 -137v-2z" />
    <glyph glyph-name="f_j" unicode="fj" horiz-adv-x="487" 
d="M420 -29q0 -169 -134 -186l-2 5q34 20 49.5 51.5t15.5 89.5v427q0 70 -36 100h-145v-319q0 -97 23 -137v-2h-120v2q24 37 24 137v319h-63v18h63v84q0 101 47.5 160t123.5 59q61 0 93 -26l16 -129l-6 -2q-36 64 -66 100.5t-60 36.5q-33 0 -54 -40.5t-21 -114.5v-128h142
q67 0 112 20z" />
    <glyph glyph-name="f_k" unicode="fk" horiz-adv-x="731" 
d="M191 0h-120v2q24 37 24 137v319h-63v18h63v84q0 102 47.5 160.5t129.5 58.5q52 0 94 -23l56 23v-650q0 -89 22 -127v-2h-117v2q22 43 22 126v491q0 62 -27.5 101t-67.5 39t-63 -40t-23 -115v-128h118v-18h-118v-319q0 -97 23 -137v-2zM731 0h-113l-179 249l130 144
q44 52 8 81v2h122v-2q-37 -17 -60.5 -36t-54.5 -55l-85 -95l141 -196q50 -68 91 -90v-2z" />
    <glyph glyph-name="f_t" unicode="ft" horiz-adv-x="589" 
d="M569 40q-42 -55 -117 -55q-46 0 -76 26.5t-30 88.5v358h-178v-319q0 -97 23 -137v-2h-120v2q24 37 24 137v319h-63v18h63v84q0 101 47.5 160t123.5 59q45 0 67 -14l12 -92l-6 -2q-16 23 -23.5 33.5t-21.5 26t-26.5 22t-26.5 6.5q-31 0 -52 -40.5t-21 -114.5v-128h135
l111 91h6v-91h139v-18h-139v-358q0 -75 72 -75q45 0 75 19z" />
    <glyph glyph-name="f_f_t" unicode="fft" horiz-adv-x="843" 
d="M823 40q-17 -22 -48 -38.5t-69 -16.5q-46 0 -76 26.5t-30 88.5v358h-178v-319q0 -97 23 -137v-2h-120v2q24 37 24 137v319h-181v-319q0 -97 23 -137v-2h-120v2q24 37 24 137v319h-63v18h63v64q0 101 46 160t118 59q42 0 60 -14l12 -92l-6 -2q-18 27 -30 43.5t-29 30.5
t-32 14q-28 0 -47 -40.5t-19 -114.5v-108h181v84q0 101 47.5 160t123.5 59q43 0 67 -14l11 -92l-6 -2q-19 29 -30 44t-30 29.5t-37 14.5q-31 0 -52 -40.5t-21 -114.5v-128h134l112 91h5v-91h140v-18h-140v-358q0 -75 73 -75q45 0 75 19z" />
    <glyph glyph-name="f_f" unicode="ff" horiz-adv-x="554" 
d="M71 0v2q24 37 24 137v319h-63v18h63v64q0 101 46 160t118 59q42 0 60 -14l12 -92l-6 -2q-18 27 -30 43.5t-29 30.5t-32 14q-28 0 -47 -40.5t-19 -114.5v-108h181v84q0 101 47.5 160t123.5 59q43 0 67 -14l11 -92l-6 -2q-19 29 -30 44t-30 29.5t-37 14.5q-31 0 -52 -40.5
t-21 -114.5v-128h118v-18h-118v-319q0 -97 23 -137v-2h-120v2q24 37 24 137v319h-181v-319q0 -97 23 -137v-2h-120z" />
    <glyph glyph-name="f_i" unicode="fi" horiz-adv-x="492" 
d="M191 0h-120v2q24 37 24 137v319h-63v18h63v84q0 101 47.5 160t123.5 59q61 0 93 -26l16 -129l-6 -2q-35 64 -65.5 100.5t-60.5 36.5q-33 0 -54 -40.5t-21 -114.5v-128h142q67 0 112 20v-341q0 -60 4 -91.5t18 -61.5v-2h-118v2q23 63 23 152v204q0 70 -40 100h-141v-319
q0 -97 23 -137v-2z" />
    <glyph glyph-name="f_l" unicode="fl" horiz-adv-x="492" 
d="M191 2v-2h-120v2q24 37 24 137v319h-63v18h63v84q0 102 47.5 160.5t129.5 58.5q52 0 94 -23l56 23v-650q0 -89 22 -127v-2h-117v2q22 43 22 126v491q0 62 -27.5 101t-67.5 39t-63 -40t-23 -115v-128h118v-18h-118v-319q0 -97 23 -137z" />
    <glyph glyph-name="f_f_i" unicode="ffi" horiz-adv-x="746" 
d="M191 0h-120v2q24 37 24 137v319h-63v18h63v64q0 101 46 160t118 59q42 0 60 -14l12 -92l-6 -2q-18 27 -30 43.5t-29 30.5t-32 14q-28 0 -47 -40.5t-19 -114.5v-108h181v84q0 101 47.5 160t123.5 59q62 0 92 -26l17 -129l-6 -2q-36 64 -66 100.5t-60 36.5q-33 0 -54 -40.5
t-21 -114.5v-128h142q67 0 112 20v-341q0 -60 4 -91.5t18 -61.5v-2h-118v2q23 63 23 152v204q0 70 -40 100h-141v-319q0 -97 23 -137v-2h-120v2q24 37 24 137v319h-181v-319q0 -97 23 -137v-2z" />
    <glyph glyph-name="f_f_l" unicode="ffl" horiz-adv-x="746" 
d="M71 0v2q24 37 24 137v319h-63v18h63v64q0 101 46 160t118 59q42 0 60 -14l12 -92l-6 -2q-18 27 -30 43.5t-29 30.5t-32 14q-28 0 -47 -40.5t-19 -114.5v-108h181v84q0 101 49 160t129 59q51 0 93 -23l56 23v-650q0 -89 22 -127v-2h-117v2q22 43 22 126v491q0 62 -27 101
t-66 39q-42 0 -65 -39.5t-23 -115.5v-128h118v-18h-118v-319q0 -97 23 -137v-2h-120v2q24 37 24 137v319h-181v-319q0 -97 23 -137v-2h-120z" />
    <glyph glyph-name=".notdef" horiz-adv-x="161" 
 />
    <glyph glyph-name=".null" horiz-adv-x="0" 
 />
    <glyph glyph-name="nonmarkingreturn" horiz-adv-x="333" 
 />
    <glyph glyph-name="space" unicode=" " horiz-adv-x="159" 
 />
    <glyph glyph-name="exclam" unicode="!" horiz-adv-x="223" 
d="M152 732v-2l-33 -522h-15l-32 522v2h80zM112 -4q-23 0 -40 16.5t-17 39.5q0 24 17 40.5t40 16.5t39.5 -16.5t16.5 -40.5q0 -23 -16.5 -39.5t-39.5 -16.5z" />
    <glyph glyph-name="quotedbl" unicode="&#x22;" horiz-adv-x="304" 
d="M81 525l-37 207h84l-37 -207h-10zM213 525l-37 207h84l-37 -207h-10z" />
    <glyph glyph-name="numbersign" unicode="#" horiz-adv-x="585" 
d="M366 250l44 232h-190l-44 -232h190zM320 0l43 231h-190l-43 -231h-24l43 231h-133v19h136l44 232h-133v19h136l43 231h24l-43 -231h190l43 231h24l-43 -231h134v-19h-137l-44 -232h135v-19h-138l-43 -231h-24z" />
    <glyph glyph-name="dollar" unicode="$" horiz-adv-x="537" 
d="M278 -114h-24v99h-1q-99 0 -198 38l-20 162l8 3q41 -89 91.5 -132.5t119.5 -49.5v343q-40 18 -60.5 28.5t-51.5 31.5t-47 40.5t-28 50t-12 66.5q0 84 54.5 129t144.5 51v76h24v-75q84 0 162 -30l20 -158l-8 -3q-63 155 -174 169v-291l27 -12q39 -18 61 -29t53.5 -33
t48.5 -43.5t29.5 -54.5t12.5 -72q0 -98 -64.5 -148t-167.5 -56v-100zM435 153q0 37 -12 66t-36 51t-48 36.5t-61 31.5v-333q76 0 116.5 41t40.5 107zM119 603q0 -57 34.5 -91.5t100.5 -66.5v282q-66 0 -100.5 -35t-34.5 -89z" />
    <glyph glyph-name="percent" unicode="%" horiz-adv-x="770" 
d="M189 346q-67 0 -113.5 58t-46.5 143t46 142.5t114 57.5t116 -57.5t48 -142.5t-48.5 -143t-115.5 -58zM189 361q90 0 90 186q0 185 -90 185q-86 0 -86 -185q0 -186 86 -186zM578 -8q-66 0 -113 58t-47 143t46.5 142.5t113.5 57.5q68 0 116 -57.5t48 -142.5t-48 -143
t-116 -58zM578 7q90 0 90 186q0 185 -90 185q-86 0 -86 -185q0 -186 86 -186zM140 1l-16 13l520 729l18 -11z" />
    <glyph glyph-name="ampersand" unicode="&#x26;" horiz-adv-x="763" 
d="M605 -15q-83 0 -156 80q-80 -80 -191 -80q-104 0 -158.5 56t-54.5 139q0 74 43 129.5t118 85.5q-38 54 -55.5 95t-17.5 85q0 76 46.5 124t117.5 48q67 0 105 -41.5t38 -101.5q0 -62 -40.5 -110t-113.5 -78l74 -96q13 -17 60 -83.5t72 -95.5q40 58 62 125t22 111
q0 27 -12.5 42t-46.5 23v4h195v-4q-48 -13 -70 -39q-21 -24 -43 -79q-3 -9 -14 -36t-17 -41.5t-17 -37.5t-22.5 -42.5t-25.5 -37.5q70 -77 142 -77q77 0 107 70l4 -2q-35 -135 -151 -135zM295 23q81 0 142 54q-30 34 -80 108.5t-66 96.5q-50 66 -77 103q-96 -57 -96 -174
q0 -84 46 -136t131 -52zM191 610q0 -44 20 -83t69 -103q53 26 84.5 70.5t31.5 102.5q0 54 -26.5 92.5t-76.5 38.5q-44 0 -73 -30.5t-29 -87.5z" />
    <glyph glyph-name="quotesingle" unicode="'" horiz-adv-x="172" 
d="M81 525l-37 207h84l-37 -207h-10z" />
    <glyph glyph-name="parenleft" unicode="(" horiz-adv-x="308" 
d="M278 -120l-8 -10q-91 75 -142 188.5t-51 253.5t51 254t142 189l8 -10q-61 -77 -96 -188.5t-35 -244.5t35 -244t96 -188z" />
    <glyph glyph-name="parenright" unicode=")" horiz-adv-x="308" 
d="M38 -130l-8 10q61 77 96 188t35 244t-35 244.5t-96 188.5l8 10q91 -75 142 -189t51 -254t-51 -253.5t-142 -188.5z" />
    <glyph glyph-name="asterisk" unicode="*" horiz-adv-x="376" 
d="M246 456l-58 119l-58 -119l-52 37l95 92l-130 18l19 61l117 -62l-23 130h64l-24 -131l117 63l21 -61l-131 -18l94 -92z" />
    <glyph glyph-name="plus" unicode="+" horiz-adv-x="532" 
d="M487 298h-210v-210h-22v210h-210v20h210v210h22v-210h210v-20z" />
    <glyph glyph-name="comma" unicode="," horiz-adv-x="228" 
d="M48 -143l-7 8q28 25 45 56.5t17 59.5q0 32 -45 79v2l75 56q45 -33 45 -80q0 -52 -39 -100t-91 -81z" />
    <glyph glyph-name="hyphen" unicode="-" horiz-adv-x="281" 
d="M251 261h-221v44h221v-44z" />
    <glyph glyph-name="period" unicode="." horiz-adv-x="225" 
d="M112 -4q-22 0 -39 17t-17 39q0 24 16.5 40.5t39.5 16.5t40 -16.5t17 -40.5q0 -23 -17 -39.5t-40 -16.5z" />
    <glyph glyph-name="slash" unicode="/" horiz-adv-x="398" 
d="M-22 -130l382 911h26l-383 -911h-25z" />
    <glyph glyph-name="zero" unicode="0" horiz-adv-x="657" 
d="M327 -15q-120 0 -204 110t-84 271t83.5 271t204.5 110q122 0 206 -110t84 -271t-84.5 -271t-205.5 -110zM327 4q99 0 147.5 99.5t48.5 262.5q0 106 -19 184.5t-64.5 128t-112.5 49.5q-98 0 -145.5 -99.5t-47.5 -262.5t47.5 -262.5t145.5 -99.5z" />
    <glyph glyph-name="one" unicode="1" horiz-adv-x="327" 
d="M267 0h-183v2q30 35 40 62t10 75v464h-88v6q89 50 163 136h8v-606q0 -48 9.5 -75t40.5 -62v-2z" />
    <glyph glyph-name="two" unicode="2" horiz-adv-x="518" 
d="M442 0h-434v12q212 178 295 297.5t83 234.5q0 87 -39 135.5t-110 48.5q-65 0 -104 -40t-83 -126l-8 3l26 150q82 32 171 32q119 0 176.5 -54t57.5 -144q0 -111 -88.5 -219.5t-280.5 -255.5h228q54 0 84.5 19.5t65.5 65.5l8 -3z" />
    <glyph glyph-name="three" unicode="3" horiz-adv-x="543" 
d="M245 -15q-50 0 -102 12.5t-83 31.5l-22 140l8 2q58 -92 97.5 -129.5t105.5 -37.5q86 0 127.5 62t41.5 161q0 103 -45 155.5t-130 52.5q-72 0 -130 -44l-9 11l288 256h-322l32 74h393v-10l-316 -280q36 15 87 15q101 0 170 -59.5t69 -168.5t-72 -176.5t-188 -67.5z" />
    <glyph glyph-name="four" unicode="4" horiz-adv-x="556" 
d="M312 0v2q24 35 32 62t8 75v51h-344v12l339 530h96l-410 -519h319v259h82v-259h90l-8 -23h-82v-51q0 -48 7.5 -75t32.5 -62v-2h-162z" />
    <glyph glyph-name="five" unicode="5" horiz-adv-x="530" 
d="M234 -15q-106 0 -177 44l-24 145l8 2q47 -87 91 -129.5t107 -42.5q81 0 125 61.5t44 163.5q0 104 -46.5 160.5t-138.5 56.5q-79 0 -139 -45l-9 6l53 325h352l-14 -74h-328l-39 -231q61 41 143 41q109 0 179.5 -61.5t70.5 -171.5q0 -113 -71.5 -181.5t-186.5 -68.5z" />
    <glyph glyph-name="six" unicode="6" horiz-adv-x="577" 
d="M293 -15q-110 0 -180.5 83.5t-70.5 204.5q0 63 21 128t64 131t121 123.5t180 91.5l4 -11q-114 -49 -184 -140t-99 -202q52 92 168 92q97 0 160.5 -65t63.5 -172q0 -114 -72 -189t-176 -75zM293 4q73 0 117 63t44 169q0 105 -43 159t-119 54q-49 0 -90 -22.5t-61 -65.5
q-10 -51 -10 -105q0 -67 15.5 -121.5t53 -92.5t93.5 -38z" />
    <glyph glyph-name="seven" unicode="7" horiz-adv-x="489" 
d="M173 0h-90q91 326 343 658h-393l17 74h439v-10q-252 -368 -316 -722z" />
    <glyph glyph-name="eight" unicode="8" horiz-adv-x="544" 
d="M269 -15q-103 0 -169.5 52t-66.5 140q0 66 41.5 118t126.5 75q-132 70 -132 190q0 81 57.5 134t147.5 53q85 0 141.5 -47t56.5 -123q0 -53 -33 -99t-110 -70q182 -82 182 -219q0 -96 -69 -150t-173 -54zM270 4q79 0 126 41.5t47 111.5q0 65 -47.5 106t-174.5 97l-3 2
q-123 -58 -123 -185q0 -80 46 -126.5t129 -46.5zM134 593q0 -60 42 -98.5t135 -79.5q97 56 97 164q0 70 -35 109.5t-99 39.5t-102 -38t-38 -97z" />
    <glyph glyph-name="nine" unicode="9" horiz-adv-x="577" 
d="M149 -15l-4 11q112 49 182.5 140t99.5 200q-22 -39 -65.5 -64.5t-104.5 -25.5q-95 0 -158.5 65t-63.5 172q0 114 72.5 189t176.5 75q110 0 180.5 -83.5t70.5 -204.5q0 -63 -21 -128t-64 -131t-121 -123.5t-180 -91.5zM284 283q50 0 91 22.5t60 64.5q11 58 11 107
q0 66 -15.5 120.5t-53.5 92.5t-93 38q-73 0 -117 -62.5t-44 -168.5q0 -105 42.5 -159.5t118.5 -54.5z" />
    <glyph glyph-name="colon" unicode=":" horiz-adv-x="225" 
d="M112 318q-22 0 -39 17t-17 39q0 24 16.5 40.5t39.5 16.5t40 -16.5t17 -40.5q0 -23 -17 -39.5t-40 -16.5zM112 -4q-22 0 -39 17t-17 39q0 24 16.5 40.5t39.5 16.5t40 -16.5t17 -40.5q0 -23 -17 -39.5t-40 -16.5z" />
    <glyph glyph-name="semicolon" unicode=";" horiz-adv-x="225" 
d="M42 -143l-7 8q28 25 45 56.5t17 59.5q0 32 -45 79v2l75 56q45 -33 45 -80q0 -52 -39 -100t-91 -81zM112 318q-22 0 -39 17t-17 39q0 24 16.5 40.5t39.5 16.5t40 -16.5t17 -40.5q0 -23 -17 -39.5t-40 -16.5z" />
    <glyph glyph-name="less" unicode="&#x3c;" horiz-adv-x="530" 
d="M475 85l-430 208v26l430 208v-25l-409 -196l409 -196v-25z" />
    <glyph glyph-name="equal" unicode="=" horiz-adv-x="532" 
d="M487 378h-442v21h442v-21zM487 237h-442v21h442v-21z" />
    <glyph glyph-name="greater" unicode="&#x3e;" horiz-adv-x="530" 
d="M485 293l-430 -208v25l409 196l-409 196v25l430 -208v-26z" />
    <glyph glyph-name="question" unicode="?" horiz-adv-x="430" 
d="M147 208h-16q7 45 28.5 83.5t46.5 66t49.5 57t41 73t16.5 97.5q0 144 -113 144q-52 0 -86 -34t-67 -106l-7 2l20 127q76 29 145 29q93 0 142.5 -42t49.5 -122q0 -44 -15.5 -80.5t-39 -61.5t-53 -52t-57 -50.5t-51 -57.5t-34.5 -73zM145 -4q-23 0 -39.5 16.5t-16.5 39.5
q0 24 16.5 40.5t39.5 16.5t40 -16.5t17 -40.5q0 -23 -17 -39.5t-40 -16.5z" />
    <glyph glyph-name="at" unicode="@" horiz-adv-x="853" 
d="M417 -161q-167 0 -274.5 97.5t-107.5 262.5q0 181 127 309t321 128q154 0 244 -82.5t90 -227.5q0 -123 -62.5 -208.5t-160.5 -85.5q-40 0 -66.5 16.5t-35.5 42t-10.5 56.5t7.5 59l1 6q-35 -82 -80 -134.5t-93 -52.5q-36 0 -57.5 30t-21.5 85q0 117 79 216t186 99
q45 0 75 -16l32 16h6l-64 -241q-22 -68 -12 -115.5t64 -47.5q76 0 124 81.5t48 193.5q0 138 -80.5 214t-216.5 76q-117 0 -208 -58.5t-137.5 -153t-46.5 -206.5q0 -157 92 -248t242 -91q128 0 214 60l8 -16q-91 -64 -226 -64zM350 77q67 0 154 209l32 121q-15 29 -53 29
q-47 0 -89 -46.5t-64.5 -111.5t-22.5 -125q0 -76 43 -76z" />
    <glyph glyph-name="A" unicode="A" horiz-adv-x="630" 
d="M408 296l-122 337l-124 -337h246zM124 2v-2h-122v2q29 29 43.5 56.5t36.5 86.5l221 596h24l224 -606q23 -60 37.5 -85.5t39.5 -47.5v-2h-159v2q30 46 -4 137l-50 137h-261l-41 -112q-38 -101 11 -162z" />
    <glyph glyph-name="B" unicode="B" horiz-adv-x="598" 
d="M298 0h-247v2q24 38 32 67.5t8 80.5v432q0 51 -8 80.5t-32 67.5v2q88 0 153.5 2t91.5 2q245 1 245 -170q0 -64 -34 -111.5t-100 -67.5q87 -11 128.5 -62t41.5 -122q0 -93 -69.5 -148t-209.5 -55zM173 391h145q74 0 108.5 49.5t34.5 119.5q0 76 -44.5 116t-130.5 40
q-59 0 -113 -7v-318zM290 20q99 0 148.5 47.5t49.5 131.5q0 79 -41 125.5t-120 46.5h-154v-342q58 -9 117 -9z" />
    <glyph glyph-name="C" unicode="C" horiz-adv-x="747" 
d="M698 227l-20 -167q-31 -23 -108.5 -49t-163.5 -26q-169 0 -270 108.5t-101 273.5q0 162 109.5 271t283.5 109q127 0 246 -49l20 -152l-8 -2q-62 99 -122 141t-144 42q-145 0 -218 -98.5t-73 -261.5t70.5 -262.5t208.5 -99.5q104 0 168.5 56.5t113.5 168.5z" />
    <glyph glyph-name="D" unicode="D" horiz-adv-x="734" 
d="M51 0v2q24 38 32 67.5t8 80.5v432q0 51 -8 80.5t-32 67.5v2q64 0 136.5 2t140.5 2q175 0 272.5 -95.5t97.5 -271.5q0 -178 -99 -273.5t-281 -95.5h-267zM319 716l-146 1v-699l136 2q156 2 225.5 84.5t69.5 250.5q0 184 -71 272t-214 89z" />
    <glyph glyph-name="E" unicode="E" horiz-adv-x="601" 
d="M586 179l-44 -179h-491v2q39 75 39 138v452q0 39 -9 68t-30 70v2h441l39 -160l-8 -3q-11 13 -29.5 36.5t-31 38.5t-28 31.5t-28 24.5t-23.5 9l-210 7v-338h126q13 0 27.5 11t23.5 22.5t24.5 33t20.5 28.5h8v-204h-8q-3 3 -25.5 33t-38 43t-32.5 13h-126v-342l218 7
q49 2 93 44t94 115z" />
    <glyph glyph-name="F" unicode="F" horiz-adv-x="558" 
d="M213 2v-2h-162v2q24 38 32 67t8 78v438q0 50 -8 78.5t-32 66.5v2h459l35 -160l-9 -3q-9 12 -28.5 36.5t-31.5 39t-27.5 31.5t-28 25.5t-23.5 8.5l-224 6v-328h136q13 0 27.5 11t23.5 22t24 33t20 28h9v-204h-9q-5 6 -19.5 26.5t-24 31.5t-24 21.5t-27.5 10.5h-136v-221
q0 -51 8 -79.5t32 -65.5z" />
    <glyph glyph-name="G" unicode="G" horiz-adv-x="793" 
d="M721 91q-2 -1 -17.5 -12t-21.5 -15t-23.5 -15t-29.5 -16t-31.5 -14t-37.5 -14t-40.5 -10t-47.5 -7.5t-51 -2.5q-174 0 -280 108.5t-106 272.5t110 272.5t294 108.5q125 0 256 -48l20 -152l-8 -3q-55 97 -119 140t-158 43q-147 0 -224 -100.5t-77 -261.5q0 -162 71.5 -261
t220.5 -99q101 0 162 41t61 118q0 66 -9.5 100t-36.5 66v2h163v-2q-24 -34 -32 -65.5t-8 -91.5v-82z" />
    <glyph glyph-name="H" unicode="H" horiz-adv-x="733" 
d="M51 0v2q24 38 32 67.5t8 80.5v432q0 51 -8 80.5t-32 67.5v2h162v-2q-25 -38 -32.5 -67t-7.5 -81v-194h387v194q0 52 -8 81t-32 67v2h162v-2q-24 -39 -32 -68t-8 -80v-432q0 -51 8 -80t32 -68v-2h-162v2q24 38 32 67t8 81v218h-387v-218q0 -52 7.5 -81t32.5 -67v-2h-162z
" />
    <glyph glyph-name="I" unicode="I" horiz-adv-x="263" 
d="M51 0v2q24 38 32 67t8 81v432q0 52 -8 81t-32 67v2h162v-2q-25 -38 -32.5 -67t-7.5 -81v-432q0 -52 7.5 -81t32.5 -67v-2h-162z" />
    <glyph glyph-name="J" unicode="J" horiz-adv-x="378" 
d="M296 127q0 -68 -38.5 -105t-107.5 -37q-56 0 -107 22l-18 143l8 3q44 -78 73 -113t57 -35q24 0 38 22.5t14 65.5v489q0 51 -8 80t-32 68v2h161v-2q-24 -39 -32 -68t-8 -80v-455z" />
    <glyph glyph-name="K" unicode="K" horiz-adv-x="627" 
d="M51 0v2q24 38 32 67t8 81v432q0 51 -8 80.5t-32 67.5v2h162v-2q-25 -38 -32.5 -67t-7.5 -81v-432q0 -52 7.5 -81t32.5 -67v-2h-162zM627 0h-134l-294 372l210 230q71 79 27 128v2h162v-2q-38 -18 -68.5 -41t-44.5 -37t-45 -48l-172 -187l233 -296q40 -50 65 -74t60 -45z
" />
    <glyph glyph-name="L" unicode="L" horiz-adv-x="563" 
d="M505 0h-454v2q24 38 32 67.5t8 80.5v432q0 51 -8 80.5t-32 67.5v2h162v-2q-25 -38 -32.5 -67t-7.5 -81v-567l181 7q94 5 188 160l8 -3z" />
    <glyph glyph-name="M" unicode="M" horiz-adv-x="869" 
d="M186 0h-153v2q35 44 46.5 76.5t11.5 88.5v448q-3 40 -17 63.5t-49 51.5v2h143l273 -605l267 605h136v-2q-40 -31 -53 -59t-13 -84v-435q0 -52 8 -81.5t32 -68.5v-2h-161v2q24 39 32 68.5t8 81.5v501l-280 -631h-18l-288 636l3 -491q0 -56 14 -88.5t58 -76.5v-2z" />
    <glyph glyph-name="N" unicode="N" horiz-adv-x="706" 
d="M597 -3l-487 634l4 -465q0 -56 13.5 -88.5t56.5 -75.5v-2h-148v2q34 43 44.5 75.5t10.5 88.5v455q-19 68 -79 109v2h121l466 -606l-3 440q-1 57 -12.5 89t-48.5 75v2h138v-2q-34 -43 -44.5 -75.5t-10.5 -88.5v-566z" />
    <glyph glyph-name="O" unicode="O" horiz-adv-x="812" 
d="M405 -15q-150 0 -260 110.5t-110 269.5t110 270.5t260 111.5q151 0 261.5 -111.5t110.5 -270.5t-110.5 -269.5t-261.5 -110.5zM405 5q131 0 204.5 100t73.5 260t-73.5 261t-204.5 101q-130 0 -203 -101t-73 -261t72.5 -260t203.5 -100z" />
    <glyph glyph-name="P" unicode="P" horiz-adv-x="561" 
d="M51 0v2q24 38 32 67.5t8 80.5v432q0 51 -8 80.5t-32 67.5v2h239q137 0 196.5 -55.5t59.5 -144.5q0 -102 -71 -164.5t-199 -62.5h-103v-155q0 -52 7.5 -81t32.5 -67v-2h-162zM275 712q-51 0 -102 -2v-385h101q95 0 141.5 57.5t46.5 148.5q0 101 -50 141t-137 40z" />
    <glyph glyph-name="Q" unicode="Q" horiz-adv-x="812" 
d="M679 -170q-62 0 -116 18t-90 47t-55 49.5t-33 41.5q-144 8 -247 117t-103 262q0 159 110 270.5t260 111.5q151 0 261.5 -111.5t110.5 -270.5q0 -158 -109 -268t-259 -112q56 -42 118 -64t118 -22t97 6t79 19l-34 -71q-38 -23 -108 -23zM405 5q131 0 204.5 100t73.5 260
t-73.5 261t-204.5 101q-130 0 -203 -101t-73 -261t72.5 -260t203.5 -100z" />
    <glyph glyph-name="R" unicode="R" horiz-adv-x="631" 
d="M291 712q-61 0 -118 -1v-342h119q84 0 120.5 52.5t36.5 137.5q0 74 -35.5 113.5t-122.5 39.5zM51 0v2q24 38 32 67.5t8 80.5v432q0 51 -8 80.5t-32 67.5v2h256q116 0 171.5 -45.5t55.5 -127.5q0 -70 -36 -122.5t-106 -74.5l122 -232q29 -57 52 -83t60 -43v-4h-138
l-181 349h-134v-199q0 -52 7.5 -81t32.5 -67v-2h-162z" />
    <glyph glyph-name="S" unicode="S" horiz-adv-x="542" 
d="M440 717l20 -158l-8 -3q-70 171 -198 171q-66 0 -100.5 -35t-34.5 -89q0 -28 10.5 -51.5t22.5 -38.5t40 -33t44 -26t54 -25q10 -5 15 -7q39 -18 61 -29t53.5 -33t48.5 -43.5t29.5 -54.5t12.5 -72q0 -104 -72.5 -154.5t-184.5 -50.5q-99 0 -198 38l-20 162l8 3
q45 -96 100.5 -139.5t133.5 -43.5q77 0 117.5 41t40.5 107q0 39 -13 69.5t-41 53.5t-53 37t-67 33q-44 20 -62.5 29t-52.5 31t-49.5 41.5t-28.5 50.5t-13 68q0 90 62 135.5t161 45.5q84 0 162 -30z" />
    <glyph glyph-name="T" unicode="T" horiz-adv-x="671" 
d="M417 2v-2h-162v2q24 38 32 67t8 81v564l-133 -4q-8 0 -17 -5.5t-19.5 -17t-20 -22.5t-22 -30t-20.5 -30.5t-21 -32.5t-19 -30l-8 3l38 187h565l39 -187l-8 -3q-5 7 -27 41t-32 48t-27.5 37t-30 32.5t-23.5 9.5l-132 4v-564q0 -52 7.5 -81t32.5 -67z" />
    <glyph glyph-name="U" unicode="U" horiz-adv-x="690" 
d="M355 -15q-120 0 -196.5 62.5t-76.5 190.5v342q0 53 -7.5 82t-32.5 68v2h162v-2q-40 -64 -40 -150v-339q0 -122 56.5 -177.5t152.5 -55.5q112 0 162 67.5t50 174.5v315q0 57 -14 89t-58 76v2h159l2 -2q-41 -44 -54 -76.5t-13 -88.5v-314q0 -119 -59.5 -192.5t-192.5 -73.5
z" />
    <glyph glyph-name="V" unicode="V" horiz-adv-x="631" 
d="M327 -8h-24l-224 603q-20 56 -37 84.5t-43 50.5v2h175v-2q-15 -20 -19 -55.5t11 -82.5l179 -490l165 448q41 110 -11 180v2h133v-2q-33 -30 -50 -61t-40 -95z" />
    <glyph glyph-name="W" unicode="W" horiz-adv-x="970" 
d="M290 -9h-24l-188 606q-18 58 -32 84.5t-39 48.5v2h171v-2q-38 -57 -13 -137l146 -476l163 435l-16 45q-20 58 -34.5 84.5t-39.5 48.5v2h175v-2q-42 -56 -14 -137l165 -474l134 434q33 110 -13 177v2h132v-2q-34 -30 -52.5 -64t-38.5 -98l-179 -577h-24l-184 529z" />
    <glyph glyph-name="X" unicode="X" horiz-adv-x="650" 
d="M158 2v-2h-152v2q41 27 70.5 58.5t64.5 85.5l148 226l-151 244q-52 85 -102 114v2h189v-2q-19 -14 -17.5 -43.5t22.5 -65.5l117 -189l98 143q42 62 45 95.5t-28 59.5v2h151v-2q-39 -26 -65.5 -55.5t-67.5 -88.5l-120 -175l182 -294q28 -47 50 -72.5t51 -42.5v-2h-188v2
q19 14 17.5 43.5t-22.5 65.5l-148 240l-126 -194q-41 -63 -44 -96t26 -59z" />
    <glyph glyph-name="Y" unicode="Y" horiz-adv-x="584" 
d="M209 0v2q24 32 32 57t8 68v211l-158 276q-49 85 -97 116v2h188v-2q-22 -15 -21.5 -43.5t19.5 -63.5l144 -257l119 202q61 104 5 162v2h142v-2q-26 -20 -46 -43.5t-31 -41t-41 -67.5l-141 -239v-212q0 -44 7.5 -68.5t32.5 -56.5v-2h-162z" />
    <glyph glyph-name="Z" unicode="Z" horiz-adv-x="615" 
d="M543 0h-518v11l453 705l-201 -6q-74 -3 -125 -45t-96 -117l-8 3l47 181h483v-11l-452 -706l235 7q73 3 125.5 47.5t97.5 125.5l8 -3z" />
    <glyph glyph-name="bracketleft" unicode="[" horiz-adv-x="331" 
d="M95 -130v885h212v-19h-144v-847h144v-19h-212z" />
    <glyph glyph-name="backslash" unicode="\" horiz-adv-x="398" 
d="M420 -130h-25l-383 911h26z" />
    <glyph glyph-name="bracketright" unicode="]" horiz-adv-x="331" 
d="M236 755v-885h-212v19h144v847h-144v19h212z" />
    <glyph glyph-name="asciicircum" unicode="^" horiz-adv-x="412" 
d="M373 478l-167 179l-167 -179l-9 9l173 263h6l173 -263z" />
    <glyph glyph-name="underscore" unicode="_" horiz-adv-x="493" 
d="M461 -100h-430v19h430v-19z" />
    <glyph glyph-name="grave" unicode="`" horiz-adv-x="308" 
d="M231 539l-8 -6l-185 163l61 53z" />
    <glyph glyph-name="a" unicode="a" horiz-adv-x="468" 
d="M187 29q66 0 110 42v166q-192 -35 -192 -135q0 -33 21 -53t61 -20zM371 -12q-34 0 -52.5 18t-21.5 48q-62 -69 -151 -69q-50 0 -81 24.5t-31 69.5q0 39 25 71t66 52t84 32.5t88 17.5v100q0 95 -103 95q-79 0 -137 -44l-5 6q68 82 185 82q133 0 133 -121v-294
q0 -43 39 -43q23 0 48 21l3 -2q-27 -64 -89 -64z" />
    <glyph glyph-name="b" unicode="b" horiz-adv-x="540" 
d="M260 -15q-97 0 -156 55l-36 -45h-7v642q0 57 -44 93v2l117 47v-373h3q27 39 70.5 62t94.5 23q91 0 147 -67.5t56 -175.5q0 -111 -64 -187t-181 -76zM271 3q67 0 110.5 63t43.5 168q0 102 -45.5 155.5t-119.5 53.5q-40 -1 -73.5 -17.5t-52.5 -40.5v-209q0 -87 40.5 -130
t96.5 -43z" />
    <glyph glyph-name="c" unicode="c" horiz-adv-x="472" 
d="M434 114l6 -3q-20 -58 -68.5 -92t-118.5 -34q-99 0 -159.5 66t-60.5 176q0 116 74.5 190t177.5 74q70 0 133 -30l10 -102l-8 -2q-66 116 -151 116q-73 0 -117 -57t-44 -155t46.5 -155t129.5 -57q103 0 150 65z" />
    <glyph glyph-name="d" unicode="d" horiz-adv-x="554" 
d="M272 34q83 0 134 72v249q-10 63 -44 90.5t-79 27.5q-74 0 -121 -64.5t-47 -164.5q0 -97 42 -153.5t115 -56.5zM411 86h-3q-58 -101 -176 -101q-89 0 -143 64.5t-54 169.5q0 112 71.5 192t190.5 80q63 0 109 -22v167q0 59 -44 93v2l117 48v-623q0 -69 9 -93.5t36 -41.5v-2
l-113 -31v98z" />
    <glyph glyph-name="e" unicode="e" horiz-adv-x="476" 
d="M256 473q-59 0 -96.5 -43t-47.5 -116l250 5v8q0 146 -106 146zM445 121q-19 -61 -70 -98.5t-122 -37.5q-98 0 -159 68.5t-61 176.5q0 115 68 188t159 73q84 0 136.5 -60t46.5 -133h-333q-1 -11 -1 -34q0 -101 46.5 -158t130.5 -57q104 0 154 75z" />
    <glyph glyph-name="f" unicode="f" horiz-adv-x="301" 
d="M71 0v2q24 37 24 137v319h-63v18h63v84q0 101 47.5 160t123.5 59q45 0 67 -14l12 -92l-6 -2q-16 23 -23.5 33.5t-21.5 26t-26.5 22t-26.5 6.5q-31 0 -52 -40.5t-21 -114.5v-128h118v-18h-118v-319q0 -97 23 -137v-2h-120z" />
    <glyph glyph-name="g" unicode="g" horiz-adv-x="497" 
d="M230 172q52 0 79 42t27 108q0 67 -26.5 109t-80.5 42t-80 -42.5t-26 -108.5q0 -65 27 -107.5t80 -42.5zM475 -72q-2 -67 -68 -110t-181 -43q-96 0 -155 31.5t-59 85.5q0 38 27.5 65t66.5 38q-65 19 -65 74q0 41 31.5 67t76.5 36q-46 21 -74 61.5t-28 88.5q0 69 53.5 119
t128.5 50q73 0 126 -47l122 64l2 -1v-76h-4l-109 2q46 -46 46 -111q0 -68 -53.5 -118t-128.5 -50q-39 0 -69 13q-60 -23 -60 -65q0 -45 93 -48l108 -4q82 -3 128 -35.5t45 -86.5zM254 -199q81 0 126 26t45 73q0 77 -135 82l-110 2q-38 2 -62 7q-40 -24 -40 -79
q0 -54 46.5 -82.5t129.5 -28.5z" />
    <glyph glyph-name="h" unicode="h" horiz-adv-x="529" 
d="M169 0h-118v2q22 51 22 152v476q0 62 -44 100v2l117 47v-377q76 89 172 89q68 0 104 -38.5t36 -107.5v-191q0 -104 22 -152v-2h-117v2q22 51 22 152v175q0 51 -24.5 82t-77.5 31q-79 0 -137 -59v-229q0 -104 23 -152v-2z" />
    <glyph glyph-name="i" unicode="i" horiz-adv-x="218" 
d="M157 659q0 -21 -14.5 -35.5t-34.5 -14.5t-35 14.5t-15 35.5q0 20 15 35t35 15t34.5 -15t14.5 -35zM53 0v2q22 60 22 152v186q0 61 -44 99v4l117 53v-341q0 -105 22 -153v-2h-117z" />
    <glyph glyph-name="j" unicode="j" horiz-adv-x="215" 
d="M157 659q0 -21 -14.5 -35.5t-34.5 -14.5t-35 14.5t-15 35.5q0 20 15 35t35 15t34.5 -15t14.5 -35zM12 -215l-2 5q34 20 49.5 51.5t15.5 89.5v409q0 61 -44 99v4l117 53l-2 -525q0 -169 -134 -186z" />
    <glyph glyph-name="k" unicode="k" horiz-adv-x="456" 
d="M51 0v2q22 43 22 126v509q0 58 -44 92v2l117 48v-650q0 -87 23 -127v-2h-118zM456 0h-113l-180 249l130 144q45 51 8 81v2h122v-2q-37 -16 -59.5 -35.5t-54.5 -55.5l-85 -96l141 -195q50 -68 91 -90v-2z" />
    <glyph glyph-name="l" unicode="l" horiz-adv-x="216" 
d="M51 0v2q22 43 22 126v509q0 57 -45 92v2l118 48v-650q0 -89 22 -127v-2h-117z" />
    <glyph glyph-name="m" unicode="m" horiz-adv-x="768" 
d="M171 2v-2h-118v2q23 52 23 150v188q0 63 -45 102v2l114 53v-94l4 -1q60 89 157 89q96 0 114 -89l3 -1q64 90 158 90q117 0 117 -135v-203q0 -104 22 -151v-2h-117v2q22 53 22 150v188q0 102 -82 102q-70 0 -120 -62v-227q0 -58 4 -89.5t19 -61.5v-2h-118v2q22 50 22 150
v188q0 48 -17.5 75t-64.5 27q-71 0 -119 -61v-228q0 -104 22 -151z" />
    <glyph glyph-name="n" unicode="n" horiz-adv-x="530" 
d="M170 2v-2h-117v2q22 51 22 152v187q0 62 -44 100v2l113 53v-93l4 -1q75 89 171 89q68 0 104.5 -39t36.5 -107v-190q0 -61 3.5 -91.5t18.5 -61.5v-2h-117v2q22 54 22 152v175q0 51 -24.5 82t-78.5 31q-78 0 -136 -59v-228q0 -105 22 -153z" />
    <glyph glyph-name="o" unicode="o" horiz-adv-x="562" 
d="M281 -15q-103 0 -177 74.5t-74 177.5q1 104 75 179t176 75q103 0 177 -75t74 -179q0 -103 -74 -177.5t-177 -74.5zM281 4q81 0 124 66.5t43 166.5t-43.5 167.5t-123.5 67.5t-123.5 -67.5t-43.5 -167.5t43 -166.5t124 -66.5z" />
    <glyph glyph-name="p" unicode="p" horiz-adv-x="554" 
d="M278 3q72 0 116.5 62.5t44.5 167.5q0 102 -45 156t-117 54q-41 0 -75.5 -17t-53.5 -41v-289q19 -47 53.5 -70t76.5 -23zM170 -225h-117v2q22 51 22 151v413q0 62 -44 100v2l113 53v-89l7 -1q58 85 166 85q89 0 145.5 -67.5t56.5 -175.5q0 -111 -64.5 -187t-183.5 -76
q-72 0 -123 30v-86q0 -104 22 -152v-2z" />
    <glyph glyph-name="q" unicode="q" horiz-adv-x="545" 
d="M383 -225v2q23 53 23 151v155q-59 -98 -174 -98q-89 0 -143 64.5t-54 169.5q0 112 71.5 192t190.5 80q91 0 140 -42l39 38h3v-558q0 -104 22 -152v-2h-118zM272 34q83 0 134 72v250q-9 62 -43 89.5t-80 27.5q-74 0 -121 -64.5t-47 -164.5q0 -97 42 -153.5t115 -56.5z" />
    <glyph glyph-name="r" unicode="r" horiz-adv-x="331" 
d="M53 0v2q22 51 22 152v187q0 62 -44 100v2l113 53v-121l5 -1q7 7 26 29t30.5 33.5t29.5 26t36 21.5t38 7l-1 -99h-3q-12 8 -37.5 15t-42.5 7q-13 0 -35 -18t-42 -44v-197q0 -105 22 -153v-2h-117z" />
    <glyph glyph-name="s" unicode="s" horiz-adv-x="386" 
d="M324 472l10 -98l-7 -2q-56 101 -140 101q-43 0 -69.5 -23t-26.5 -59q0 -27 19.5 -48t36 -29t61.5 -27q7 -3 11 -5q32 -13 52.5 -23.5t43.5 -29t34.5 -44.5t11.5 -60q0 -67 -48.5 -103.5t-132.5 -36.5q-71 0 -139 28l-10 114l7 2q31 -66 68.5 -96t87.5 -30q52 0 79.5 27.5
t27.5 67.5q0 41 -28.5 64t-88.5 47q-34 14 -52 23t-43.5 27.5t-37.5 43.5t-12 58q0 67 49 98.5t120 31.5q65 0 116 -19z" />
    <glyph glyph-name="t" unicode="t" horiz-adv-x="322" 
d="M185 -15q-46 0 -76 26.5t-30 88.5v358h-54v4l122 105h5v-91h140v-18h-140v-358q0 -75 72 -75q41 0 76 19l2 -4q-42 -55 -117 -55z" />
    <glyph glyph-name="u" unicode="u" horiz-adv-x="506" 
d="M356 -12v103q-71 -106 -164 -106q-63 0 -97 41t-34 113v251q0 55 -42 84v2h115v-321q0 -112 96 -112q75 0 121 64v283q0 57 -44 84v2h117v-338q0 -59 9.5 -80t35.5 -36v-2z" />
    <glyph glyph-name="v" unicode="v" horiz-adv-x="428" 
d="M208 -7l-145 372q-19 48 -31.5 71t-29.5 38v2h142v-2q-30 -35 -3 -106l101 -266l94 248q32 87 -10 124v2h103v-2q-25 -22 -38.5 -45t-30.5 -68l-142 -368h-10z" />
    <glyph glyph-name="w" unicode="w" horiz-adv-x="651" 
d="M187 -8l-122 374q-26 80 -57 108v2h139v-2q-9 -13 -11 -38.5t8 -63.5l79 -258l91 249l-1 3q-30 85 -58 108v2h136v-2q-23 -34 2 -109l82 -250l80 235q31 88 -11 124v2h102v-2q-24 -22 -37.5 -44.5t-29.5 -68.5l-126 -369h-11l-119 345l-125 -345h-11z" />
    <glyph glyph-name="x" unicode="x" horiz-adv-x="446" 
d="M114 2v-2h-109v2q34 25 53.5 45t44.5 56l86 125l-87 139q-48 78 -88 107v2h146v-2q-10 -11 -10 -25t6.5 -28.5t22.5 -40.5l66 -105l59 89q46 68 14 110v2h110v-2q-33 -24 -52.5 -44t-44.5 -57l-76 -115l94 -149q43 -72 89 -107v-2h-145v2q8 10 10 18.5t-3 21.5t-10 22.5
t-19 31.5l-72 116l-69 -101q-46 -64 -16 -109z" />
    <glyph glyph-name="y" unicode="y" horiz-adv-x="429" 
d="M31 -225l-2 74q24 0 49.5 6.5t59.5 33.5t50 71l14 37l-140 368q-31 83 -60 109v2h141v-2q-31 -34 -1 -115l98 -262l97 258q31 84 -13 119v2h105v-2q-24 -23 -38 -45.5t-30 -67.5l-165 -427q-32 -83 -71 -118t-94 -41z" />
    <glyph glyph-name="z" unicode="z" horiz-adv-x="428" 
d="M368 0h-350v7l291 452l-138 -4q-23 0 -48.5 -16.5t-36 -28t-41.5 -46.5l-5 2l33 110h324v-8l-289 -451l151 3q41 1 70 25t69 76l5 -2z" />
    <glyph glyph-name="braceleft" unicode="{" horiz-adv-x="311" 
d="M286 -130h-25q-83 0 -127 32t-44 92q0 35 30 109t30 114q0 86 -108 86h-17v19h17q108 0 108 86q0 40 -30 114t-30 109q0 60 44 92t127 32h25v-19h-25q-50 0 -74 -20t-24 -80q0 -25 16.5 -99t16.5 -112q0 -57 -30.5 -80t-88.5 -31v-3q59 -8 89 -30.5t30 -80.5
q0 -39 -16.5 -112.5t-16.5 -98.5q0 -61 23.5 -80.5t74.5 -19.5h25v-19z" />
    <glyph glyph-name="bar" unicode="|" horiz-adv-x="205" 
d="M114 -130h-23v911h23v-911z" />
    <glyph glyph-name="braceright" unicode="}" horiz-adv-x="311" 
d="M50 -130h-25v19h25q51 0 74.5 19.5t23.5 80.5q0 25 -16.5 98.5t-16.5 112.5q0 58 30 80.5t89 30.5v3q-58 8 -88.5 31t-30.5 80q0 38 16.5 112t16.5 99q0 60 -24 80t-74 20h-25v19h25q83 0 127 -32t44 -92q0 -35 -30 -109t-30 -114q0 -86 108 -86h17v-19h-17
q-108 0 -108 -86q0 -40 30 -114t30 -109q0 -60 -44 -92t-127 -32z" />
    <glyph glyph-name="asciitilde" unicode="~" horiz-adv-x="452" 
d="M134 329q20 0 94 -25.5t111 -25.5q29 0 44.5 13.5t23.5 43.5l9 -2q-1 -18 -5.5 -34.5t-14.5 -35t-29.5 -29.5t-45.5 -11q-29 0 -104.5 25.5t-101.5 25.5q-54 0 -68 -59l-10 2q3 41 26 76.5t71 35.5z" />
    <glyph glyph-name="uni00A0" unicode="&#xa0;" horiz-adv-x="159" 
 />
    <glyph glyph-name="exclamdown" unicode="&#xa1;" horiz-adv-x="223" 
d="M152 -243v-2h-80v2l32 522h15zM112 491q23 0 39.5 -16.5t16.5 -39.5q0 -24 -16.5 -40.5t-39.5 -16.5t-40 16.5t-17 40.5q0 23 17 39.5t40 16.5z" />
    <glyph glyph-name="cent" unicode="&#xa2;" horiz-adv-x="472" 
d="M265 -114h-24v99q-94 5 -151 70t-57 172q0 103 59.5 173.5t148.5 86.5v70h24v-67q3 0 9.5 0.5t10.5 0.5q70 0 133 -30l10 -102l-8 -2q-66 116 -151 116h-4v-423q6 -1 19 -1q103 0 150 65l6 -3q-19 -55 -64.5 -88.5t-110.5 -36.5v-100zM108 261q0 -84 35 -139t98 -69v417
q-62 -11 -97.5 -66t-35.5 -143z" />
    <glyph glyph-name="sterling" unicode="&#xa3;" horiz-adv-x="550" 
d="M547 170l-65 -170h-474v8q33 23 48.5 36.5t34.5 37.5t28 53.5t17.5 76t13.5 114.5l3 36h-81l5 19h78l7 91q10 135 69.5 205t137.5 70q31 0 61.5 -10t45.5 -22l20 -156l-9 -3q-68 171 -138 171q-22 0 -38 -18t-32 -72t-28 -147l-15 -109h141l-5 -19h-138
q-29 -217 -136 -294h273q63 0 96.5 22t71.5 83z" />
    <glyph glyph-name="yen" unicode="&#xa5;" horiz-adv-x="545" 
d="M187 0v2q24 32 32 57t8 68v64h-174v19h174v112h-174v19h170l-137 273q-39 80 -92 116v2h179v-2q-42 -25 -3 -107l130 -262l105 207q55 108 3 162v2h143v-2q-40 -31 -64 -61.5t-54 -90.5l-121 -237h172v-19h-175v-112h175v-19h-175v-64q0 -44 7.5 -68.5t32.5 -56.5v-2
h-162z" />
    <glyph glyph-name="brokenbar" unicode="&#xa6;" horiz-adv-x="205" 
d="M114 365h-23v416h23v-416zM114 -130h-23v415h23v-415z" />
    <glyph glyph-name="section" unicode="&#xa7;" horiz-adv-x="488" 
d="M242 169q41 -22 54 -30q41 5 66.5 37t25.5 77q0 29 -10.5 52t-34.5 43t-42 31t-53 30q-18 10 -54 32q-41 -5 -67.5 -36.5t-26.5 -77.5q0 -30 10.5 -53.5t35 -43.5t42 -31t54.5 -30zM222 -164q-75 0 -133 25l-8 113l6 2q57 -121 145 -121q47 0 77 29.5t30 76.5
q0 29 -10.5 51.5t-36 42.5t-42 30t-54.5 31q-70 37 -109 77t-39 105q0 60 35 102t95 52q-78 58 -78 140q0 73 50 114t130 41q56 0 107 -17l8 -97l-6 -2q-31 54 -60.5 75.5t-69.5 21.5q-49 0 -77.5 -30.5t-28.5 -78.5q0 -29 10.5 -51.5t35.5 -43t41.5 -31t54.5 -31.5
q34 -19 54 -32.5t44 -35.5t35.5 -50t11.5 -63q0 -58 -34.5 -100t-92.5 -53q80 -54 80 -140q0 -74 -48 -113t-123 -39z" />
    <glyph glyph-name="dieresis" unicode="&#xa8;" 
d="M340 659q0 -21 -14.5 -35.5t-34.5 -14.5q-21 0 -35.5 14.5t-14.5 35.5q0 20 14.5 35t35.5 15q20 0 34.5 -15t14.5 -35zM140 659q0 -21 -14.5 -35.5t-34.5 -14.5q-21 0 -35.5 14.5t-14.5 35.5q0 20 14.5 35t35.5 15q20 0 34.5 -15t14.5 -35z" />
    <glyph glyph-name="copyright" unicode="&#xa9;" horiz-adv-x="834" 
d="M35 367q0 159 111.5 269.5t269.5 110.5q159 0 270.5 -110.5t111.5 -269.5q0 -160 -112 -270.5t-270 -110.5t-269.5 110.5t-111.5 270.5zM61 367q0 -150 104 -255.5t251 -105.5q148 0 251.5 105.5t103.5 255.5q0 149 -103.5 254t-251.5 105q-147 0 -251 -105t-104 -254z
M566 198q-17 -13 -58.5 -27t-87.5 -14q-95 0 -151 59.5t-56 150.5q0 89 60 149t157 60q65 0 134 -27l11 -96l-5 -2q-34 56 -67 82t-80 26q-72 0 -109 -53t-37 -139q0 -87 36 -140t107 -53q55 0 89.5 33.5t61.5 96.5l6 -2z" />
    <glyph glyph-name="ordfeminine" unicode="&#xaa;" horiz-adv-x="376" 
d="M158 391q48 0 76 30v126q-137 -27 -137 -101q0 -25 15.5 -40t45.5 -15zM294 354q-27 0 -41.5 14.5t-16.5 38.5q-46 -56 -117 -56q-38 0 -62 19.5t-24 54.5q0 31 19 56t50 41t64 25.5t68 14.5v71q0 37 -17.5 55t-59.5 18q-63 0 -107 -33l-5 6q56 68 150 68q107 0 107 -97
v-223q0 -36 28 -36q17 0 31 16l3 -1q-20 -52 -70 -52z" />
    <glyph glyph-name="guillemotleft" unicode="&#xab;" horiz-adv-x="415" 
d="M358 58l-8 -6l-145 175v20l145 175l8 -6l-91 -179zM208 58l-8 -6l-145 175v20l145 175l8 -6l-91 -179z" />
    <glyph glyph-name="registered" unicode="&#xae;" horiz-adv-x="456" 
d="M18 541q0 86 62 146t150 60q87 0 147.5 -59.5t60.5 -146.5q0 -86 -62 -145.5t-149 -59.5q-88 0 -148.5 59t-60.5 146zM42 541q0 -78 54 -131.5t132 -53.5t132 53.5t54 131.5q0 79 -54 132.5t-132 53.5q-79 0 -132.5 -53.5t-53.5 -132.5zM149 432v2q12 18 12 44v129
q0 26 -12 44v2h89q73 0 73 -56q0 -43 -45 -56l38 -70q17 -31 34 -37v-2h-54l-54 101h-32v-55q0 -26 12 -44v-2h-61zM230 637h-32v-87h33q42 0 42 46q0 41 -43 41z" />
    <glyph glyph-name="macron" unicode="&#xaf;" 
d="M48 603v42h284v-42h-284z" />
    <glyph glyph-name="degree" unicode="&#xb0;" horiz-adv-x="296" 
d="M15 615q0 55 39.5 93.5t95.5 38.5t93 -38.5t37 -93.5t-39.5 -94t-94.5 -39q-56 0 -93.5 38.5t-37.5 94.5zM40 615q0 -48 30.5 -80t77.5 -32t77.5 32t30.5 80t-30.5 79.5t-77.5 31.5t-77.5 -31.5t-30.5 -79.5z" />
    <glyph glyph-name="acute" unicode="&#xb4;" horiz-adv-x="380" 
d="M113 544l132 205l60 -53l-184 -159z" />
    <glyph glyph-name="paragraph" unicode="&#xb6;" horiz-adv-x="467" 
d="M396 0h-59v1q15 49 15 110v510q0 65 -15 110v1h59v-1q-15 -49 -15 -110v-510q0 -65 15 -110v-1zM297 0h-59v1q15 48 15 110v271h-57q-73 0 -124.5 51.5t-51.5 124.5q0 72 51.5 123t124.5 51h101v-1q-15 -47 -15 -110v-510q0 -66 15 -110v-1z" />
    <glyph glyph-name="periodcentered" unicode="&#xb7;" horiz-adv-x="221" 
d="M110 217q-22 0 -39 16.5t-17 39.5q0 24 16.5 40.5t39.5 16.5t40 -16.5t17 -40.5q0 -23 -17 -39.5t-40 -16.5z" />
    <glyph glyph-name="cedilla" unicode="&#xb8;" horiz-adv-x="380" 
d="M118 -255l-3 8q45 18 69.5 38t24.5 50q0 50 -80 57l-2 2q55 89 63 102h28l-39 -60q85 -19 85 -85q0 -82 -146 -112z" />
    <glyph glyph-name="ordmasculine" unicode="&#xba;" horiz-adv-x="451" 
d="M226 351q-82 0 -140.5 58.5t-58.5 139.5q1 81 59.5 139.5t139.5 58.5t139.5 -59t58.5 -139q0 -81 -58.5 -139.5t-139.5 -58.5zM226 366q60 0 92.5 52t32.5 131q0 78 -32.5 130.5t-92.5 52.5q-61 0 -93.5 -52.5t-32.5 -130.5q0 -79 32.5 -131t93.5 -52z" />
    <glyph glyph-name="guillemotright" unicode="&#xbb;" horiz-adv-x="415" 
d="M215 52l-8 6l91 179l-91 179l8 6l145 -175v-20zM65 52l-8 6l91 179l-91 179l8 6l145 -175v-20z" />
    <glyph glyph-name="onequarter" unicode="&#xbc;" horiz-adv-x="615" 
d="M167 354h-122v1q17 20 22.5 36t5.5 43v226h-48v5q64 32 109 80h5v-311q0 -28 5.5 -43.5t22.5 -35.5v-1zM62 1l-16 13l520 729l18 -11zM461 0v1q22 33 22 79v20h-168v7l176 278h78l-231 -269h145v118h67v-118h49l-4 -16h-45v-20q0 -44 23 -79v-1h-112z" />
    <glyph glyph-name="onehalf" unicode="&#xbd;" horiz-adv-x="669" 
d="M52 1l-16 13l520 729l18 -11zM621 0h-241v7q106 93 147.5 156t41.5 124q0 43 -17.5 67t-49.5 24q-29 0 -51.5 -24.5t-46.5 -71.5l-5 2l12 92q46 17 93 17q66 0 98.5 -28.5t32.5 -75.5q0 -54 -45 -108t-143 -127h102q34 0 55 15.5t42 46.5l4 -2zM167 354h-122v1
q17 20 22.5 36t5.5 43v226h-48v5q64 32 109 80h5v-311q0 -28 5.5 -43.5t22.5 -35.5v-1z" />
    <glyph glyph-name="threequarters" unicode="&#xbe;" horiz-adv-x="666" 
d="M140 346q-63 0 -102 23l-13 89l6 1q24 -38 35 -53.5t31.5 -30t43.5 -14.5q40 0 60 31t20 81q0 103 -84 103q-35 0 -68 -22l-6 8l140 122h-159l17 54h222v-5l-166 -144q15 4 37 4q55 0 94.5 -31.5t39.5 -88.5t-41 -92t-107 -35zM113 1l-16 13l520 729l18 -11zM512 0v1
q22 33 22 79v20h-168v7l176 278h78l-231 -269h145v118h67v-118h49l-4 -16h-45v-20q0 -44 23 -79v-1h-112z" />
    <glyph glyph-name="questiondown" unicode="&#xbf;" horiz-adv-x="430" 
d="M288 279h16q-7 -45 -28.5 -83.5t-46.5 -66t-49.5 -57t-41 -73t-16.5 -97.5q0 -144 113 -144q52 0 86 34t67 106l7 -2l-20 -127q-76 -29 -145 -29q-93 0 -142.5 42t-49.5 122q0 44 15.5 80.5t39 61.5t53 52t57 50.5t51 57.5t34.5 73zM290 491q23 0 39.5 -16.5t16.5 -39.5
q0 -24 -16.5 -40.5t-39.5 -16.5t-40 16.5t-17 40.5q0 23 17 39.5t40 16.5z" />
    <glyph glyph-name="Agrave" unicode="&#xc0;" horiz-adv-x="630" 
d="M408 296l-122 337l-124 -337h246zM124 2v-2h-122v2q29 29 43.5 56.5t36.5 86.5l221 596h24l224 -606q23 -60 37.5 -85.5t39.5 -47.5v-2h-159v2q30 46 -4 137l-50 137h-261l-41 -112q-38 -101 11 -162zM397 790l-4 -8l-238 108l44 69z" />
    <glyph glyph-name="Aacute" unicode="&#xc1;" horiz-adv-x="630" 
d="M408 296l-122 337l-124 -337h246zM124 2v-2h-122v2q29 29 43.5 56.5t36.5 86.5l221 596h24l224 -606q23 -60 37.5 -85.5t39.5 -47.5v-2h-159v2q30 46 -4 137l-50 137h-261l-41 -112q-38 -101 11 -162zM218 790l197 169l41 -69l-233 -108z" />
    <glyph glyph-name="Acircumflex" unicode="&#xc2;" horiz-adv-x="630" 
d="M408 296l-122 337l-124 -337h246zM124 2v-2h-122v2q29 29 43.5 56.5t36.5 86.5l221 596h24l224 -606q23 -60 37.5 -85.5t39.5 -47.5v-2h-159v2q30 46 -4 137l-50 137h-261l-41 -112q-38 -101 11 -162zM462 782l-147 88l-147 -88l-8 8l152 155h5l152 -155z" />
    <glyph glyph-name="Atilde" unicode="&#xc3;" horiz-adv-x="630" 
d="M408 296l-122 337l-124 -337h246zM124 2v-2h-122v2q29 29 43.5 56.5t36.5 86.5l221 596h24l224 -606q23 -60 37.5 -85.5t39.5 -47.5v-2h-159v2q30 46 -4 137l-50 137h-261l-41 -112q-38 -101 11 -162zM238 903q32 0 87.5 -24t85.5 -24q26 0 40.5 13.5t23.5 46.5l9 -1
q-1 -23 -4.5 -39.5t-12 -37t-27 -32t-45.5 -11.5q-32 0 -87 24t-85 24q-27 0 -41 -13.5t-24 -46.5l-9 1q1 23 4.5 39.5t12 37t27 32t45.5 11.5z" />
    <glyph glyph-name="Adieresis" unicode="&#xc4;" horiz-adv-x="630" 
d="M408 296l-122 337l-124 -337h246zM124 2v-2h-122v2q29 29 43.5 56.5t36.5 86.5l221 596h24l224 -606q23 -60 37.5 -85.5t39.5 -47.5v-2h-159v2q30 46 -4 137l-50 137h-261l-41 -112q-38 -101 11 -162zM488 868q0 -21 -14.5 -35.5t-35.5 -14.5q-20 0 -35 14.5t-15 35.5
t15 35.5t35 14.5q21 0 35.5 -14.5t14.5 -35.5zM237 868q0 -21 -14.5 -35.5t-35.5 -14.5q-20 0 -35 14.5t-15 35.5t15 35.5t35 14.5q21 0 35.5 -14.5t14.5 -35.5z" />
    <glyph glyph-name="Aring" unicode="&#xc5;" horiz-adv-x="630" 
d="M408 296l-122 337l-124 -337h246zM124 2v-2h-122v2q29 29 43.5 56.5t36.5 86.5l221 596h24l224 -606q23 -60 37.5 -85.5t39.5 -47.5v-2h-159v2q30 46 -4 137l-50 137h-261l-41 -112q-38 -101 11 -162zM225 866q0 37 24.5 61t62.5 24t62.5 -24t24.5 -61t-25 -60.5
t-62 -23.5t-62 23.5t-25 60.5zM258 866q0 -66 54 -66t54 66q0 31 -14 49.5t-40 18.5t-40 -18.5t-14 -49.5z" />
    <glyph glyph-name="AE" unicode="&#xc6;" horiz-adv-x="977" 
d="M465 592q0 48 -14 80l-212 -376h226v296zM143 2v-2h-128v2q37 30 58.5 59t54.5 86l311 548q-13 20 -33 35v2h461l39 -160l-8 -3q-10 12 -29 36.5t-31 38.5t-27.5 31t-28.5 25t-23 9l-211 7v-338h127q10 0 20.5 6t21.5 18t18.5 22t18.5 26.5t16 22.5h8v-204h-8
q-5 6 -19.5 25.5t-24 31t-24 22t-27.5 10.5h-127v-342l219 7q49 2 92 43t95 116l8 -3l-45 -179h-491v2q39 75 39 138v136h-238l-68 -121q-56 -97 -16 -153z" />
    <glyph glyph-name="Ccedilla" unicode="&#xc7;" horiz-adv-x="747" 
d="M312 -255l-3 8q45 18 69.5 38t24.5 50q0 50 -80 57l-2 2q34 57 53 86q-155 11 -247 118t-92 263q0 162 109.5 271t283.5 109q127 0 246 -49l20 -152l-8 -2q-62 99 -122 141t-144 42q-145 0 -218 -98.5t-73 -261.5t70.5 -262.5t208.5 -99.5q104 0 168.5 56.5t113.5 168.5
l8 -3l-20 -167q-31 -23 -108.5 -49t-163.5 -26h-5l-28 -43q85 -19 85 -85q0 -82 -146 -112z" />
    <glyph glyph-name="Egrave" unicode="&#xc8;" horiz-adv-x="601" 
d="M586 179l-44 -179h-491v2q39 75 39 138v452q0 39 -9 68t-30 70v2h441l39 -160l-8 -3q-11 13 -29.5 36.5t-31 38.5t-28 31.5t-28 24.5t-23.5 9l-210 7v-338h126q13 0 27.5 11t23.5 22.5t24.5 33t20.5 28.5h8v-204h-8q-3 3 -25.5 33t-38 43t-32.5 13h-126v-342l218 7
q49 2 93 44t94 115zM390 790l-4 -8l-238 108l44 69z" />
    <glyph glyph-name="Eacute" unicode="&#xc9;" horiz-adv-x="601" 
d="M586 179l-44 -179h-491v2q39 75 39 138v452q0 39 -9 68t-30 70v2h441l39 -160l-8 -3q-11 13 -29.5 36.5t-31 38.5t-28 31.5t-28 24.5t-23.5 9l-210 7v-338h126q13 0 27.5 11t23.5 22.5t24.5 33t20.5 28.5h8v-204h-8q-3 3 -25.5 33t-38 43t-32.5 13h-126v-342l218 7
q49 2 93 44t94 115zM202 790l197 169l41 -69l-233 -108z" />
    <glyph glyph-name="Ecircumflex" unicode="&#xca;" horiz-adv-x="601" 
d="M586 179l-44 -179h-491v2q39 75 39 138v452q0 39 -9 68t-30 70v2h441l39 -160l-8 -3q-11 13 -29.5 36.5t-31 38.5t-28 31.5t-28 24.5t-23.5 9l-210 7v-338h126q13 0 27.5 11t23.5 22.5t24.5 33t20.5 28.5h8v-204h-8q-3 3 -25.5 33t-38 43t-32.5 13h-126v-342l218 7
q49 2 93 44t94 115zM449 782l-147 88l-147 -88l-8 8l152 155h5l152 -155z" />
    <glyph glyph-name="Edieresis" unicode="&#xcb;" horiz-adv-x="601" 
d="M586 179l-44 -179h-491v2q39 75 39 138v452q0 39 -9 68t-30 70v2h441l39 -160l-8 -3q-11 13 -29.5 36.5t-31 38.5t-28 31.5t-28 24.5t-23.5 9l-210 7v-338h126q13 0 27.5 11t23.5 22.5t24.5 33t20.5 28.5h8v-204h-8q-3 3 -25.5 33t-38 43t-32.5 13h-126v-342l218 7
q49 2 93 44t94 115zM467 868q0 -21 -14.5 -35.5t-35.5 -14.5q-20 0 -35 14.5t-15 35.5t15 35.5t35 14.5q21 0 35.5 -14.5t14.5 -35.5zM216 868q0 -21 -14.5 -35.5t-35.5 -14.5q-20 0 -35 14.5t-15 35.5t15 35.5t35 14.5q21 0 35.5 -14.5t14.5 -35.5z" />
    <glyph glyph-name="Igrave" unicode="&#xcc;" horiz-adv-x="263" 
d="M51 0v2q24 38 32 67t8 81v432q0 52 -8 81t-32 67v2h162v-2q-25 -38 -32.5 -67t-7.5 -81v-432q0 -52 7.5 -81t32.5 -67v-2h-162zM207 790l-4 -8l-238 108l44 69z" />
    <glyph glyph-name="Iacute" unicode="&#xcd;" horiz-adv-x="263" 
d="M51 0v2q24 38 32 67t8 81v432q0 52 -8 81t-32 67v2h162v-2q-25 -38 -32.5 -67t-7.5 -81v-432q0 -52 7.5 -81t32.5 -67v-2h-162zM42 790l197 169l41 -69l-233 -108z" />
    <glyph glyph-name="Icircumflex" unicode="&#xce;" horiz-adv-x="263" 
d="M51 0v2q24 38 32 67t8 81v432q0 52 -8 81t-32 67v2h162v-2q-25 -38 -32.5 -67t-7.5 -81v-432q0 -52 7.5 -81t32.5 -67v-2h-162zM279 782l-147 88l-147 -88l-8 8l152 155h5l152 -155z" />
    <glyph glyph-name="Idieresis" unicode="&#xcf;" horiz-adv-x="263" 
d="M277 868q0 -21 -15 -35.5t-35 -14.5t-35 14.5t-15 35.5t15 35.5t35 14.5t35 -14.5t15 -35.5zM86 868q0 -21 -14.5 -35.5t-35.5 -14.5q-20 0 -35 14.5t-15 35.5t15 35.5t35 14.5q21 0 35.5 -14.5t14.5 -35.5zM51 0v2q24 38 32 67t8 81v432q0 52 -8 81t-32 67v2h162v-2
q-25 -38 -32.5 -67t-7.5 -81v-432q0 -52 7.5 -81t32.5 -67v-2h-162z" />
    <glyph glyph-name="Eth" unicode="&#xd0;" horiz-adv-x="742" 
d="M3 358v18h96v206q0 51 -8 80.5t-32 67.5v2q64 0 136.5 2t140.5 2q175 0 272.5 -95.5t97.5 -271.5q0 -178 -99 -273.5t-281 -95.5h-267v2q24 38 32 67.5t8 80.5v208h-96zM327 716l-146 1v-341h197v-18h-197v-340l136 2q156 2 225.5 84.5t69.5 250.5q0 184 -71 272t-214 89
z" />
    <glyph glyph-name="Ntilde" unicode="&#xd1;" horiz-adv-x="706" 
d="M597 -3l-487 634l4 -465q0 -56 13.5 -88.5t56.5 -75.5v-2h-148v2q34 43 44.5 75.5t10.5 88.5v455q-19 68 -79 109v2h121l466 -606l-3 440q-1 57 -12.5 89t-48.5 75v2h138v-2q-34 -43 -44.5 -75.5t-10.5 -88.5v-566zM291 903q32 0 87.5 -24t85.5 -24q26 0 40.5 13.5
t23.5 46.5l9 -1q-1 -23 -4.5 -39.5t-12 -37t-27 -32t-45.5 -11.5q-32 0 -87 24t-85 24q-27 0 -41 -13.5t-24 -46.5l-9 1q1 23 4.5 39.5t12 37t27 32t45.5 11.5z" />
    <glyph glyph-name="Ograve" unicode="&#xd2;" horiz-adv-x="812" 
d="M405 -15q-150 0 -260 110.5t-110 269.5t110 270.5t260 111.5q151 0 261.5 -111.5t110.5 -270.5t-110.5 -269.5t-261.5 -110.5zM405 5q131 0 204.5 100t73.5 260t-73.5 261t-204.5 101q-130 0 -203 -101t-73 -261t72.5 -260t203.5 -100zM491 790l-4 -8l-238 108l44 69z
" />
    <glyph glyph-name="Oacute" unicode="&#xd3;" horiz-adv-x="812" 
d="M405 -15q-150 0 -260 110.5t-110 269.5t110 270.5t260 111.5q151 0 261.5 -111.5t110.5 -270.5t-110.5 -269.5t-261.5 -110.5zM405 5q131 0 204.5 100t73.5 260t-73.5 261t-204.5 101q-130 0 -203 -101t-73 -261t72.5 -260t203.5 -100zM316 790l197 169l41 -69l-233 -108
z" />
    <glyph glyph-name="Ocircumflex" unicode="&#xd4;" horiz-adv-x="812" 
d="M405 -15q-150 0 -260 110.5t-110 269.5t110 270.5t260 111.5q151 0 261.5 -111.5t110.5 -270.5t-110.5 -269.5t-261.5 -110.5zM405 5q131 0 204.5 100t73.5 260t-73.5 261t-204.5 101q-130 0 -203 -101t-73 -261t72.5 -260t203.5 -100zM553 782l-147 88l-147 -88l-8 8
l152 155h5l152 -155z" />
    <glyph glyph-name="Otilde" unicode="&#xd5;" horiz-adv-x="812" 
d="M405 -15q-150 0 -260 110.5t-110 269.5t110 270.5t260 111.5q151 0 261.5 -111.5t110.5 -270.5t-110.5 -269.5t-261.5 -110.5zM405 5q131 0 204.5 100t73.5 260t-73.5 261t-204.5 101q-130 0 -203 -101t-73 -261t72.5 -260t203.5 -100zM327 903q32 0 87.5 -24t85.5 -24
q26 0 40.5 13.5t23.5 46.5l9 -1q-1 -23 -4.5 -39.5t-12 -37t-27 -32t-45.5 -11.5q-32 0 -87 24t-85 24q-27 0 -41 -13.5t-24 -46.5l-9 1q1 23 4.5 39.5t12 37t27 32t45.5 11.5z" />
    <glyph glyph-name="Odieresis" unicode="&#xd6;" horiz-adv-x="812" 
d="M405 -15q-150 0 -260 110.5t-110 269.5t110 270.5t260 111.5q151 0 261.5 -111.5t110.5 -270.5t-110.5 -269.5t-261.5 -110.5zM405 5q131 0 204.5 100t73.5 260t-73.5 261t-204.5 101q-130 0 -203 -101t-73 -261t72.5 -260t203.5 -100zM581 868q0 -21 -14.5 -35.5
t-35.5 -14.5q-20 0 -35 14.5t-15 35.5t15 35.5t35 14.5q21 0 35.5 -14.5t14.5 -35.5zM330 868q0 -21 -14.5 -35.5t-35.5 -14.5q-20 0 -35 14.5t-15 35.5t15 35.5t35 14.5q21 0 35.5 -14.5t14.5 -35.5z" />
    <glyph glyph-name="multiply" unicode="&#xd7;" horiz-adv-x="472" 
d="M406 122l-170 170l-170 -170l-15 15l170 170l-170 170l15 15l170 -170l170 170l15 -15l-170 -170l170 -170z" />
    <glyph glyph-name="Oslash" unicode="&#xd8;" horiz-adv-x="812" 
d="M129 365q0 -175 83 -273l371 564q-71 71 -178 71q-130 0 -203 -101t-73 -261zM405 5q131 0 204.5 100t73.5 260q0 175 -84 274l-371 -564q70 -70 177 -70zM405 -15q-106 0 -198 59l-48 -73h-27l57 86q-71 53 -112.5 133.5t-41.5 174.5q0 159 110 270.5t260 111.5
q106 0 199 -60l49 75h27l-58 -88q71 -53 113 -134t42 -175q0 -159 -110.5 -269.5t-261.5 -110.5z" />
    <glyph glyph-name="Ugrave" unicode="&#xd9;" horiz-adv-x="690" 
d="M355 -15q-120 0 -196.5 62.5t-76.5 190.5v342q0 53 -7.5 82t-32.5 68v2h162v-2q-40 -64 -40 -150v-339q0 -122 56.5 -177.5t152.5 -55.5q112 0 162 67.5t50 174.5v315q0 57 -14 89t-58 76v2h159l2 -2q-41 -44 -54 -76.5t-13 -88.5v-314q0 -119 -59.5 -192.5t-192.5 -73.5
zM462 790l-4 -8l-238 108l44 69z" />
    <glyph glyph-name="Uacute" unicode="&#xda;" horiz-adv-x="690" 
d="M355 -15q-120 0 -196.5 62.5t-76.5 190.5v342q0 53 -7.5 82t-32.5 68v2h162v-2q-40 -64 -40 -150v-339q0 -122 56.5 -177.5t152.5 -55.5q112 0 162 67.5t50 174.5v315q0 57 -14 89t-58 76v2h159l2 -2q-41 -44 -54 -76.5t-13 -88.5v-314q0 -119 -59.5 -192.5t-192.5 -73.5
zM282 790l197 169l41 -69l-233 -108z" />
    <glyph glyph-name="Ucircumflex" unicode="&#xdb;" horiz-adv-x="690" 
d="M355 -15q-120 0 -196.5 62.5t-76.5 190.5v342q0 53 -7.5 82t-32.5 68v2h162v-2q-40 -64 -40 -150v-339q0 -122 56.5 -177.5t152.5 -55.5q112 0 162 67.5t50 174.5v315q0 57 -14 89t-58 76v2h159l2 -2q-41 -44 -54 -76.5t-13 -88.5v-314q0 -119 -59.5 -192.5t-192.5 -73.5
zM519 782l-147 88l-147 -88l-8 8l152 155h5l152 -155z" />
    <glyph glyph-name="Udieresis" unicode="&#xdc;" horiz-adv-x="690" 
d="M355 -15q-120 0 -196.5 62.5t-76.5 190.5v342q0 53 -7.5 82t-32.5 68v2h162v-2q-40 -64 -40 -150v-339q0 -122 56.5 -177.5t152.5 -55.5q112 0 162 67.5t50 174.5v315q0 57 -14 89t-58 76v2h159l2 -2q-41 -44 -54 -76.5t-13 -88.5v-314q0 -119 -59.5 -192.5t-192.5 -73.5
zM547 868q0 -21 -14.5 -35.5t-35.5 -14.5q-20 0 -35 14.5t-15 35.5t15 35.5t35 14.5q21 0 35.5 -14.5t14.5 -35.5zM296 868q0 -21 -14.5 -35.5t-35.5 -14.5q-20 0 -35 14.5t-15 35.5t15 35.5t35 14.5q21 0 35.5 -14.5t14.5 -35.5z" />
    <glyph glyph-name="Yacute" unicode="&#xdd;" horiz-adv-x="584" 
d="M209 0v2q24 32 32 57t8 68v211l-158 276q-49 85 -97 116v2h188v-2q-22 -15 -21.5 -43.5t19.5 -63.5l144 -257l119 202q61 104 5 162v2h142v-2q-26 -20 -46 -43.5t-31 -41t-41 -67.5l-141 -239v-212q0 -44 7.5 -68.5t32.5 -56.5v-2h-162zM234 790l197 169l41 -69
l-233 -108z" />
    <glyph glyph-name="Thorn" unicode="&#xde;" horiz-adv-x="551" 
d="M270 542q-46 0 -97 -3v-334h101q91 0 134.5 48.5t43.5 129.5q0 159 -182 159zM213 2v-2h-162v2q24 38 32 67t8 81v432q0 52 -8 81t-32 67v2h162v-2q-25 -38 -32.5 -67t-7.5 -81v-20h113q132 0 191 -49t59 -129q0 -92 -68 -145.5t-192 -53.5h-103v-35q0 -52 7.5 -81
t32.5 -67z" />
    <glyph glyph-name="germandbls" unicode="&#xdf;" horiz-adv-x="568" 
d="M387 -15q-65 0 -129 30l-10 114l8 2q29 -68 60.5 -98t78.5 -30q46 0 72 26t26 67q0 37 -23.5 62t-56.5 40l-66 30t-56.5 43t-23.5 69q0 32 15 59t36.5 47.5t43 42.5t36.5 55.5t15 75.5q0 59 -28.5 99t-84.5 40q-63 0 -97.5 -50.5t-34.5 -143.5v-565h-97v2q24 37 24 137
v319h-63v18h63v46q0 116 56.5 186.5t152.5 70.5q71 0 121.5 -39.5t50.5 -111.5q0 -38 -16.5 -69.5t-39.5 -52.5t-46 -40t-39.5 -41.5t-16.5 -47.5q0 -30 24 -51.5t59 -35.5t69.5 -31.5t58.5 -51t24 -82.5q0 -69 -45 -104.5t-121 -35.5z" />
    <glyph glyph-name="agrave" unicode="&#xe0;" horiz-adv-x="468" 
d="M187 29q66 0 110 42v166q-192 -35 -192 -135q0 -33 21 -53t61 -20zM371 -12q-34 0 -52.5 18t-21.5 48q-62 -69 -151 -69q-50 0 -81 24.5t-31 69.5q0 39 25 71t66 52t84 32.5t88 17.5v100q0 95 -103 95q-79 0 -137 -44l-5 6q68 82 185 82q133 0 133 -121v-294
q0 -43 39 -43q23 0 48 21l3 -2q-27 -64 -89 -64zM288 539l-8 -6l-185 163l61 53z" />
    <glyph glyph-name="aacute" unicode="&#xe1;" horiz-adv-x="468" 
d="M187 29q66 0 110 42v166q-192 -35 -192 -135q0 -33 21 -53t61 -20zM371 -12q-34 0 -52.5 18t-21.5 48q-62 -69 -151 -69q-50 0 -81 24.5t-31 69.5q0 39 25 71t66 52t84 32.5t88 17.5v100q0 95 -103 95q-79 0 -137 -44l-5 6q68 82 185 82q133 0 133 -121v-294
q0 -43 39 -43q23 0 48 21l3 -2q-27 -64 -89 -64zM158 544l132 205l60 -53l-184 -159z" />
    <glyph glyph-name="acircumflex" unicode="&#xe2;" horiz-adv-x="468" 
d="M187 29q66 0 110 42v166q-192 -35 -192 -135q0 -33 21 -53t61 -20zM371 -12q-34 0 -52.5 18t-21.5 48q-62 -69 -151 -69q-50 0 -81 24.5t-31 69.5q0 39 25 71t66 52t84 32.5t88 17.5v100q0 95 -103 95q-79 0 -137 -44l-5 6q68 82 185 82q133 0 133 -121v-294
q0 -43 39 -43q23 0 48 21l3 -2q-27 -64 -89 -64zM353 540l-132 100l-130 -100l-8 8l135 171h5l138 -171z" />
    <glyph glyph-name="atilde" unicode="&#xe3;" horiz-adv-x="468" 
d="M187 29q66 0 110 42v166q-192 -35 -192 -135q0 -33 21 -53t61 -20zM371 -12q-34 0 -52.5 18t-21.5 48q-62 -69 -151 -69q-50 0 -81 24.5t-31 69.5q0 39 25 71t66 52t84 32.5t88 17.5v100q0 95 -103 95q-79 0 -137 -44l-5 6q68 82 185 82q133 0 133 -121v-294
q0 -43 39 -43q23 0 48 21l3 -2q-27 -64 -89 -64zM152 681q23 0 69.5 -19t73.5 -19q46 0 60 49l9 -1q-9 -107 -82 -107q-24 0 -70.5 19.5t-73.5 19.5q-46 0 -59 -49l-10 1q9 106 83 106z" />
    <glyph glyph-name="adieresis" unicode="&#xe4;" horiz-adv-x="468" 
d="M187 29q66 0 110 42v166q-192 -35 -192 -135q0 -33 21 -53t61 -20zM371 -12q-34 0 -52.5 18t-21.5 48q-62 -69 -151 -69q-50 0 -81 24.5t-31 69.5q0 39 25 71t66 52t84 32.5t88 17.5v100q0 95 -103 95q-79 0 -137 -44l-5 6q68 82 185 82q133 0 133 -121v-294
q0 -43 39 -43q23 0 48 21l3 -2q-27 -64 -89 -64zM366 659q0 -21 -14.5 -35.5t-34.5 -14.5q-21 0 -35.5 14.5t-14.5 35.5q0 20 14.5 35t35.5 15q20 0 34.5 -15t14.5 -35zM166 659q0 -21 -14.5 -35.5t-34.5 -14.5q-21 0 -35.5 14.5t-14.5 35.5q0 20 14.5 35t35.5 15
q20 0 34.5 -15t14.5 -35z" />
    <glyph glyph-name="aring" unicode="&#xe5;" horiz-adv-x="468" 
d="M187 29q66 0 110 42v166q-192 -35 -192 -135q0 -33 21 -53t61 -20zM371 -12q-34 0 -52.5 18t-21.5 48q-62 -69 -151 -69q-50 0 -81 24.5t-31 69.5q0 39 25 71t66 52t84 32.5t88 17.5v100q0 95 -103 95q-79 0 -137 -44l-5 6q68 82 185 82q133 0 133 -121v-294
q0 -43 39 -43q23 0 48 21l3 -2q-27 -64 -89 -64zM135 654q0 37 24.5 61t62.5 24t62.5 -24t24.5 -61t-24.5 -60.5t-62.5 -23.5t-62.5 23.5t-24.5 60.5zM168 654q0 -66 54 -66t54 66q0 31 -14 49.5t-40 18.5t-40 -18.5t-14 -49.5z" />
    <glyph glyph-name="ae" unicode="&#xe6;" horiz-adv-x="725" 
d="M508 -15q-131 0 -186 110q-63 -110 -177 -110q-52 0 -83.5 24.5t-31.5 69.5q0 39 25 71t65.5 52t84 32.5t88.5 17.5v100q0 95 -104 95q-78 0 -136 -44l-5 6q68 82 185 82q102 0 123 -77q60 77 155 77q82 0 132 -58.5t45 -134.5h-319q-2 -24 -2 -39q0 -97 45.5 -153.5
t128.5 -56.5q43 0 84 16.5t64 48.5l5 -3q-18 -58 -67 -92t-119 -34zM183 30q85 0 132 80q-22 53 -22 117v10q-190 -35 -190 -135q0 -33 20.5 -52.5t59.5 -19.5zM510 473q-55 0 -91.5 -42.5t-47.5 -116.5l236 5v8q0 146 -97 146z" />
    <glyph glyph-name="ccedilla" unicode="&#xe7;" horiz-adv-x="472" 
d="M160 -255l-3 8q45 18 69.5 38t24.5 50q0 50 -80 57l-2 2q35 58 53 87q-86 11 -137.5 75.5t-51.5 164.5q0 116 74.5 190t177.5 74q70 0 133 -30l10 -102l-8 -2q-66 116 -151 116q-73 0 -117 -57t-44 -155t46.5 -155t129.5 -57q103 0 150 65l6 -3q-20 -58 -68.5 -92
t-118.5 -34h-4l-28 -43q85 -19 85 -85q0 -82 -146 -112z" />
    <glyph glyph-name="egrave" unicode="&#xe8;" horiz-adv-x="476" 
d="M256 473q-59 0 -96.5 -43t-47.5 -116l250 5v8q0 146 -106 146zM445 121q-19 -61 -70 -98.5t-122 -37.5q-98 0 -159 68.5t-61 176.5q0 115 68 188t159 73q84 0 136.5 -60t46.5 -133h-333q-1 -11 -1 -34q0 -101 46.5 -158t130.5 -57q104 0 154 75zM309 539l-8 -6l-185 163
l61 53z" />
    <glyph glyph-name="eacute" unicode="&#xe9;" horiz-adv-x="476" 
d="M256 473q-59 0 -96.5 -43t-47.5 -116l250 5v8q0 146 -106 146zM445 121q-19 -61 -70 -98.5t-122 -37.5q-98 0 -159 68.5t-61 176.5q0 115 68 188t159 73q84 0 136.5 -60t46.5 -133h-333q-1 -11 -1 -34q0 -101 46.5 -158t130.5 -57q104 0 154 75zM179 544l132 205l60 -53
l-184 -159z" />
    <glyph glyph-name="ecircumflex" unicode="&#xea;" horiz-adv-x="476" 
d="M256 473q-59 0 -96.5 -43t-47.5 -116l250 5v8q0 146 -106 146zM445 121q-19 -61 -70 -98.5t-122 -37.5q-98 0 -159 68.5t-61 176.5q0 115 68 188t159 73q84 0 136.5 -60t46.5 -133h-333q-1 -11 -1 -34q0 -101 46.5 -158t130.5 -57q104 0 154 75zM375 540l-132 100
l-130 -100l-8 8l135 171h5l138 -171z" />
    <glyph glyph-name="edieresis" unicode="&#xeb;" horiz-adv-x="476" 
d="M256 473q-59 0 -96.5 -43t-47.5 -116l250 5v8q0 146 -106 146zM445 121q-19 -61 -70 -98.5t-122 -37.5q-98 0 -159 68.5t-61 176.5q0 115 68 188t159 73q84 0 136.5 -60t46.5 -133h-333q-1 -11 -1 -34q0 -101 46.5 -158t130.5 -57q104 0 154 75zM393 659
q0 -21 -14.5 -35.5t-34.5 -14.5q-21 0 -35.5 14.5t-14.5 35.5q0 20 14.5 35t35.5 15q20 0 34.5 -15t14.5 -35zM193 659q0 -21 -14.5 -35.5t-34.5 -14.5q-21 0 -35.5 14.5t-14.5 35.5q0 20 14.5 35t35.5 15q20 0 34.5 -15t14.5 -35z" />
    <glyph glyph-name="igrave" unicode="&#xec;" horiz-adv-x="218" 
d="M53 0v2q22 60 22 152v186q0 61 -44 99v4l117 53v-341q0 -105 22 -153v-2h-117zM172 539l-8 -6l-185 163l61 53z" />
    <glyph glyph-name="iacute" unicode="&#xed;" horiz-adv-x="218" 
d="M53 0v2q22 60 22 152v186q0 61 -44 99v4l117 53v-341q0 -105 22 -153v-2h-117zM53 544l132 205l60 -53l-184 -159z" />
    <glyph glyph-name="icircumflex" unicode="&#xee;" horiz-adv-x="218" 
d="M53 0v2q22 60 22 152v186q0 61 -44 99v4l117 53v-341q0 -105 22 -153v-2h-117zM243 540l-132 100l-130 -100l-8 8l135 171h5l138 -171z" />
    <glyph glyph-name="idieresis" unicode="&#xef;" horiz-adv-x="218" 
d="M239 659q0 -21 -14.5 -35.5t-35.5 -14.5q-20 0 -35 14.5t-15 35.5q0 20 15 35t35 15q21 0 35.5 -15t14.5 -35zM79 659q0 -21 -14.5 -35.5t-35.5 -14.5q-20 0 -35 14.5t-15 35.5q0 20 15 35t35 15q21 0 35.5 -15t14.5 -35zM53 0v2q22 60 22 152v186q0 61 -44 99v4l117 53
v-341q0 -105 22 -153v-2h-117z" />
    <glyph glyph-name="eth" unicode="&#xf0;" horiz-adv-x="566" 
d="M280 -15q-105 0 -177.5 73t-72.5 184q0 105 68 172.5t167 67.5q119 0 171 -96q-34 152 -127 256l-120 -81l-12 16l119 80q-67 70 -160 111l4 10q107 -37 188 -99l113 76l11 -16l-108 -73q97 -80 143 -182.5t46 -203.5q0 -131 -71.5 -213t-181.5 -82zM279 3
q84 0 127.5 69.5t43.5 181.5q0 34 -5 77q-26 65 -72 97t-100 32q-75 0 -118 -58.5t-43 -167.5q0 -106 43.5 -168.5t123.5 -62.5z" />
    <glyph glyph-name="ntilde" unicode="&#xf1;" horiz-adv-x="530" 
d="M170 2v-2h-117v2q22 51 22 152v187q0 62 -44 100v2l113 53v-93l4 -1q75 89 171 89q68 0 104.5 -39t36.5 -107v-190q0 -61 3.5 -91.5t18.5 -61.5v-2h-117v2q22 54 22 152v175q0 51 -24.5 82t-78.5 31q-78 0 -136 -59v-228q0 -105 22 -153zM205 681q23 0 69.5 -19t73.5 -19
q46 0 60 49l9 -1q-9 -107 -82 -107q-24 0 -70.5 19.5t-73.5 19.5q-46 0 -59 -49l-10 1q9 106 83 106z" />
    <glyph glyph-name="ograve" unicode="&#xf2;" horiz-adv-x="562" 
d="M281 -15q-103 0 -177 74.5t-74 177.5q1 104 75 179t176 75q103 0 177 -75t74 -179q0 -103 -74 -177.5t-177 -74.5zM281 4q81 0 124 66.5t43 166.5t-43.5 167.5t-123.5 67.5t-123.5 -67.5t-43.5 -167.5t43 -166.5t124 -66.5zM336 539l-8 -6l-185 163l61 53z" />
    <glyph glyph-name="oacute" unicode="&#xf3;" horiz-adv-x="562" 
d="M281 -15q-103 0 -177 74.5t-74 177.5q1 104 75 179t176 75q103 0 177 -75t74 -179q0 -103 -74 -177.5t-177 -74.5zM281 4q81 0 124 66.5t43 166.5t-43.5 167.5t-123.5 67.5t-123.5 -67.5t-43.5 -167.5t43 -166.5t124 -66.5zM228 544l132 205l60 -53l-184 -159z" />
    <glyph glyph-name="ocircumflex" unicode="&#xf4;" horiz-adv-x="562" 
d="M281 -15q-103 0 -177 74.5t-74 177.5q1 104 75 179t176 75q103 0 177 -75t74 -179q0 -103 -74 -177.5t-177 -74.5zM281 4q81 0 124 66.5t43 166.5t-43.5 167.5t-123.5 67.5t-123.5 -67.5t-43.5 -167.5t43 -166.5t124 -66.5zM412 540l-132 100l-130 -100l-8 8l135 171h5
l138 -171z" />
    <glyph glyph-name="otilde" unicode="&#xf5;" horiz-adv-x="562" 
d="M281 -15q-103 0 -177 74.5t-74 177.5q1 104 75 179t176 75q103 0 177 -75t74 -179q0 -103 -74 -177.5t-177 -74.5zM281 4q81 0 124 66.5t43 166.5t-43.5 167.5t-123.5 67.5t-123.5 -67.5t-43.5 -167.5t43 -166.5t124 -66.5zM217 681q23 0 69.5 -19t73.5 -19q46 0 60 49
l9 -1q-9 -107 -82 -107q-24 0 -70.5 19.5t-73.5 19.5q-46 0 -59 -49l-10 1q9 106 83 106z" />
    <glyph glyph-name="odieresis" unicode="&#xf6;" horiz-adv-x="562" 
d="M281 -15q-103 0 -177 74.5t-74 177.5q1 104 75 179t176 75q103 0 177 -75t74 -179q0 -103 -74 -177.5t-177 -74.5zM281 4q81 0 124 66.5t43 166.5t-43.5 167.5t-123.5 67.5t-123.5 -67.5t-43.5 -167.5t43 -166.5t124 -66.5zM431 659q0 -21 -14.5 -35.5t-34.5 -14.5
q-21 0 -35.5 14.5t-14.5 35.5q0 20 14.5 35t35.5 15q20 0 34.5 -15t14.5 -35zM231 659q0 -21 -14.5 -35.5t-34.5 -14.5q-21 0 -35.5 14.5t-14.5 35.5q0 20 14.5 35t35.5 15q20 0 34.5 -15t14.5 -35z" />
    <glyph glyph-name="divide" unicode="&#xf7;" horiz-adv-x="546" 
d="M494 298h-442v20h442v-20zM273 85q-23 0 -39.5 16.5t-16.5 39.5q0 24 16.5 40.5t39.5 16.5t40 -16.5t17 -40.5q0 -23 -17 -39.5t-40 -16.5zM273 415q-23 0 -39.5 16.5t-16.5 39.5q0 24 16.5 40.5t39.5 16.5t40 -16.5t17 -40.5q0 -23 -17 -39.5t-40 -16.5z" />
    <glyph glyph-name="oslash" unicode="&#xf8;" horiz-adv-x="562" 
d="M281 -15q-73 0 -135 40l-63 -92h-26l72 104q-99 78 -99 200q1 104 75 179t176 75q71 0 133 -40l65 93h26l-73 -106q46 -36 73 -89t27 -112q0 -103 -74 -177.5t-177 -74.5zM281 4q81 0 124 66.5t43 166.5q0 99 -42 164l-238 -345q43 -52 113 -52zM114 237q0 -99 40 -163
l239 346q-44 52 -112 52q-80 0 -123.5 -67.5t-43.5 -167.5z" />
    <glyph glyph-name="ugrave" unicode="&#xf9;" horiz-adv-x="506" 
d="M356 -12v103q-71 -106 -164 -106q-63 0 -97 41t-34 113v251q0 55 -42 84v2h115v-321q0 -112 96 -112q75 0 121 64v283q0 57 -44 84v2h117v-338q0 -59 9.5 -80t35.5 -36v-2zM300 539l-8 -6l-185 163l61 53z" />
    <glyph glyph-name="uacute" unicode="&#xfa;" horiz-adv-x="506" 
d="M356 -12v103q-71 -106 -164 -106q-63 0 -97 41t-34 113v251q0 55 -42 84v2h115v-321q0 -112 96 -112q75 0 121 64v283q0 57 -44 84v2h117v-338q0 -59 9.5 -80t35.5 -36v-2zM192 544l132 205l60 -53l-184 -159z" />
    <glyph glyph-name="ucircumflex" unicode="&#xfb;" horiz-adv-x="506" 
d="M356 -12v103q-71 -106 -164 -106q-63 0 -97 41t-34 113v251q0 55 -42 84v2h115v-321q0 -112 96 -112q75 0 121 64v283q0 57 -44 84v2h117v-338q0 -59 9.5 -80t35.5 -36v-2zM373 540l-132 100l-130 -100l-8 8l135 171h5l138 -171z" />
    <glyph glyph-name="udieresis" unicode="&#xfc;" horiz-adv-x="506" 
d="M356 -12v103q-71 -106 -164 -106q-63 0 -97 41t-34 113v251q0 55 -42 84v2h115v-321q0 -112 96 -112q75 0 121 64v283q0 57 -44 84v2h117v-338q0 -59 9.5 -80t35.5 -36v-2zM389 659q0 -21 -14.5 -35.5t-34.5 -14.5q-21 0 -35.5 14.5t-14.5 35.5q0 20 14.5 35t35.5 15
q20 0 34.5 -15t14.5 -35zM189 659q0 -21 -14.5 -35.5t-34.5 -14.5q-21 0 -35.5 14.5t-14.5 35.5q0 20 14.5 35t35.5 15q20 0 34.5 -15t14.5 -35z" />
    <glyph glyph-name="yacute" unicode="&#xfd;" horiz-adv-x="429" 
d="M31 -225l-2 74q24 0 49.5 6.5t59.5 33.5t50 71l14 37l-140 368q-31 83 -60 109v2h141v-2q-31 -34 -1 -115l98 -262l97 258q31 84 -13 119v2h105v-2q-24 -23 -38 -45.5t-30 -67.5l-165 -427q-32 -83 -71 -118t-94 -41zM186 544l132 205l60 -53l-184 -159z" />
    <glyph glyph-name="thorn" unicode="&#xfe;" horiz-adv-x="549" 
d="M273 3q72 0 116.5 62.5t44.5 167.5q0 102 -45 156t-117 54q-41 0 -75.5 -17t-53.5 -41v-289q19 -47 53.5 -70t76.5 -23zM165 -223v-2h-117v2q22 51 22 151v709q0 58 -44 92v2l117 48v-373h3q58 85 166 85q89 0 145.5 -67.5t56.5 -175.5q0 -111 -64.5 -187t-183.5 -76
q-72 0 -123 30v-86q0 -104 22 -152z" />
    <glyph glyph-name="ydieresis" unicode="&#xff;" horiz-adv-x="429" 
d="M31 -225l-2 74q24 0 49.5 6.5t59.5 33.5t50 71l14 37l-140 368q-31 83 -60 109v2h141v-2q-31 -34 -1 -115l98 -262l97 258q31 84 -13 119v2h105v-2q-24 -23 -38 -45.5t-30 -67.5l-165 -427q-32 -83 -71 -118t-94 -41zM382 659q0 -21 -14.5 -35.5t-34.5 -14.5
q-21 0 -35.5 14.5t-14.5 35.5q0 20 14.5 35t35.5 15q20 0 34.5 -15t14.5 -35zM182 659q0 -21 -14.5 -35.5t-34.5 -14.5q-21 0 -35.5 14.5t-14.5 35.5q0 20 14.5 35t35.5 15q20 0 34.5 -15t14.5 -35z" />
    <glyph glyph-name="Amacron" unicode="&#x100;" horiz-adv-x="630" 
d="M408 296l-122 337l-124 -337h246zM124 2v-2h-122v2q29 29 43.5 56.5t36.5 86.5l221 596h24l224 -606q23 -60 37.5 -85.5t39.5 -47.5v-2h-159v2q30 46 -4 137l-50 137h-261l-41 -112q-38 -101 11 -162zM160 836v42h306v-42h-306z" />
    <glyph glyph-name="amacron" unicode="&#x101;" horiz-adv-x="468" 
d="M187 29q66 0 110 42v166q-192 -35 -192 -135q0 -33 21 -53t61 -20zM371 -12q-34 0 -52.5 18t-21.5 48q-62 -69 -151 -69q-50 0 -81 24.5t-31 69.5q0 39 25 71t66 52t84 32.5t88 17.5v100q0 95 -103 95q-79 0 -137 -44l-5 6q68 82 185 82q133 0 133 -121v-294
q0 -43 39 -43q23 0 48 21l3 -2q-27 -64 -89 -64zM80 603v42h284v-42h-284z" />
    <glyph glyph-name="Abreve" unicode="&#x102;" horiz-adv-x="630" 
d="M408 296l-122 337l-124 -337h246zM124 2v-2h-122v2q29 29 43.5 56.5t36.5 86.5l221 596h24l224 -606q23 -60 37.5 -85.5t39.5 -47.5v-2h-159v2q30 46 -4 137l-50 137h-261l-41 -112q-38 -101 11 -162zM312 849q99 0 129 86h9q-2 -23 -9 -44.5t-22 -44t-43 -36.5t-65 -14
q-48 0 -79.5 25t-42.5 53.5t-14 60.5h9q33 -86 128 -86z" />
    <glyph glyph-name="abreve" unicode="&#x103;" horiz-adv-x="468" 
d="M187 29q66 0 110 42v166q-192 -35 -192 -135q0 -33 21 -53t61 -20zM371 -12q-34 0 -52.5 18t-21.5 48q-62 -69 -151 -69q-50 0 -81 24.5t-31 69.5q0 39 25 71t66 52t84 32.5t88 17.5v100q0 95 -103 95q-79 0 -137 -44l-5 6q68 82 185 82q133 0 133 -121v-294
q0 -43 39 -43q23 0 48 21l3 -2q-27 -64 -89 -64zM217 622q87 0 110 76h9q-2 -48 -30 -87.5t-90 -39.5q-61 0 -88 39t-29 88h9q23 -76 109 -76z" />
    <glyph glyph-name="Aogonek" unicode="&#x104;" horiz-adv-x="630" 
d="M429 -248q-41 0 -65 22.5t-24 59.5q0 41 28 75t83 78q32 27 32 68q0 35 -18 84l-50 137h-261l-41 -112q-38 -101 11 -162v-2h-122v2q29 29 43.5 56.5t36.5 86.5l221 596h24l224 -606q23 -60 37.5 -85.5t39.5 -47.5v-2h-135q-91 -73 -91 -141q0 -61 60 -61q48 0 91 51
l9 -7q-54 -90 -133 -90zM408 296l-122 337l-124 -337h246z" />
    <glyph glyph-name="aogonek" unicode="&#x105;" horiz-adv-x="468" 
d="M333 -248q-42 0 -66 22.5t-24 59.5q0 80 119 155q-31 2 -46.5 20.5t-17.5 45.5q-62 -70 -152 -70q-50 0 -81 24.5t-31 69.5q0 39 25 71t66 52t84 32.5t88 17.5v100q0 95 -103 95q-79 0 -137 -44l-5 6q68 82 185 82q133 0 133 -121v-294q0 -43 39 -43q23 0 48 21l3 -2
q-10 -27 -34 -46q-10 -7 -28 -16.5t-26 -14.5q-28 -18 -48 -48t-20 -66q0 -63 60 -63q49 0 91 51l9 -7q-54 -90 -131 -90zM189 30q65 0 108 41v166q-190 -35 -190 -135q0 -33 21 -52.5t61 -19.5z" />
    <glyph glyph-name="Cacute" unicode="&#x106;" horiz-adv-x="747" 
d="M698 227l-20 -167q-31 -23 -108.5 -49t-163.5 -26q-169 0 -270 108.5t-101 273.5q0 162 109.5 271t283.5 109q127 0 246 -49l20 -152l-8 -2q-62 99 -122 141t-144 42q-145 0 -218 -98.5t-73 -261.5t70.5 -262.5t208.5 -99.5q104 0 168.5 56.5t113.5 168.5zM321 790
l197 169l41 -69l-233 -108z" />
    <glyph glyph-name="cacute" unicode="&#x107;" horiz-adv-x="472" 
d="M434 114l6 -3q-20 -58 -68.5 -92t-118.5 -34q-99 0 -159.5 66t-60.5 176q0 116 74.5 190t177.5 74q70 0 133 -30l10 -102l-8 -2q-66 116 -151 116q-73 0 -117 -57t-44 -155t46.5 -155t129.5 -57q103 0 150 65zM189 544l132 205l60 -53l-184 -159z" />
    <glyph glyph-name="Ccircumflex" unicode="&#x108;" horiz-adv-x="747" 
d="M698 227l-20 -167q-31 -23 -108.5 -49t-163.5 -26q-169 0 -270 108.5t-101 273.5q0 162 109.5 271t283.5 109q127 0 246 -49l20 -152l-8 -2q-62 99 -122 141t-144 42q-145 0 -218 -98.5t-73 -261.5t70.5 -262.5t208.5 -99.5q104 0 168.5 56.5t113.5 168.5zM558 782
l-147 88l-147 -88l-8 8l152 155h5l152 -155z" />
    <glyph glyph-name="ccircumflex" unicode="&#x109;" horiz-adv-x="472" 
d="M434 114l6 -3q-20 -58 -68.5 -92t-118.5 -34q-99 0 -159.5 66t-60.5 176q0 116 74.5 190t177.5 74q70 0 133 -30l10 -102l-8 -2q-66 116 -151 116q-73 0 -117 -57t-44 -155t46.5 -155t129.5 -57q103 0 150 65zM384 540l-132 100l-130 -100l-8 8l135 171h5l138 -171z" />
    <glyph glyph-name="Cdotaccent" unicode="&#x10a;" horiz-adv-x="747" 
d="M698 227l-20 -167q-31 -23 -108.5 -49t-163.5 -26q-169 0 -270 108.5t-101 273.5q0 162 109.5 271t283.5 109q127 0 246 -49l20 -152l-8 -2q-62 99 -122 141t-144 42q-145 0 -218 -98.5t-73 -261.5t70.5 -262.5t208.5 -99.5q104 0 168.5 56.5t113.5 168.5zM460 868
q0 -21 -14.5 -35.5t-34.5 -14.5q-21 0 -35.5 14.5t-14.5 35.5t14.5 35.5t35.5 14.5q20 0 34.5 -14.5t14.5 -35.5z" />
    <glyph glyph-name="cdotaccent" unicode="&#x10b;" horiz-adv-x="472" 
d="M434 114l6 -3q-20 -58 -68.5 -92t-118.5 -34q-99 0 -159.5 66t-60.5 176q0 116 74.5 190t177.5 74q70 0 133 -30l10 -102l-8 -2q-66 116 -151 116q-73 0 -117 -57t-44 -155t46.5 -155t129.5 -57q103 0 150 65zM302 659q0 -21 -14.5 -35.5t-34.5 -14.5q-21 0 -35.5 14.5
t-14.5 35.5q0 20 14.5 35t35.5 15q20 0 34.5 -15t14.5 -35z" />
    <glyph glyph-name="Ccaron" unicode="&#x10c;" horiz-adv-x="747" 
d="M698 227l-20 -167q-31 -23 -108.5 -49t-163.5 -26q-169 0 -270 108.5t-101 273.5q0 162 109.5 271t283.5 109q127 0 246 -49l20 -152l-8 -2q-62 99 -122 141t-144 42q-145 0 -218 -98.5t-73 -261.5t70.5 -262.5t208.5 -99.5q104 0 168.5 56.5t113.5 168.5zM412 782h-4
l-152 155l7 8l147 -88l147 88l7 -8z" />
    <glyph glyph-name="ccaron" unicode="&#x10d;" horiz-adv-x="472" 
d="M434 114l6 -3q-20 -58 -68.5 -92t-118.5 -34q-99 0 -159.5 66t-60.5 176q0 116 74.5 190t177.5 74q70 0 133 -30l10 -102l-8 -2q-66 116 -151 116q-73 0 -117 -57t-44 -155t46.5 -155t129.5 -57q103 0 150 65zM249 540l-136 171l8 8l130 -100l132 100l8 -8l-138 -171h-4z
" />
    <glyph glyph-name="Dcaron" unicode="&#x10e;" horiz-adv-x="734" 
d="M51 0v2q24 38 32 67.5t8 80.5v432q0 51 -8 80.5t-32 67.5v2q64 0 136.5 2t140.5 2q175 0 272.5 -95.5t97.5 -271.5q0 -178 -99 -273.5t-281 -95.5h-267zM319 716l-146 1v-699l136 2q156 2 225.5 84.5t69.5 250.5q0 184 -71 272t-214 89zM343 782h-4l-152 155l7 8l147 -88
l147 88l7 -8z" />
    <glyph glyph-name="dcaron" unicode="&#x10f;" horiz-adv-x="554" 
d="M272 34q83 0 134 72v249q-10 63 -44 90.5t-79 27.5q-74 0 -121 -64.5t-47 -164.5q0 -97 42 -153.5t115 -56.5zM411 86h-3q-58 -101 -176 -101q-89 0 -143 64.5t-54 169.5q0 112 71.5 192t190.5 80q63 0 109 -22v167q0 59 -44 93v2l117 48v-623q0 -69 9 -93.5t36 -41.5v-2
l-113 -31v98zM520 574l28 201h75l-95 -203z" />
    <glyph glyph-name="Dcroat" unicode="&#x110;" horiz-adv-x="742" 
d="M3 358v18h96v206q0 51 -8 80.5t-32 67.5v2q64 0 136.5 2t140.5 2q175 0 272.5 -95.5t97.5 -271.5q0 -178 -99 -273.5t-281 -95.5h-267v2q24 38 32 67.5t8 80.5v208h-96zM327 716l-146 1v-341h197v-18h-197v-340l136 2q156 2 225.5 84.5t69.5 250.5q0 184 -71 272t-214 89
z" />
    <glyph glyph-name="dcroat" unicode="&#x111;" horiz-adv-x="554" 
d="M411 86h-3q-58 -101 -176 -101q-89 0 -143 64.5t-54 169.5q0 112 71.5 192t190.5 80q63 0 109 -22v110h-184v19h184v38q0 59 -44 93v2l117 48v-181h68v-19h-68v-423q0 -69 9 -93.5t36 -41.5v-2l-113 -31v98zM272 34q83 0 134 72v249q-10 63 -44 90.5t-79 27.5
q-74 0 -121 -64.5t-47 -164.5q0 -97 42 -153.5t115 -56.5z" />
    <glyph glyph-name="Emacron" unicode="&#x112;" horiz-adv-x="601" 
d="M586 179l-44 -179h-491v2q39 75 39 138v452q0 39 -9 68t-30 70v2h441l39 -160l-8 -3q-11 13 -29.5 36.5t-31 38.5t-28 31.5t-28 24.5t-23.5 9l-210 7v-338h126q13 0 27.5 11t23.5 22.5t24.5 33t20.5 28.5h8v-204h-8q-3 3 -25.5 33t-38 43t-32.5 13h-126v-342l218 7
q49 2 93 44t94 115zM139 836v42h306v-42h-306z" />
    <glyph glyph-name="emacron" unicode="&#x113;" horiz-adv-x="476" 
d="M256 473q-59 0 -96.5 -43t-47.5 -116l250 5v8q0 146 -106 146zM445 121q-19 -61 -70 -98.5t-122 -37.5q-98 0 -159 68.5t-61 176.5q0 115 68 188t159 73q84 0 136.5 -60t46.5 -133h-333q-1 -11 -1 -34q0 -101 46.5 -158t130.5 -57q104 0 154 75zM102 603v42h284v-42h-284
z" />
    <glyph glyph-name="Ebreve" unicode="&#x114;" horiz-adv-x="601" 
d="M586 179l-44 -179h-491v2q39 75 39 138v452q0 39 -9 68t-30 70v2h441l39 -160l-8 -3q-11 13 -29.5 36.5t-31 38.5t-28 31.5t-28 24.5t-23.5 9l-210 7v-338h126q13 0 27.5 11t23.5 22.5t24.5 33t20.5 28.5h8v-204h-8q-3 3 -25.5 33t-38 43t-32.5 13h-126v-342l218 7
q49 2 93 44t94 115zM291 849q99 0 129 86h9q-2 -23 -9 -44.5t-22 -44t-43 -36.5t-65 -14q-48 0 -79.5 25t-42.5 53.5t-14 60.5h9q33 -86 128 -86z" />
    <glyph glyph-name="ebreve" unicode="&#x115;" horiz-adv-x="476" 
d="M256 473q-59 0 -96.5 -43t-47.5 -116l250 5v8q0 146 -106 146zM445 121q-19 -61 -70 -98.5t-122 -37.5q-98 0 -159 68.5t-61 176.5q0 115 68 188t159 73q84 0 136.5 -60t46.5 -133h-333q-1 -11 -1 -34q0 -101 46.5 -158t130.5 -57q104 0 154 75zM238 622q87 0 110 76h9
q-2 -48 -30 -87.5t-90 -39.5q-61 0 -88 39t-29 88h9q23 -76 109 -76z" />
    <glyph glyph-name="Edotaccent" unicode="&#x116;" horiz-adv-x="601" 
d="M586 179l-44 -179h-491v2q39 75 39 138v452q0 39 -9 68t-30 70v2h441l39 -160l-8 -3q-11 13 -29.5 36.5t-31 38.5t-28 31.5t-28 24.5t-23.5 9l-210 7v-338h126q13 0 27.5 11t23.5 22.5t24.5 33t20.5 28.5h8v-204h-8q-3 3 -25.5 33t-38 43t-32.5 13h-126v-342l218 7
q49 2 93 44t94 115zM341 868q0 -21 -14.5 -35.5t-34.5 -14.5q-21 0 -35.5 14.5t-14.5 35.5t14.5 35.5t35.5 14.5q20 0 34.5 -14.5t14.5 -35.5z" />
    <glyph glyph-name="edotaccent" unicode="&#x117;" horiz-adv-x="476" 
d="M256 473q-59 0 -96.5 -43t-47.5 -116l250 5v8q0 146 -106 146zM445 121q-19 -61 -70 -98.5t-122 -37.5q-98 0 -159 68.5t-61 176.5q0 115 68 188t159 73q84 0 136.5 -60t46.5 -133h-333q-1 -11 -1 -34q0 -101 46.5 -158t130.5 -57q104 0 154 75zM293 659
q0 -21 -14.5 -35.5t-34.5 -14.5q-21 0 -35.5 14.5t-14.5 35.5q0 20 14.5 35t35.5 15q20 0 34.5 -15t14.5 -35z" />
    <glyph glyph-name="Eogonek" unicode="&#x118;" horiz-adv-x="601" 
d="M586 179l-44 -179h-86q-91 -70 -91 -141q0 -61 60 -61q49 0 92 51l8 -7q-54 -90 -131 -90q-42 0 -66 22.5t-24 59.5q0 42 30.5 78.5t95.5 87.5h-379v2q39 75 39 138v452q0 39 -9 68t-30 70v2h441l39 -160l-8 -3q-11 13 -29.5 36.5t-31 38.5t-28 31.5t-28 24.5t-23.5 9
l-210 7v-338h126q13 0 27.5 11t23.5 22.5t24.5 33t20.5 28.5h8v-204h-8q-3 3 -25.5 33t-38 43t-32.5 13h-126v-342l218 7q49 2 93 44t94 115z" />
    <glyph glyph-name="eogonek" unicode="&#x119;" horiz-adv-x="476" 
d="M255 473q-56 0 -94 -42.5t-49 -116.5l244 5v8q0 146 -101 146zM393 -158q-54 -90 -130 -90q-42 0 -66 22t-24 61q0 81 117 152q-16 -2 -37 -2q-101 0 -160.5 65.5t-59.5 176.5q0 119 66.5 191.5t158.5 72.5q84 0 134 -58.5t44 -134.5h-326q-2 -24 -2 -39
q0 -97 46.5 -153.5t131.5 -56.5q44 0 86 16.5t66 48.5l5 -3q-20 -56 -68 -92q-9 -6 -61 -37q-81 -50 -81 -121q0 -63 61 -63q48 0 91 51z" />
    <glyph glyph-name="Ecaron" unicode="&#x11a;" horiz-adv-x="601" 
d="M586 179l-44 -179h-491v2q39 75 39 138v452q0 39 -9 68t-30 70v2h441l39 -160l-8 -3q-11 13 -29.5 36.5t-31 38.5t-28 31.5t-28 24.5t-23.5 9l-210 7v-338h126q13 0 27.5 11t23.5 22.5t24.5 33t20.5 28.5h8v-204h-8q-3 3 -25.5 33t-38 43t-32.5 13h-126v-342l218 7
q49 2 93 44t94 115zM304 782h-4l-152 155l7 8l147 -88l147 88l7 -8z" />
    <glyph glyph-name="ecaron" unicode="&#x11b;" horiz-adv-x="476" 
d="M256 473q-59 0 -96.5 -43t-47.5 -116l250 5v8q0 146 -106 146zM445 121q-19 -61 -70 -98.5t-122 -37.5q-98 0 -159 68.5t-61 176.5q0 115 68 188t159 73q84 0 136.5 -60t46.5 -133h-333q-1 -11 -1 -34q0 -101 46.5 -158t130.5 -57q104 0 154 75zM240 540l-136 171l8 8
l130 -100l132 100l8 -8l-138 -171h-4z" />
    <glyph glyph-name="Gcircumflex" unicode="&#x11c;" horiz-adv-x="793" 
d="M721 91q-2 -1 -17.5 -12t-21.5 -15t-23.5 -15t-29.5 -16t-31.5 -14t-37.5 -14t-40.5 -10t-47.5 -7.5t-51 -2.5q-174 0 -280 108.5t-106 272.5t110 272.5t294 108.5q125 0 256 -48l20 -152l-8 -3q-55 97 -119 140t-158 43q-147 0 -224 -100.5t-77 -261.5q0 -162 71.5 -261
t220.5 -99q101 0 162 41t61 118q0 66 -9.5 100t-36.5 66v2h163v-2q-24 -34 -32 -65.5t-8 -91.5v-82zM558 782l-147 88l-147 -88l-8 8l152 155h5l152 -155z" />
    <glyph glyph-name="gcircumflex" unicode="&#x11d;" horiz-adv-x="497" 
d="M230 172q52 0 79 42t27 108q0 67 -26.5 109t-80.5 42t-80 -42.5t-26 -108.5q0 -65 27 -107.5t80 -42.5zM475 -72q-2 -67 -68 -110t-181 -43q-96 0 -155 31.5t-59 85.5q0 38 27.5 65t66.5 38q-65 19 -65 74q0 41 31.5 67t76.5 36q-46 21 -74 61.5t-28 88.5q0 69 53.5 119
t128.5 50q73 0 126 -47l122 64l2 -1v-76h-4l-109 2q46 -46 46 -111q0 -68 -53.5 -118t-128.5 -50q-39 0 -69 13q-60 -23 -60 -65q0 -45 93 -48l108 -4q82 -3 128 -35.5t45 -86.5zM254 -199q81 0 126 26t45 73q0 77 -135 82l-110 2q-38 2 -62 7q-40 -24 -40 -79
q0 -54 46.5 -82.5t129.5 -28.5zM364 540l-132 100l-130 -100l-8 8l135 171h5l138 -171z" />
    <glyph glyph-name="Gbreve" unicode="&#x11e;" horiz-adv-x="793" 
d="M721 91q-2 -1 -17.5 -12t-21.5 -15t-23.5 -15t-29.5 -16t-31.5 -14t-37.5 -14t-40.5 -10t-47.5 -7.5t-51 -2.5q-174 0 -280 108.5t-106 272.5t110 272.5t294 108.5q125 0 256 -48l20 -152l-8 -3q-55 97 -119 140t-158 43q-147 0 -224 -100.5t-77 -261.5q0 -162 71.5 -261
t220.5 -99q101 0 162 41t61 118q0 66 -9.5 100t-36.5 66v2h163v-2q-24 -34 -32 -65.5t-8 -91.5v-82zM410 849q99 0 129 86h9q-2 -23 -9 -44.5t-22 -44t-43 -36.5t-65 -14q-48 0 -79.5 25t-42.5 53.5t-14 60.5h9q33 -86 128 -86z" />
    <glyph glyph-name="gbreve" unicode="&#x11f;" horiz-adv-x="497" 
d="M230 172q52 0 79 42t27 108q0 67 -26.5 109t-80.5 42t-80 -42.5t-26 -108.5q0 -65 27 -107.5t80 -42.5zM475 -72q-2 -67 -68 -110t-181 -43q-96 0 -155 31.5t-59 85.5q0 38 27.5 65t66.5 38q-65 19 -65 74q0 41 31.5 67t76.5 36q-46 21 -74 61.5t-28 88.5q0 69 53.5 119
t128.5 50q73 0 126 -47l122 64l2 -1v-76h-4l-109 2q46 -46 46 -111q0 -68 -53.5 -118t-128.5 -50q-39 0 -69 13q-60 -23 -60 -65q0 -45 93 -48l108 -4q82 -3 128 -35.5t45 -86.5zM254 -199q81 0 126 26t45 73q0 77 -135 82l-110 2q-38 2 -62 7q-40 -24 -40 -79
q0 -54 46.5 -82.5t129.5 -28.5zM235 622q87 0 110 76h9q-2 -48 -30 -87.5t-90 -39.5q-61 0 -88 39t-29 88h9q23 -76 109 -76z" />
    <glyph glyph-name="Gdotaccent" unicode="&#x120;" horiz-adv-x="793" 
d="M721 91q-2 -1 -17.5 -12t-21.5 -15t-23.5 -15t-29.5 -16t-31.5 -14t-37.5 -14t-40.5 -10t-47.5 -7.5t-51 -2.5q-174 0 -280 108.5t-106 272.5t110 272.5t294 108.5q125 0 256 -48l20 -152l-8 -3q-55 97 -119 140t-158 43q-147 0 -224 -100.5t-77 -261.5q0 -162 71.5 -261
t220.5 -99q101 0 162 41t61 118q0 66 -9.5 100t-36.5 66v2h163v-2q-24 -34 -32 -65.5t-8 -91.5v-82zM460 868q0 -21 -14.5 -35.5t-34.5 -14.5q-21 0 -35.5 14.5t-14.5 35.5t14.5 35.5t35.5 14.5q20 0 34.5 -14.5t14.5 -35.5z" />
    <glyph glyph-name="gdotaccent" unicode="&#x121;" horiz-adv-x="497" 
d="M230 172q52 0 79 42t27 108q0 67 -26.5 109t-80.5 42t-80 -42.5t-26 -108.5q0 -65 27 -107.5t80 -42.5zM475 -72q-2 -67 -68 -110t-181 -43q-96 0 -155 31.5t-59 85.5q0 38 27.5 65t66.5 38q-65 19 -65 74q0 41 31.5 67t76.5 36q-46 21 -74 61.5t-28 88.5q0 69 53.5 119
t128.5 50q73 0 126 -47l122 64l2 -1v-76h-4l-109 2q46 -46 46 -111q0 -68 -53.5 -118t-128.5 -50q-39 0 -69 13q-60 -23 -60 -65q0 -45 93 -48l108 -4q82 -3 128 -35.5t45 -86.5zM254 -199q81 0 126 26t45 73q0 77 -135 82l-110 2q-38 2 -62 7q-40 -24 -40 -79
q0 -54 46.5 -82.5t129.5 -28.5zM283 659q0 -21 -14.5 -35.5t-34.5 -14.5q-21 0 -35.5 14.5t-14.5 35.5q0 20 14.5 35t35.5 15q20 0 34.5 -15t14.5 -35z" />
    <glyph glyph-name="uni0122" unicode="&#x122;" horiz-adv-x="793" 
d="M721 91q-2 -1 -17.5 -12t-21.5 -15t-23.5 -15t-29.5 -16t-31.5 -14t-37.5 -14t-40.5 -10t-47.5 -7.5t-51 -2.5q-174 0 -280 108.5t-106 272.5t110 272.5t294 108.5q125 0 256 -48l20 -152l-8 -3q-55 97 -119 140t-158 43q-147 0 -224 -100.5t-77 -261.5q0 -162 71.5 -261
t220.5 -99q101 0 162 41t61 118q0 66 -9.5 100t-36.5 66v2h163v-2q-24 -34 -32 -65.5t-8 -91.5v-82zM362 -233l-4 5q23 17 37.5 38.5t14.5 40.5q0 27 -37 62v1l61 43q36 -26 36 -66q0 -35 -32.5 -67.5t-75.5 -56.5z" />
    <glyph glyph-name="uni0123" unicode="&#x123;" horiz-adv-x="497" 
d="M230 172q52 0 79 42t27 108q0 67 -26.5 109t-80.5 42t-80 -42.5t-26 -108.5q0 -65 27 -107.5t80 -42.5zM475 -72q-2 -67 -68 -110t-181 -43q-96 0 -155 31.5t-59 85.5q0 38 27.5 65t66.5 38q-65 19 -65 74q0 41 31.5 67t76.5 36q-46 21 -74 61.5t-28 88.5q0 69 53.5 119
t128.5 50q73 0 126 -47l122 64l2 -1v-76h-4l-109 2q46 -46 46 -111q0 -68 -53.5 -118t-128.5 -50q-39 0 -69 13q-60 -23 -60 -65q0 -45 93 -48l108 -4q82 -3 128 -35.5t45 -86.5zM254 -199q81 0 126 26t45 73q0 77 -135 82l-110 2q-38 2 -62 7q-40 -24 -40 -79
q0 -54 46.5 -82.5t129.5 -28.5zM299 772l4 -5q-23 -17 -37.5 -39t-14.5 -40q0 -27 37 -62v-1l-61 -43q-36 26 -36 66q0 35 32.5 67.5t75.5 56.5z" />
    <glyph glyph-name="Hcircumflex" unicode="&#x124;" horiz-adv-x="733" 
d="M51 0v2q24 38 32 67.5t8 80.5v432q0 51 -8 80.5t-32 67.5v2h162v-2q-25 -38 -32.5 -67t-7.5 -81v-194h387v194q0 52 -8 81t-32 67v2h162v-2q-24 -39 -32 -68t-8 -80v-432q0 -51 8 -80t32 -68v-2h-162v2q24 38 32 67t8 81v218h-387v-218q0 -52 7.5 -81t32.5 -67v-2h-162z
M514 782l-147 88l-147 -88l-8 8l152 155h5l152 -155z" />
    <glyph glyph-name="hcircumflex" unicode="&#x125;" horiz-adv-x="529" 
d="M169 0h-118v2q22 51 22 152v476q0 62 -44 100v2l117 47v-377q76 89 172 89q68 0 104 -38.5t36 -107.5v-191q0 -104 22 -152v-2h-117v2q22 51 22 152v175q0 51 -24.5 82t-77.5 31q-79 0 -137 -59v-229q0 -104 23 -152v-2zM421 807l-147 88l-147 -88l-8 8l152 155h5
l152 -155z" />
    <glyph glyph-name="Hbar" unicode="&#x126;" horiz-adv-x="749" 
d="M59 0v2q24 38 32 67.5t8 80.5v398h-96v18h96v16q0 51 -8 80.5t-32 67.5v2h162v-2q-25 -38 -32.5 -67t-7.5 -81v-16h387v16q0 52 -8 81t-32 67v2h162v-2q-24 -39 -32 -68t-8 -80v-16h96v-18h-96v-398q0 -51 8 -80t32 -68v-2h-162v2q24 38 32 67t8 81v218h-387v-218
q0 -52 7.5 -81t32.5 -67v-2h-162zM181 388h387v160h-387v-160z" />
    <glyph glyph-name="hbar" unicode="&#x127;" horiz-adv-x="529" 
d="M167 0h-118v2q22 51 22 152v425h-66v19h66v32q0 62 -44 100v2l117 47v-181h186v-19h-186v-177q76 89 172 89q68 0 104 -38.5t36 -107.5v-191q0 -104 22 -152v-2h-117v2q22 51 22 152v175q0 51 -24.5 82t-77.5 31q-79 0 -137 -59v-229q0 -104 23 -152v-2z" />
    <glyph glyph-name="Itilde" unicode="&#x128;" horiz-adv-x="263" 
d="M51 0v2q24 38 32 67t8 81v432q0 52 -8 81t-32 67v2h162v-2q-25 -38 -32.5 -67t-7.5 -81v-432q0 -52 7.5 -81t32.5 -67v-2h-162zM53 903q32 0 87.5 -24t85.5 -24q26 0 40.5 13.5t23.5 46.5l9 -1q-1 -23 -4.5 -39.5t-12 -37t-27 -32t-45.5 -11.5q-32 0 -87 24t-85 24
q-27 0 -41 -13.5t-24 -46.5l-9 1q1 23 4.5 39.5t12 37t27 32t45.5 11.5z" />
    <glyph glyph-name="itilde" unicode="&#x129;" horiz-adv-x="218" 
d="M53 0v2q22 60 22 152v186q0 61 -44 99v4l117 53v-341q0 -105 22 -153v-2h-117zM38 681q23 0 69.5 -19t73.5 -19q46 0 60 49l9 -1q-9 -107 -82 -107q-24 0 -70.5 19.5t-73.5 19.5q-46 0 -59 -49l-10 1q9 106 83 106z" />
    <glyph glyph-name="Imacron" unicode="&#x12a;" horiz-adv-x="263" 
d="M51 0v2q24 38 32 67t8 81v432q0 52 -8 81t-32 67v2h162v-2q-25 -38 -32.5 -67t-7.5 -81v-432q0 -52 7.5 -81t32.5 -67v-2h-162zM-21 836v42h306v-42h-306z" />
    <glyph glyph-name="imacron" unicode="&#x12b;" horiz-adv-x="218" 
d="M-2 603v42h203v-42h-203zM53 0v2q22 60 22 152v186q0 61 -44 99v4l117 53v-341q0 -105 22 -153v-2h-117z" />
    <glyph glyph-name="Ibreve" unicode="&#x12c;" horiz-adv-x="263" 
d="M51 0v2q24 38 32 67t8 81v432q0 52 -8 81t-32 67v2h162v-2q-25 -38 -32.5 -67t-7.5 -81v-432q0 -52 7.5 -81t32.5 -67v-2h-162zM131 849q99 0 129 86h9q-2 -23 -9 -44.5t-22 -44t-43 -36.5t-65 -14q-48 0 -79.5 25t-42.5 53.5t-14 60.5h9q33 -86 128 -86z" />
    <glyph glyph-name="ibreve" unicode="&#x12d;" horiz-adv-x="218" 
d="M53 0v2q22 60 22 152v186q0 61 -44 99v4l117 53v-341q0 -105 22 -153v-2h-117zM107 622q87 0 110 76h9q-2 -48 -30 -87.5t-90 -39.5q-61 0 -88 39t-29 88h9q23 -76 109 -76z" />
    <glyph glyph-name="Iogonek" unicode="&#x12e;" horiz-adv-x="263" 
d="M51 0v2q24 38 32 67t8 81v432q0 52 -8 81t-32 67v2h162v-2q-25 -38 -32.5 -67t-7.5 -81v-432q0 -52 7.5 -81t32.5 -67v-2h-38q-91 -70 -91 -141q0 -61 60 -61q49 0 92 51l8 -7q-54 -90 -131 -90q-42 0 -66 22.5t-24 59.5q0 42 30.5 78.5t95.5 87.5h-98z" />
    <glyph glyph-name="iogonek" unicode="&#x12f;" horiz-adv-x="218" 
d="M53 0v2q22 60 22 152v186q0 61 -44 99v4l117 53v-341q0 -105 22 -153v-2h-21q-91 -70 -91 -141q0 -61 60 -61q49 0 92 51l8 -7q-54 -90 -131 -90q-42 0 -66 22.5t-24 59.5q0 42 30.5 78.5t95.5 87.5h-70zM157 659q0 -21 -14.5 -35.5t-34.5 -14.5t-35 14.5t-15 35.5
q0 20 15 35t35 15t34.5 -15t14.5 -35z" />
    <glyph glyph-name="Idotaccent" unicode="&#x130;" horiz-adv-x="263" 
d="M51 0v2q24 38 32 67t8 81v432q0 52 -8 81t-32 67v2h162v-2q-25 -38 -32.5 -67t-7.5 -81v-432q0 -52 7.5 -81t32.5 -67v-2h-162zM181 868q0 -21 -14.5 -35.5t-34.5 -14.5q-21 0 -35.5 14.5t-14.5 35.5t14.5 35.5t35.5 14.5q20 0 34.5 -14.5t14.5 -35.5z" />
    <glyph glyph-name="dotlessi" unicode="&#x131;" horiz-adv-x="218" 
d="M53 0v2q22 60 22 152v186q0 61 -44 99v4l117 53v-341q0 -105 22 -153v-2h-117z" />
    <glyph glyph-name="IJ" unicode="&#x132;" horiz-adv-x="639" 
d="M51 0v2q24 38 32 67t8 81v432q0 52 -8 81t-32 67v2h162v-2q-25 -38 -32.5 -67t-7.5 -81v-432q0 -52 7.5 -81t32.5 -67v-2h-162zM558 127q0 -68 -38.5 -105t-107.5 -37q-56 0 -107 22l-18 143l8 3q44 -78 73 -113t57 -35q24 0 38 22.5t14 65.5v489q0 51 -8 80t-32 68v2
h161v-2q-24 -39 -32 -68t-8 -80v-455z" />
    <glyph glyph-name="ij" unicode="&#x133;" horiz-adv-x="431" 
d="M157 659q0 -21 -14.5 -35.5t-34.5 -14.5t-35 14.5t-15 35.5q0 20 15 35t35 15t34.5 -15t14.5 -35zM53 0v2q22 60 22 152v186q0 61 -44 99v4l117 53v-341q0 -105 22 -153v-2h-117zM373 659q0 -21 -14.5 -35.5t-34.5 -14.5t-35 14.5t-15 35.5q0 20 15 35t35 15t34.5 -15
t14.5 -35zM228 -215l-2 5q34 20 49.5 51.5t15.5 89.5v409q0 61 -44 99v4l117 53l-2 -525q0 -169 -134 -186z" />
    <glyph glyph-name="Jcircumflex" unicode="&#x134;" horiz-adv-x="378" 
d="M296 127q0 -68 -38.5 -105t-107.5 -37q-56 0 -107 22l-18 143l8 3q44 -78 73 -113t57 -35q24 0 38 22.5t14 65.5v489q0 51 -8 80t-32 68v2h161v-2q-24 -39 -32 -68t-8 -80v-455zM403 782l-147 88l-147 -88l-8 8l152 155h5l152 -155z" />
    <glyph glyph-name="jcircumflex" unicode="&#x135;" horiz-adv-x="215" 
d="M14 -243l-2 5q34 20 49.5 51.5t15.5 89.5v437q0 60 -45 99v4l118 53l-2 -553q0 -169 -134 -186zM243 540l-132 100l-130 -100l-8 8l135 171h5l138 -171z" />
    <glyph glyph-name="uni0136" unicode="&#x136;" horiz-adv-x="627" 
d="M51 0v2q24 38 32 67t8 81v432q0 51 -8 80.5t-32 67.5v2h162v-2q-25 -38 -32.5 -67t-7.5 -81v-432q0 -52 7.5 -81t32.5 -67v-2h-162zM627 0h-134l-294 372l210 230q71 79 27 128v2h162v-2q-38 -18 -68.5 -41t-44.5 -37t-45 -48l-172 -187l233 -296q40 -50 65 -74t60 -45z
M275 -233l-4 5q23 17 37.5 38.5t14.5 40.5q0 27 -37 62v1l61 43q36 -26 36 -66q0 -35 -32.5 -67.5t-75.5 -56.5z" />
    <glyph glyph-name="uni0137" unicode="&#x137;" horiz-adv-x="456" 
d="M51 0v2q22 43 22 126v509q0 58 -44 92v2l117 48v-650q0 -87 23 -127v-2h-118zM456 0h-113l-180 249l130 144q45 51 8 81v2h122v-2q-37 -16 -59.5 -35.5t-54.5 -55.5l-85 -96l141 -195q50 -68 91 -90v-2zM182 -233l-4 5q23 17 37.5 38.5t14.5 40.5q0 27 -37 62v1l61 43
q36 -26 36 -66q0 -35 -32.5 -67.5t-75.5 -56.5z" />
    <glyph glyph-name="Lacute" unicode="&#x139;" horiz-adv-x="563" 
d="M505 0h-454v2q24 38 32 67.5t8 80.5v432q0 51 -8 80.5t-32 67.5v2h162v-2q-25 -38 -32.5 -67t-7.5 -81v-567l181 7q94 5 188 160l8 -3zM42 790l197 169l41 -69l-233 -108z" />
    <glyph glyph-name="lacute" unicode="&#x13a;" horiz-adv-x="216" 
d="M51 0v2q22 43 22 126v509q0 57 -45 92v2l118 48v-650q0 -89 22 -127v-2h-117zM12 790l197 169l41 -69l-233 -108z" />
    <glyph glyph-name="uni013B" unicode="&#x13b;" horiz-adv-x="563" 
d="M505 0h-454v2q24 38 32 67.5t8 80.5v432q0 51 -8 80.5t-32 67.5v2h162v-2q-25 -38 -32.5 -67t-7.5 -81v-567l181 7q94 5 188 160l8 -3zM251 -233l-4 5q23 17 37.5 38.5t14.5 40.5q0 27 -37 62v1l61 43q36 -26 36 -66q0 -35 -32.5 -67.5t-75.5 -56.5z" />
    <glyph glyph-name="uni013C" unicode="&#x13c;" horiz-adv-x="216" 
d="M51 0v2q22 43 22 126v509q0 57 -45 92v2l118 48v-650q0 -89 22 -127v-2h-117zM47 -233l-4 5q23 17 37.5 38.5t14.5 40.5q0 27 -37 62v1l61 43q36 -26 36 -66q0 -35 -32.5 -67.5t-75.5 -56.5z" />
    <glyph glyph-name="Lcaron" unicode="&#x13d;" horiz-adv-x="563" 
d="M505 0h-454v2q24 38 32 67.5t8 80.5v432q0 51 -8 80.5t-32 67.5v2h162v-2q-25 -38 -32.5 -67t-7.5 -81v-567l181 7q94 5 188 160l8 -3zM248 531l28 201h75l-95 -203z" />
    <glyph glyph-name="lcaron" unicode="&#x13e;" horiz-adv-x="216" 
d="M51 0v2q22 43 22 126v509q0 57 -45 92v2l118 48v-650q0 -89 22 -127v-2h-117zM187 574l28 201h75l-95 -203z" />
    <glyph glyph-name="Ldot" unicode="&#x13f;" horiz-adv-x="563" 
d="M505 0h-454v2q24 38 32 67.5t8 80.5v432q0 51 -8 80.5t-32 67.5v2h162v-2q-25 -38 -32.5 -67t-7.5 -81v-567l181 7q94 5 188 160l8 -3zM451 311q-23 0 -39.5 16.5t-16.5 39.5q0 24 16.5 40.5t39.5 16.5t40 -16.5t17 -40.5q0 -23 -17 -39.5t-40 -16.5z" />
    <glyph glyph-name="ldot" unicode="&#x140;" horiz-adv-x="314" 
d="M51 0v2q22 43 22 126v509q0 57 -45 92v2l118 48v-650q0 -89 22 -127v-2h-117zM264 306q-22 0 -39 17t-17 39q0 24 16.5 40.5t39.5 16.5t40 -16.5t17 -40.5q0 -23 -17 -39.5t-40 -16.5z" />
    <glyph glyph-name="Lslash" unicode="&#x141;" horiz-adv-x="571" 
d="M20 219v25l79 41v297q0 51 -8 80.5t-32 67.5v2h162v-2q-25 -38 -32.5 -67t-7.5 -81v-255l248 130v-25l-248 -130v-287l181 7q94 5 188 160l8 -3l-45 -179h-454v2q24 38 32 67.5t8 80.5v110z" />
    <glyph glyph-name="lslash" unicode="&#x142;" horiz-adv-x="239" 
d="M15 259v28l68 62v288q0 57 -45 92v2l118 48v-364l67 61v-28l-67 -61v-258q0 -89 22 -127v-2h-117v2q22 43 22 126v193z" />
    <glyph glyph-name="Nacute" unicode="&#x143;" horiz-adv-x="706" 
d="M597 -3l-487 634l4 -465q0 -56 13.5 -88.5t56.5 -75.5v-2h-148v2q34 43 44.5 75.5t10.5 88.5v455q-19 68 -79 109v2h121l466 -606l-3 440q-1 57 -12.5 89t-48.5 75v2h138v-2q-34 -43 -44.5 -75.5t-10.5 -88.5v-566zM276 790l197 169l41 -69l-233 -108z" />
    <glyph glyph-name="nacute" unicode="&#x144;" horiz-adv-x="530" 
d="M170 2v-2h-117v2q22 51 22 152v187q0 62 -44 100v2l113 53v-93l4 -1q75 89 171 89q68 0 104.5 -39t36.5 -107v-190q0 -61 3.5 -91.5t18.5 -61.5v-2h-117v2q22 54 22 152v175q0 51 -24.5 82t-78.5 31q-78 0 -136 -59v-228q0 -105 22 -153zM205 544l132 205l60 -53
l-184 -159z" />
    <glyph glyph-name="uni0145" unicode="&#x145;" horiz-adv-x="706" 
d="M597 -3l-487 634l4 -465q0 -56 13.5 -88.5t56.5 -75.5v-2h-148v2q34 43 44.5 75.5t10.5 88.5v455q-19 68 -79 109v2h121l466 -606l-3 440q-1 57 -12.5 89t-48.5 75v2h138v-2q-34 -43 -44.5 -75.5t-10.5 -88.5v-566zM301 -233l-4 5q23 17 37.5 38.5t14.5 40.5q0 27 -37 62
v1l61 43q36 -26 36 -66q0 -35 -32.5 -67.5t-75.5 -56.5z" />
    <glyph glyph-name="uni0146" unicode="&#x146;" horiz-adv-x="530" 
d="M170 2v-2h-117v2q22 51 22 152v187q0 62 -44 100v2l113 53v-93l4 -1q75 89 171 89q68 0 104.5 -39t36.5 -107v-190q0 -61 3.5 -91.5t18.5 -61.5v-2h-117v2q22 54 22 152v175q0 51 -24.5 82t-78.5 31q-78 0 -136 -59v-228q0 -105 22 -153zM213 -233l-4 5q23 17 37.5 38.5
t14.5 40.5q0 27 -37 62v1l61 43q36 -26 36 -66q0 -35 -32.5 -67.5t-75.5 -56.5z" />
    <glyph glyph-name="Ncaron" unicode="&#x147;" horiz-adv-x="706" 
d="M597 -3l-487 634l4 -465q0 -56 13.5 -88.5t56.5 -75.5v-2h-148v2q34 43 44.5 75.5t10.5 88.5v455q-19 68 -79 109v2h121l466 -606l-3 440q-1 57 -12.5 89t-48.5 75v2h138v-2q-34 -43 -44.5 -75.5t-10.5 -88.5v-566zM367 782h-4l-152 155l7 8l147 -88l147 88l7 -8z" />
    <glyph glyph-name="ncaron" unicode="&#x148;" horiz-adv-x="530" 
d="M170 2v-2h-117v2q22 51 22 152v187q0 62 -44 100v2l113 53v-93l4 -1q75 89 171 89q68 0 104.5 -39t36.5 -107v-190q0 -61 3.5 -91.5t18.5 -61.5v-2h-117v2q22 54 22 152v175q0 51 -24.5 82t-78.5 31q-78 0 -136 -59v-228q0 -105 22 -153zM266 540l-136 171l8 8l130 -100
l132 100l8 -8l-138 -171h-4z" />
    <glyph glyph-name="napostrophe" unicode="&#x149;" horiz-adv-x="530" 
d="M170 2v-2h-117v2q22 51 22 152v187q0 62 -44 100v2l113 53v-93l4 -1q75 89 171 89q68 0 104.5 -39t36.5 -107v-190q0 -61 3.5 -91.5t18.5 -61.5v-2h-117v2q22 54 22 152v175q0 51 -24.5 82t-78.5 31q-78 0 -136 -59v-228q0 -105 22 -153zM-21 526l-6 6q52 54 52 102
q0 27 -41 68v2l64 51q39 -27 39 -70q0 -80 -108 -159z" />
    <glyph glyph-name="Eng" unicode="&#x14a;" horiz-adv-x="704" 
d="M484 -225q-60 0 -122 22l-21 143l8 3q53 -81 86 -114.5t71 -33.5q39 0 65 35.5t26 105.5v62l-1 -1l-487 634l4 -465q0 -56 13.5 -88.5t56.5 -75.5v-2h-148v2q34 43 44.5 75.5t10.5 88.5v456q-19 67 -79 108v2h121l464 -603l-1 437q0 56 -12 88t-49 76v2h138v-2
q-33 -44 -44 -76t-11 -88v-622q0 -84 -31 -126.5t-102 -42.5z" />
    <glyph glyph-name="eng" unicode="&#x14b;" horiz-adv-x="520" 
d="M324 -215l-2 5q34 20 49.5 51.5t15.5 89.5v398q0 51 -24.5 82t-78.5 31q-78 0 -136 -59v-228q0 -105 22 -153v-2h-117v2q22 51 22 152v187q0 62 -44 100v2l113 53v-93l4 -1q75 89 171 89q68 0 104.5 -39t36.5 -107l-2 -374q-1 -170 -134 -186z" />
    <glyph glyph-name="Omacron" unicode="&#x14c;" horiz-adv-x="812" 
d="M405 -15q-150 0 -260 110.5t-110 269.5t110 270.5t260 111.5q151 0 261.5 -111.5t110.5 -270.5t-110.5 -269.5t-261.5 -110.5zM405 5q131 0 204.5 100t73.5 260t-73.5 261t-204.5 101q-130 0 -203 -101t-73 -261t72.5 -260t203.5 -100zM254 836v42h306v-42h-306z" />
    <glyph glyph-name="omacron" unicode="&#x14d;" horiz-adv-x="562" 
d="M281 -15q-103 0 -177 74.5t-74 177.5q1 104 75 179t176 75q103 0 177 -75t74 -179q0 -103 -74 -177.5t-177 -74.5zM281 4q81 0 124 66.5t43 166.5t-43.5 167.5t-123.5 67.5t-123.5 -67.5t-43.5 -167.5t43 -166.5t124 -66.5zM140 603v42h284v-42h-284z" />
    <glyph glyph-name="Obreve" unicode="&#x14e;" horiz-adv-x="812" 
d="M405 -15q-150 0 -260 110.5t-110 269.5t110 270.5t260 111.5q151 0 261.5 -111.5t110.5 -270.5t-110.5 -269.5t-261.5 -110.5zM405 5q131 0 204.5 100t73.5 260t-73.5 261t-204.5 101q-130 0 -203 -101t-73 -261t72.5 -260t203.5 -100zM405 849q99 0 129 86h9
q-2 -23 -9 -44.5t-22 -44t-43 -36.5t-65 -14q-48 0 -79.5 25t-42.5 53.5t-14 60.5h9q33 -86 128 -86z" />
    <glyph glyph-name="obreve" unicode="&#x14f;" horiz-adv-x="562" 
d="M281 -15q-103 0 -177 74.5t-74 177.5q1 104 75 179t176 75q103 0 177 -75t74 -179q0 -103 -74 -177.5t-177 -74.5zM281 4q81 0 124 66.5t43 166.5t-43.5 167.5t-123.5 67.5t-123.5 -67.5t-43.5 -167.5t43 -166.5t124 -66.5zM281 622q87 0 110 76h9q-2 -48 -30 -87.5
t-90 -39.5q-61 0 -88 39t-29 88h9q23 -76 109 -76z" />
    <glyph glyph-name="Ohungarumlaut" unicode="&#x150;" horiz-adv-x="812" 
d="M405 -15q-150 0 -260 110.5t-110 269.5t110 270.5t260 111.5q151 0 261.5 -111.5t110.5 -270.5t-110.5 -269.5t-261.5 -110.5zM405 5q131 0 204.5 100t73.5 260t-73.5 261t-204.5 101q-130 0 -203 -101t-73 -261t72.5 -260t203.5 -100zM457 790l136 159l48 -63l-177 -104
zM266 790l136 159l48 -63l-177 -104z" />
    <glyph glyph-name="ohungarumlaut" unicode="&#x151;" horiz-adv-x="562" 
d="M281 -15q-103 0 -177 74.5t-74 177.5q1 104 75 179t176 75q103 0 177 -75t74 -179q0 -103 -74 -177.5t-177 -74.5zM281 4q81 0 124 66.5t43 166.5t-43.5 167.5t-123.5 67.5t-123.5 -67.5t-43.5 -167.5t43 -166.5t124 -66.5zM325 550l116 179l48 -49l-156 -139zM175 550
l116 179l48 -49l-156 -139z" />
    <glyph glyph-name="OE" unicode="&#x152;" horiz-adv-x="1042" 
d="M427 20l73 -2q30 63 30 122v452q0 60 -32 123l-82 -1q-287 -5 -287 -355q0 -168 72.5 -251.5t225.5 -87.5zM1027 179l-45 -179h-564q-179 0 -281 96.5t-102 272.5q0 174 100.5 268.5t271.5 94.5h525l39 -160l-8 -3q-10 12 -29 36.5t-31 38.5t-27.5 31t-28.5 25t-23 9
l-211 7v-338h127q10 0 20.5 6t21.5 18t18.5 22t18.5 26.5t16 22.5h8v-204h-8q-5 6 -19.5 25.5t-24 31t-24 22t-27.5 10.5h-127v-342l219 7q49 2 92 43t95 116z" />
    <glyph glyph-name="oe" unicode="&#x153;" horiz-adv-x="894" 
d="M676 473q-56 0 -94 -42.5t-49 -116.5l243 5v8q0 146 -100 146zM281 3q82 0 126 66.5t44 165.5t-44.5 166t-125.5 67t-125.5 -67t-44.5 -166t44 -165.5t126 -66.5zM864 111q-19 -58 -69 -92t-121 -34q-135 0 -190 113q-33 -52 -86.5 -82.5t-116.5 -30.5q-103 0 -177 73.5
t-74 176.5q1 103 75 177t176 74q63 0 118 -32.5t89 -86.5q30 59 81 91.5t110 32.5q84 0 134 -58.5t44 -134.5h-326q-2 -24 -2 -39q0 -97 46.5 -153.5t131.5 -56.5q44 0 86 16.5t66 48.5z" />
    <glyph glyph-name="Racute" unicode="&#x154;" horiz-adv-x="631" 
d="M291 712q-61 0 -118 -1v-342h119q84 0 120.5 52.5t36.5 137.5q0 74 -35.5 113.5t-122.5 39.5zM51 0v2q24 38 32 67.5t8 80.5v432q0 51 -8 80.5t-32 67.5v2h256q116 0 171.5 -45.5t55.5 -127.5q0 -70 -36 -122.5t-106 -74.5l122 -232q29 -57 52 -83t60 -43v-4h-138
l-181 349h-134v-199q0 -52 7.5 -81t32.5 -67v-2h-162zM201 790l197 169l41 -69l-233 -108z" />
    <glyph glyph-name="racute" unicode="&#x155;" horiz-adv-x="331" 
d="M53 0v2q22 51 22 152v187q0 62 -44 100v2l113 53v-121l5 -1q7 7 26 29t30.5 33.5t29.5 26t36 21.5t38 7l-1 -99h-3q-12 8 -37.5 15t-42.5 7q-13 0 -35 -18t-42 -44v-197q0 -105 22 -153v-2h-117zM129 544l132 205l60 -53l-184 -159z" />
    <glyph glyph-name="uni0156" unicode="&#x156;" horiz-adv-x="631" 
d="M291 712q-61 0 -118 -1v-342h119q84 0 120.5 52.5t36.5 137.5q0 74 -35.5 113.5t-122.5 39.5zM51 0v2q24 38 32 67.5t8 80.5v432q0 51 -8 80.5t-32 67.5v2h256q116 0 171.5 -45.5t55.5 -127.5q0 -70 -36 -122.5t-106 -74.5l122 -232q29 -57 52 -83t60 -43v-4h-138
l-181 349h-134v-199q0 -52 7.5 -81t32.5 -67v-2h-162zM272 -233l-4 5q23 17 37.5 38.5t14.5 40.5q0 27 -37 62v1l61 43q36 -26 36 -66q0 -35 -32.5 -67.5t-75.5 -56.5z" />
    <glyph glyph-name="uni0157" unicode="&#x157;" horiz-adv-x="331" 
d="M53 0v2q22 51 22 152v187q0 62 -44 100v2l113 53v-121l5 -1q7 7 26 29t30.5 33.5t29.5 26t36 21.5t38 7l-1 -99h-3q-12 8 -37.5 15t-42.5 7q-13 0 -35 -18t-42 -44v-197q0 -105 22 -153v-2h-117zM47 -233l-4 5q23 17 37.5 38.5t14.5 40.5q0 27 -37 62v1l61 43
q36 -26 36 -66q0 -35 -32.5 -67.5t-75.5 -56.5z" />
    <glyph glyph-name="Rcaron" unicode="&#x158;" horiz-adv-x="631" 
d="M291 712q-61 0 -118 -1v-342h119q84 0 120.5 52.5t36.5 137.5q0 74 -35.5 113.5t-122.5 39.5zM51 0v2q24 38 32 67.5t8 80.5v432q0 51 -8 80.5t-32 67.5v2h256q116 0 171.5 -45.5t55.5 -127.5q0 -70 -36 -122.5t-106 -74.5l122 -232q29 -57 52 -83t60 -43v-4h-138
l-181 349h-134v-199q0 -52 7.5 -81t32.5 -67v-2h-162zM293 782h-4l-152 155l7 8l147 -88l147 88l7 -8z" />
    <glyph glyph-name="rcaron" unicode="&#x159;" horiz-adv-x="331" 
d="M53 0v2q22 51 22 152v187q0 62 -44 100v2l113 53v-121l5 -1q7 7 26 29t30.5 33.5t29.5 26t36 21.5t38 7l-1 -99h-3q-12 8 -37.5 15t-42.5 7q-13 0 -35 -18t-42 -44v-197q0 -105 22 -153v-2h-117zM195 540l-136 171l8 8l130 -100l132 100l8 -8l-138 -171h-4z" />
    <glyph glyph-name="Sacute" unicode="&#x15a;" horiz-adv-x="542" 
d="M440 717l20 -158l-8 -3q-70 171 -198 171q-66 0 -100.5 -35t-34.5 -89q0 -28 10.5 -51.5t22.5 -38.5t40 -33t44 -26t54 -25q10 -5 15 -7q39 -18 61 -29t53.5 -33t48.5 -43.5t29.5 -54.5t12.5 -72q0 -104 -72.5 -154.5t-184.5 -50.5q-99 0 -198 38l-20 162l8 3
q45 -96 100.5 -139.5t133.5 -43.5q77 0 117.5 41t40.5 107q0 39 -13 69.5t-41 53.5t-53 37t-67 33q-44 20 -62.5 29t-52.5 31t-49.5 41.5t-28.5 50.5t-13 68q0 90 62 135.5t161 45.5q84 0 162 -30zM181 790l197 169l41 -69l-233 -108z" />
    <glyph glyph-name="sacute" unicode="&#x15b;" horiz-adv-x="386" 
d="M324 472l10 -98l-7 -2q-56 101 -140 101q-43 0 -69.5 -23t-26.5 -59q0 -27 19.5 -48t36 -29t61.5 -27q7 -3 11 -5q32 -13 52.5 -23.5t43.5 -29t34.5 -44.5t11.5 -60q0 -67 -48.5 -103.5t-132.5 -36.5q-71 0 -139 28l-10 114l7 2q31 -66 68.5 -96t87.5 -30q52 0 79.5 27.5
t27.5 67.5q0 41 -28.5 64t-88.5 47q-34 14 -52 23t-43.5 27.5t-37.5 43.5t-12 58q0 67 49 98.5t120 31.5q65 0 116 -19zM137 544l132 205l60 -53l-184 -159z" />
    <glyph glyph-name="Scircumflex" unicode="&#x15c;" horiz-adv-x="542" 
d="M440 717l20 -158l-8 -3q-70 171 -198 171q-66 0 -100.5 -35t-34.5 -89q0 -28 10.5 -51.5t22.5 -38.5t40 -33t44 -26t54 -25q10 -5 15 -7q39 -18 61 -29t53.5 -33t48.5 -43.5t29.5 -54.5t12.5 -72q0 -104 -72.5 -154.5t-184.5 -50.5q-99 0 -198 38l-20 162l8 3
q45 -96 100.5 -139.5t133.5 -43.5q77 0 117.5 41t40.5 107q0 39 -13 69.5t-41 53.5t-53 37t-67 33q-44 20 -62.5 29t-52.5 31t-49.5 41.5t-28.5 50.5t-13 68q0 90 62 135.5t161 45.5q84 0 162 -30zM418 782l-147 88l-147 -88l-8 8l152 155h5l152 -155z" />
    <glyph glyph-name="scircumflex" unicode="&#x15d;" horiz-adv-x="386" 
d="M324 472l10 -98l-7 -2q-56 101 -140 101q-43 0 -69.5 -23t-26.5 -59q0 -27 19.5 -48t36 -29t61.5 -27q7 -3 11 -5q32 -13 52.5 -23.5t43.5 -29t34.5 -44.5t11.5 -60q0 -67 -48.5 -103.5t-132.5 -36.5q-71 0 -139 28l-10 114l7 2q31 -66 68.5 -96t87.5 -30q52 0 79.5 27.5
t27.5 67.5q0 41 -28.5 64t-88.5 47q-34 14 -52 23t-43.5 27.5t-37.5 43.5t-12 58q0 67 49 98.5t120 31.5q65 0 116 -19zM322 540l-132 100l-130 -100l-8 8l135 171h5l138 -171z" />
    <glyph glyph-name="uni015E" unicode="&#x15e;" horiz-adv-x="542" 
d="M190 -255l-3 8q45 18 69.5 38t24.5 50q0 50 -80 57l-2 2q34 55 52 85q-99 0 -196 38l-20 162l8 3q45 -96 100.5 -139.5t133.5 -43.5q77 0 117.5 41t40.5 107q0 39 -13 69.5t-41 53.5t-53 37t-67 33q-44 20 -62.5 29t-52.5 31t-49.5 41.5t-28.5 50.5t-13 68q0 90 62 135.5
t161 45.5q84 0 162 -30l20 -158l-8 -3q-70 171 -198 171q-66 0 -100.5 -35t-34.5 -89q0 -28 10.5 -51.5t22.5 -38.5t40 -33t44 -26t54 -25q10 -5 15 -7q39 -18 61 -29t53.5 -33t48.5 -43.5t29.5 -54.5t12.5 -72q0 -98 -64.5 -148t-166.5 -56l-28 -44q85 -19 85 -85
q0 -82 -146 -112z" />
    <glyph glyph-name="uni015F" unicode="&#x15f;" horiz-adv-x="386" 
d="M113 -255l-3 8q45 18 69.5 38t24.5 50q0 50 -80 57l-2 2q34 55 52 85q-65 1 -133 28l-10 114l7 2q31 -66 68.5 -96t87.5 -30q52 0 79.5 27.5t27.5 67.5q0 41 -28.5 64t-88.5 47q-34 14 -52 23t-43.5 27.5t-37.5 43.5t-12 58q0 67 49 98.5t120 31.5q65 0 116 -19l10 -98
l-7 -2q-56 101 -140 101q-43 0 -69.5 -23t-26.5 -59q0 -27 19.5 -48t36 -29t61.5 -27q7 -3 11 -5q32 -13 52.5 -23.5t43.5 -29t34.5 -44.5t11.5 -60q0 -62 -42.5 -98t-116.5 -41l-28 -44q85 -19 85 -85q0 -82 -146 -112z" />
    <glyph glyph-name="Scaron" unicode="&#x160;" horiz-adv-x="542" 
d="M440 717l20 -158l-8 -3q-70 171 -198 171q-66 0 -100.5 -35t-34.5 -89q0 -28 10.5 -51.5t22.5 -38.5t40 -33t44 -26t54 -25q10 -5 15 -7q39 -18 61 -29t53.5 -33t48.5 -43.5t29.5 -54.5t12.5 -72q0 -104 -72.5 -154.5t-184.5 -50.5q-99 0 -198 38l-20 162l8 3
q45 -96 100.5 -139.5t133.5 -43.5q77 0 117.5 41t40.5 107q0 39 -13 69.5t-41 53.5t-53 37t-67 33q-44 20 -62.5 29t-52.5 31t-49.5 41.5t-28.5 50.5t-13 68q0 90 62 135.5t161 45.5q84 0 162 -30zM272 782h-4l-152 155l7 8l147 -88l147 88l7 -8z" />
    <glyph glyph-name="scaron" unicode="&#x161;" horiz-adv-x="386" 
d="M324 472l10 -98l-7 -2q-56 101 -140 101q-43 0 -69.5 -23t-26.5 -59q0 -27 19.5 -48t36 -29t61.5 -27q7 -3 11 -5q32 -13 52.5 -23.5t43.5 -29t34.5 -44.5t11.5 -60q0 -67 -48.5 -103.5t-132.5 -36.5q-71 0 -139 28l-10 114l7 2q31 -66 68.5 -96t87.5 -30q52 0 79.5 27.5
t27.5 67.5q0 41 -28.5 64t-88.5 47q-34 14 -52 23t-43.5 27.5t-37.5 43.5t-12 58q0 67 49 98.5t120 31.5q65 0 116 -19zM193 540l-136 171l8 8l130 -100l132 100l8 -8l-138 -171h-4z" />
    <glyph glyph-name="Tcommaaccent" unicode="&#x162;" horiz-adv-x="671" 
d="M417 2v-2h-162v2q24 38 32 67t8 81v564l-133 -4q-8 0 -17 -5.5t-19.5 -17t-20 -22.5t-22 -30t-20.5 -30.5t-21 -32.5t-19 -30l-8 3l38 187h565l39 -187l-8 -3q-5 7 -27 41t-32 48t-27.5 37t-30 32.5t-23.5 9.5l-132 4v-564q0 -52 7.5 -81t32.5 -67zM272 -233l-4 5
q23 17 37.5 38.5t14.5 40.5q0 27 -37 62v1l61 43q36 -26 36 -66q0 -35 -32.5 -67.5t-75.5 -56.5z" />
    <glyph glyph-name="tcommaaccent" unicode="&#x163;" horiz-adv-x="322" 
d="M185 -15q-46 0 -76 26.5t-30 88.5v358h-54v4l122 105h5v-91h140v-18h-140v-358q0 -75 72 -75q41 0 76 19l2 -4q-42 -55 -117 -55zM109 -233l-4 5q23 17 37.5 38.5t14.5 40.5q0 27 -37 62v1l61 43q36 -26 36 -66q0 -35 -32.5 -67.5t-75.5 -56.5z" />
    <glyph glyph-name="Tcaron" unicode="&#x164;" horiz-adv-x="671" 
d="M417 2v-2h-162v2q24 38 32 67t8 81v564l-133 -4q-8 0 -17 -5.5t-19.5 -17t-20 -22.5t-22 -30t-20.5 -30.5t-21 -32.5t-19 -30l-8 3l38 187h565l39 -187l-8 -3q-5 7 -27 41t-32 48t-27.5 37t-30 32.5t-23.5 9.5l-132 4v-564q0 -52 7.5 -81t32.5 -67zM337 782h-4l-152 155
l7 8l147 -88l147 88l7 -8z" />
    <glyph glyph-name="tcaron" unicode="&#x165;" horiz-adv-x="322" 
d="M185 -15q-46 0 -76 26.5t-30 88.5v358h-54v4l122 105h5v-91h140v-18h-140v-358q0 -75 72 -75q41 0 76 19l2 -4q-42 -55 -117 -55zM228 574l28 201h75l-95 -203z" />
    <glyph glyph-name="Tbar" unicode="&#x166;" horiz-adv-x="671" 
d="M125 357v20h170v337l-133 -4q-8 0 -17 -5.5t-19.5 -17t-20 -22.5t-22 -30t-20.5 -30.5t-21 -32.5t-19 -30l-8 3l38 187h565l39 -187l-8 -3q-5 7 -27 41t-32 48t-27.5 37t-30 32.5t-23.5 9.5l-132 4v-337h170v-20h-170v-207q0 -52 7.5 -81t32.5 -67v-2h-162v2q24 38 32 67
t8 81v207h-170z" />
    <glyph glyph-name="tbar" unicode="&#x167;" horiz-adv-x="322" 
d="M190 -15q-46 0 -76 26.5t-30 88.5v209h-59v17h59v132h-54v4l122 105h5v-91h140v-18h-140v-132h135v-17h-135v-209q0 -75 72 -75q41 0 76 19l2 -4q-42 -55 -117 -55z" />
    <glyph glyph-name="Utilde" unicode="&#x168;" horiz-adv-x="690" 
d="M355 -15q-120 0 -196.5 62.5t-76.5 190.5v342q0 53 -7.5 82t-32.5 68v2h162v-2q-40 -64 -40 -150v-339q0 -122 56.5 -177.5t152.5 -55.5q112 0 162 67.5t50 174.5v315q0 57 -14 89t-58 76v2h159l2 -2q-41 -44 -54 -76.5t-13 -88.5v-314q0 -119 -59.5 -192.5t-192.5 -73.5
zM293 903q32 0 87.5 -24t85.5 -24q26 0 40.5 13.5t23.5 46.5l9 -1q-1 -23 -4.5 -39.5t-12 -37t-27 -32t-45.5 -11.5q-32 0 -87 24t-85 24q-27 0 -41 -13.5t-24 -46.5l-9 1q1 23 4.5 39.5t12 37t27 32t45.5 11.5z" />
    <glyph glyph-name="utilde" unicode="&#x169;" horiz-adv-x="506" 
d="M356 -12v103q-71 -106 -164 -106q-63 0 -97 41t-34 113v251q0 55 -42 84v2h115v-321q0 -112 96 -112q75 0 121 64v283q0 57 -44 84v2h117v-338q0 -59 9.5 -80t35.5 -36v-2zM175 681q23 0 69.5 -19t73.5 -19q46 0 60 49l9 -1q-9 -107 -82 -107q-24 0 -70.5 19.5
t-73.5 19.5q-46 0 -59 -49l-10 1q9 106 83 106z" />
    <glyph glyph-name="Umacron" unicode="&#x16a;" horiz-adv-x="690" 
d="M355 -15q-120 0 -196.5 62.5t-76.5 190.5v342q0 53 -7.5 82t-32.5 68v2h162v-2q-40 -64 -40 -150v-339q0 -122 56.5 -177.5t152.5 -55.5q112 0 162 67.5t50 174.5v315q0 57 -14 89t-58 76v2h159l2 -2q-41 -44 -54 -76.5t-13 -88.5v-314q0 -119 -59.5 -192.5t-192.5 -73.5
zM220 836v42h306v-42h-306z" />
    <glyph glyph-name="umacron" unicode="&#x16b;" horiz-adv-x="506" 
d="M356 -12v103q-71 -106 -164 -106q-63 0 -97 41t-34 113v251q0 55 -42 84v2h115v-321q0 -112 96 -112q75 0 121 64v283q0 57 -44 84v2h117v-338q0 -59 9.5 -80t35.5 -36v-2zM98 603v42h284v-42h-284z" />
    <glyph glyph-name="Ubreve" unicode="&#x16c;" horiz-adv-x="690" 
d="M355 -15q-120 0 -196.5 62.5t-76.5 190.5v342q0 53 -7.5 82t-32.5 68v2h162v-2q-40 -64 -40 -150v-339q0 -122 56.5 -177.5t152.5 -55.5q112 0 162 67.5t50 174.5v315q0 57 -14 89t-58 76v2h159l2 -2q-41 -44 -54 -76.5t-13 -88.5v-314q0 -119 -59.5 -192.5t-192.5 -73.5
zM376 849q99 0 129 86h9q-2 -23 -9 -44.5t-22 -44t-43 -36.5t-65 -14q-48 0 -79.5 25t-42.5 53.5t-14 60.5h9q33 -86 128 -86z" />
    <glyph glyph-name="ubreve" unicode="&#x16d;" horiz-adv-x="506" 
d="M356 -12v103q-71 -106 -164 -106q-63 0 -97 41t-34 113v251q0 55 -42 84v2h115v-321q0 -112 96 -112q75 0 121 64v283q0 57 -44 84v2h117v-338q0 -59 9.5 -80t35.5 -36v-2zM240 622q87 0 110 76h9q-2 -48 -30 -87.5t-90 -39.5q-61 0 -88 39t-29 88h9q23 -76 109 -76z" />
    <glyph glyph-name="Uring" unicode="&#x16e;" horiz-adv-x="690" 
d="M355 -15q-120 0 -196.5 62.5t-76.5 190.5v342q0 53 -7.5 82t-32.5 68v2h162v-2q-40 -64 -40 -150v-339q0 -122 56.5 -177.5t152.5 -55.5q112 0 162 67.5t50 174.5v315q0 57 -14 89t-58 76v2h159l2 -2q-41 -44 -54 -76.5t-13 -88.5v-314q0 -119 -59.5 -192.5t-192.5 -73.5
zM285 861q0 37 24.5 61t62.5 24t62.5 -24t24.5 -61t-25 -60.5t-62 -23.5t-62 23.5t-25 60.5zM318 861q0 -66 54 -66t54 66q0 31 -14 49.5t-40 18.5t-40 -18.5t-14 -49.5z" />
    <glyph glyph-name="uring" unicode="&#x16f;" horiz-adv-x="506" 
d="M356 -12v103q-71 -106 -164 -106q-63 0 -97 41t-34 113v251q0 55 -42 84v2h115v-321q0 -112 96 -112q75 0 121 64v283q0 57 -44 84v2h117v-338q0 -59 9.5 -80t35.5 -36v-2zM157 654q0 37 24.5 61t62.5 24t62.5 -24t24.5 -61t-24.5 -60.5t-62.5 -23.5t-62.5 23.5
t-24.5 60.5zM190 654q0 -66 54 -66t54 66q0 31 -14 49.5t-40 18.5t-40 -18.5t-14 -49.5z" />
    <glyph glyph-name="Uhungarumlaut" unicode="&#x170;" horiz-adv-x="690" 
d="M355 -15q-120 0 -196.5 62.5t-76.5 190.5v342q0 53 -7.5 82t-32.5 68v2h162v-2q-40 -64 -40 -150v-339q0 -122 56.5 -177.5t152.5 -55.5q112 0 162 67.5t50 174.5v315q0 57 -14 89t-58 76v2h159l2 -2q-41 -44 -54 -76.5t-13 -88.5v-314q0 -119 -59.5 -192.5t-192.5 -73.5
zM423 790l136 159l48 -63l-177 -104zM232 790l136 159l48 -63l-177 -104z" />
    <glyph glyph-name="uhungarumlaut" unicode="&#x171;" horiz-adv-x="506" 
d="M356 -12v103q-71 -106 -164 -106q-63 0 -97 41t-34 113v251q0 55 -42 84v2h115v-321q0 -112 96 -112q75 0 121 64v283q0 57 -44 84v2h117v-338q0 -59 9.5 -80t35.5 -36v-2zM285 550l116 179l48 -49l-156 -139zM135 550l116 179l48 -49l-156 -139z" />
    <glyph glyph-name="Uogonek" unicode="&#x172;" horiz-adv-x="690" 
d="M376 -248q-42 0 -66 22.5t-24 59.5q0 76 119 154q-21 -3 -50 -3q-120 0 -196.5 62.5t-76.5 190.5v342q0 53 -7.5 82t-32.5 68v2h162v-2q-40 -64 -40 -150v-339q0 -122 56.5 -177.5t152.5 -55.5q112 0 162 67.5t50 174.5v315q0 57 -14 89t-58 76v2h159l2 -2
q-41 -44 -54 -76.5t-13 -88.5v-314q0 -192 -141 -248q-50 -21 -79 -53q-40 -43 -40 -91q0 -61 60 -61q49 0 92 51l8 -7q-54 -90 -131 -90z" />
    <glyph glyph-name="uogonek" unicode="&#x173;" horiz-adv-x="506" 
d="M316 -248q-42 0 -66 22t-24 60q0 45 33 84.5t97 82.5v90q-71 -106 -164 -106q-63 0 -97 41t-34 113v251q0 55 -42 84v2h115v-321q0 -112 96 -112q75 0 121 64v283q0 57 -44 84v2h117v-338q0 -59 9.5 -80t35.5 -36v-2q-70 -19 -93 -31q-42 -24 -65.5 -58.5t-23.5 -70.5
q0 -62 61 -62q48 0 91 51l8 -7q-54 -90 -131 -90z" />
    <glyph glyph-name="Wcircumflex" unicode="&#x174;" horiz-adv-x="970" 
d="M290 -9h-24l-188 606q-18 58 -32 84.5t-39 48.5v2h171v-2q-38 -57 -13 -137l146 -476l163 435l-16 45q-20 58 -34.5 84.5t-39.5 48.5v2h175v-2q-42 -56 -14 -137l165 -474l134 434q33 110 -13 177v2h132v-2q-34 -30 -52.5 -64t-38.5 -98l-179 -577h-24l-184 529zM631 782
l-147 88l-147 -88l-8 8l152 155h5l152 -155z" />
    <glyph glyph-name="wcircumflex" unicode="&#x175;" horiz-adv-x="651" 
d="M187 -8l-122 374q-26 80 -57 108v2h139v-2q-9 -13 -11 -38.5t8 -63.5l79 -258l91 249l-1 3q-30 85 -58 108v2h136v-2q-23 -34 2 -109l82 -250l80 235q31 88 -11 124v2h102v-2q-24 -22 -37.5 -44.5t-29.5 -68.5l-126 -369h-11l-119 345l-125 -345h-11zM469 540l-132 100
l-130 -100l-8 8l135 171h5l138 -171z" />
    <glyph glyph-name="Ycircumflex" unicode="&#x176;" horiz-adv-x="584" 
d="M209 0v2q24 32 32 57t8 68v211l-158 276q-49 85 -97 116v2h188v-2q-22 -15 -21.5 -43.5t19.5 -63.5l144 -257l119 202q61 104 5 162v2h142v-2q-26 -20 -46 -43.5t-31 -41t-41 -67.5l-141 -239v-212q0 -44 7.5 -68.5t32.5 -56.5v-2h-162zM467 782l-147 88l-147 -88l-8 8
l152 155h5l152 -155z" />
    <glyph glyph-name="ycircumflex" unicode="&#x177;" horiz-adv-x="429" 
d="M31 -225l-2 74q24 0 49.5 6.5t59.5 33.5t50 71l14 37l-140 368q-31 83 -60 109v2h141v-2q-31 -34 -1 -115l98 -262l97 258q31 84 -13 119v2h105v-2q-24 -23 -38 -45.5t-30 -67.5l-165 -427q-32 -83 -71 -118t-94 -41zM366 540l-132 100l-130 -100l-8 8l135 171h5
l138 -171z" />
    <glyph glyph-name="Ydieresis" unicode="&#x178;" horiz-adv-x="584" 
d="M209 0v2q24 32 32 57t8 68v211l-158 276q-49 85 -97 116v2h188v-2q-22 -15 -21.5 -43.5t19.5 -63.5l144 -257l119 202q61 104 5 162v2h142v-2q-26 -20 -46 -43.5t-31 -41t-41 -67.5l-141 -239v-212q0 -44 7.5 -68.5t32.5 -56.5v-2h-162zM495 868q0 -21 -14.5 -35.5
t-35.5 -14.5q-20 0 -35 14.5t-15 35.5t15 35.5t35 14.5q21 0 35.5 -14.5t14.5 -35.5zM244 868q0 -21 -14.5 -35.5t-35.5 -14.5q-20 0 -35 14.5t-15 35.5t15 35.5t35 14.5q21 0 35.5 -14.5t14.5 -35.5z" />
    <glyph glyph-name="Zacute" unicode="&#x179;" horiz-adv-x="615" 
d="M543 0h-518v11l453 705l-201 -6q-74 -3 -125 -45t-96 -117l-8 3l47 181h483v-11l-452 -706l235 7q73 3 125.5 47.5t97.5 125.5l8 -3zM242 790l197 169l41 -69l-233 -108z" />
    <glyph glyph-name="zacute" unicode="&#x17a;" horiz-adv-x="428" 
d="M368 0h-350v7l291 452l-138 -4q-23 0 -48.5 -16.5t-36 -28t-41.5 -46.5l-5 2l33 110h324v-8l-289 -451l151 3q41 1 70 25t69 76l5 -2zM164 544l132 205l60 -53l-184 -159z" />
    <glyph glyph-name="Zdotaccent" unicode="&#x17b;" horiz-adv-x="615" 
d="M543 0h-518v11l453 705l-201 -6q-74 -3 -125 -45t-96 -117l-8 3l47 181h483v-11l-452 -706l235 7q73 3 125.5 47.5t97.5 125.5l8 -3zM381 868q0 -21 -14.5 -35.5t-34.5 -14.5q-21 0 -35.5 14.5t-14.5 35.5t14.5 35.5t35.5 14.5q20 0 34.5 -14.5t14.5 -35.5z" />
    <glyph glyph-name="zdotaccent" unicode="&#x17c;" horiz-adv-x="428" 
d="M368 0h-350v7l291 452l-138 -4q-23 0 -48.5 -16.5t-36 -28t-41.5 -46.5l-5 2l33 110h324v-8l-289 -451l151 3q41 1 70 25t69 76l5 -2zM277 659q0 -21 -14.5 -35.5t-34.5 -14.5q-21 0 -35.5 14.5t-14.5 35.5q0 20 14.5 35t35.5 15q20 0 34.5 -15t14.5 -35z" />
    <glyph glyph-name="Zcaron" unicode="&#x17d;" horiz-adv-x="615" 
d="M543 0h-518v11l453 705l-201 -6q-74 -3 -125 -45t-96 -117l-8 3l47 181h483v-11l-452 -706l235 7q73 3 125.5 47.5t97.5 125.5l8 -3zM334 782h-4l-152 155l7 8l147 -88l147 88l7 -8z" />
    <glyph glyph-name="zcaron" unicode="&#x17e;" horiz-adv-x="428" 
d="M368 0h-350v7l291 452l-138 -4q-23 0 -48.5 -16.5t-36 -28t-41.5 -46.5l-5 2l33 110h324v-8l-289 -451l151 3q41 1 70 25t69 76l5 -2zM225 540l-136 171l8 8l130 -100l132 100l8 -8l-138 -171h-4z" />
    <glyph glyph-name="uni0192" unicode="&#x192;" horiz-adv-x="536" 
d="M32 -190q-44 0 -72 14l-15 115l8 2q27 -54 48.5 -82.5t46.5 -28.5q30 0 52 50.5t51 180.5l67 306h-83l5 20h82l21 94q28 132 79.5 199t120.5 67q42 0 70 -14l7 -130l-8 -2q-13 32 -20.5 49t-19.5 38t-23 30t-24 9q-28 0 -49.5 -46t-46.5 -158l-30 -136h108l-4 -20h-109
l-57 -256q-35 -157 -85.5 -229t-119.5 -72z" />
    <glyph glyph-name="Aringacute" unicode="&#x1fa;" horiz-adv-x="630" 
d="M408 296l-122 337l-124 -337h246zM124 2v-2h-122v2q29 29 43.5 56.5t36.5 86.5l221 596h24l224 -606q23 -60 37.5 -85.5t39.5 -47.5v-2h-159v2q30 46 -4 137l-50 137h-261l-41 -112q-38 -101 11 -162zM225 866q0 37 24.5 61t62.5 24t62.5 -24t24.5 -61t-25 -60.5
t-62 -23.5t-62 23.5t-25 60.5zM258 866q0 -66 54 -66t54 66q0 31 -14 49.5t-40 18.5t-40 -18.5t-14 -49.5zM223 981l197 169l41 -69l-233 -108z" />
    <glyph glyph-name="aringacute" unicode="&#x1fb;" horiz-adv-x="468" 
d="M187 29q66 0 110 42v166q-192 -35 -192 -135q0 -33 21 -53t61 -20zM371 -12q-34 0 -52.5 18t-21.5 48q-62 -69 -151 -69q-50 0 -81 24.5t-31 69.5q0 39 25 71t66 52t84 32.5t88 17.5v100q0 95 -103 95q-79 0 -137 -44l-5 6q68 82 185 82q133 0 133 -121v-294
q0 -43 39 -43q23 0 48 21l3 -2q-27 -64 -89 -64zM135 654q0 37 24.5 61t62.5 24t62.5 -24t24.5 -61t-24.5 -60.5t-62.5 -23.5t-62.5 23.5t-24.5 60.5zM168 654q0 -66 54 -66t54 66q0 31 -14 49.5t-40 18.5t-40 -18.5t-14 -49.5zM132 781l197 169l41 -69l-233 -108z" />
    <glyph glyph-name="AEacute" unicode="&#x1fc;" horiz-adv-x="977" 
d="M465 592q0 48 -14 80l-212 -376h226v296zM143 2v-2h-128v2q37 30 58.5 59t54.5 86l311 548q-13 20 -33 35v2h461l39 -160l-8 -3q-10 12 -29 36.5t-31 38.5t-27.5 31t-28.5 25t-23 9l-211 7v-338h127q10 0 20.5 6t21.5 18t18.5 22t18.5 26.5t16 22.5h8v-204h-8
q-5 6 -19.5 25.5t-24 31t-24 22t-27.5 10.5h-127v-342l219 7q49 2 92 43t95 116l8 -3l-45 -179h-491v2q39 75 39 138v136h-238l-68 -121q-56 -97 -16 -153zM518 790l197 169l41 -69l-233 -108z" />
    <glyph glyph-name="aeacute" unicode="&#x1fd;" horiz-adv-x="725" 
d="M508 -15q-131 0 -186 110q-63 -110 -177 -110q-52 0 -83.5 24.5t-31.5 69.5q0 39 25 71t65.5 52t84 32.5t88.5 17.5v100q0 95 -104 95q-78 0 -136 -44l-5 6q68 82 185 82q102 0 123 -77q60 77 155 77q82 0 132 -58.5t45 -134.5h-319q-2 -24 -2 -39q0 -97 45.5 -153.5
t128.5 -56.5q43 0 84 16.5t64 48.5l5 -3q-18 -58 -67 -92t-119 -34zM183 30q85 0 132 80q-22 53 -22 117v10q-190 -35 -190 -135q0 -33 20.5 -52.5t59.5 -19.5zM510 473q-55 0 -91.5 -42.5t-47.5 -116.5l236 5v8q0 146 -97 146zM310 544l132 205l60 -53l-184 -159z" />
    <glyph glyph-name="Oslashacute" unicode="&#x1fe;" horiz-adv-x="812" 
d="M129 365q0 -175 83 -273l371 564q-71 71 -178 71q-130 0 -203 -101t-73 -261zM405 5q131 0 204.5 100t73.5 260q0 175 -84 274l-371 -564q70 -70 177 -70zM405 -15q-106 0 -198 59l-48 -73h-27l57 86q-71 53 -112.5 133.5t-41.5 174.5q0 159 110 270.5t260 111.5
q106 0 199 -60l49 75h27l-58 -88q71 -53 113 -134t42 -175q0 -159 -110.5 -269.5t-261.5 -110.5zM316 790l197 169l41 -69l-233 -108z" />
    <glyph glyph-name="oslashacute" unicode="&#x1ff;" horiz-adv-x="562" 
d="M281 -15q-73 0 -135 40l-63 -92h-26l72 104q-99 78 -99 200q1 104 75 179t176 75q71 0 133 -40l65 93h26l-73 -106q46 -36 73 -89t27 -112q0 -103 -74 -177.5t-177 -74.5zM281 4q81 0 124 66.5t43 166.5q0 99 -42 164l-238 -345q43 -52 113 -52zM114 237q0 -99 40 -163
l239 346q-44 52 -112 52q-80 0 -123.5 -67.5t-43.5 -167.5zM228 544l132 205l60 -53l-184 -159z" />
    <glyph glyph-name="uni0218" unicode="&#x218;" horiz-adv-x="542" 
d="M440 717l20 -158l-8 -3q-70 171 -198 171q-66 0 -100.5 -35t-34.5 -89q0 -28 10.5 -51.5t22.5 -38.5t40 -33t44 -26t54 -25q10 -5 15 -7q39 -18 61 -29t53.5 -33t48.5 -43.5t29.5 -54.5t12.5 -72q0 -104 -72.5 -154.5t-184.5 -50.5q-99 0 -198 38l-20 162l8 3
q45 -96 100.5 -139.5t133.5 -43.5q77 0 117.5 41t40.5 107q0 39 -13 69.5t-41 53.5t-53 37t-67 33q-44 20 -62.5 29t-52.5 31t-49.5 41.5t-28.5 50.5t-13 68q0 90 62 135.5t161 45.5q84 0 162 -30zM222 -233l-4 5q23 17 37.5 38.5t14.5 40.5q0 27 -37 62v1l61 43
q36 -26 36 -66q0 -35 -32.5 -67.5t-75.5 -56.5z" />
    <glyph glyph-name="uni0219" unicode="&#x219;" horiz-adv-x="386" 
d="M324 472l10 -98l-7 -2q-56 101 -140 101q-43 0 -69.5 -23t-26.5 -59q0 -27 19.5 -48t36 -29t61.5 -27q7 -3 11 -5q32 -13 52.5 -23.5t43.5 -29t34.5 -44.5t11.5 -60q0 -67 -48.5 -103.5t-132.5 -36.5q-71 0 -139 28l-10 114l7 2q31 -66 68.5 -96t87.5 -30q52 0 79.5 27.5
t27.5 67.5q0 41 -28.5 64t-88.5 47q-34 14 -52 23t-43.5 27.5t-37.5 43.5t-12 58q0 67 49 98.5t120 31.5q65 0 116 -19zM134 -233l-4 5q23 17 37.5 38.5t14.5 40.5q0 27 -37 62v1l61 43q36 -26 36 -66q0 -35 -32.5 -67.5t-75.5 -56.5z" />
    <glyph glyph-name="uni021A" unicode="&#x21a;" horiz-adv-x="671" 
d="M417 2v-2h-162v2q24 38 32 67t8 81v564l-133 -4q-8 0 -17 -5.5t-19.5 -17t-20 -22.5t-22 -30t-20.5 -30.5t-21 -32.5t-19 -30l-8 3l38 187h565l39 -187l-8 -3q-5 7 -27 41t-32 48t-27.5 37t-30 32.5t-23.5 9.5l-132 4v-564q0 -52 7.5 -81t32.5 -67zM272 -233l-4 5
q23 17 37.5 38.5t14.5 40.5q0 27 -37 62v1l61 43q36 -26 36 -66q0 -35 -32.5 -67.5t-75.5 -56.5z" />
    <glyph glyph-name="uni021B" unicode="&#x21b;" horiz-adv-x="322" 
d="M185 -15q-46 0 -76 26.5t-30 88.5v358h-54v4l122 105h5v-91h140v-18h-140v-358q0 -75 72 -75q41 0 76 19l2 -4q-42 -55 -117 -55zM109 -233l-4 5q23 17 37.5 38.5t14.5 40.5q0 27 -37 62v1l61 43q36 -26 36 -66q0 -35 -32.5 -67.5t-75.5 -56.5z" />
    <glyph glyph-name="uni0237" unicode="&#x237;" horiz-adv-x="230" 
d="M14 -243l-2 5q34 20 49.5 51.5t15.5 89.5v437q0 60 -45 99v4l118 53l-2 -553q0 -169 -134 -186z" />
    <glyph glyph-name="circumflex" unicode="&#x2c6;" 
d="M323 540l-132 100l-130 -100l-8 8l135 171h5l138 -171z" />
    <glyph glyph-name="caron" unicode="&#x2c7;" 
d="M154 540l-136 171l8 8l130 -100l132 100l8 -8l-138 -171h-4z" />
    <glyph glyph-name="breve" unicode="&#x2d8;" 
d="M190 622q87 0 110 76h9q-2 -48 -30 -87.5t-90 -39.5q-61 0 -88 39t-29 88h9q23 -76 109 -76z" />
    <glyph glyph-name="dotaccent" unicode="&#x2d9;" 
d="M240 659q0 -21 -14.5 -35.5t-34.5 -14.5q-21 0 -35.5 14.5t-14.5 35.5q0 20 14.5 35t35.5 15q20 0 34.5 -15t14.5 -35z" />
    <glyph glyph-name="ring" unicode="&#x2da;" horiz-adv-x="300" 
d="M63 654q0 37 24.5 61t62.5 24t62.5 -24t24.5 -61t-24.5 -60.5t-62.5 -23.5t-62.5 23.5t-24.5 60.5zM96 654q0 -66 54 -66t54 66q0 31 -14 49.5t-40 18.5t-40 -18.5t-14 -49.5z" />
    <glyph glyph-name="ogonek" unicode="&#x2db;" horiz-adv-x="300" 
d="M168 1h26q-93 -72 -93 -142q0 -61 60 -61q49 0 92 51l8 -7q-54 -90 -131 -90q-42 0 -66 22.5t-24 59.5q0 42 31 78.5t97 88.5z" />
    <glyph glyph-name="tilde" unicode="&#x2dc;" 
d="M126 681q23 0 69.5 -19t73.5 -19q46 0 60 49l9 -1q-9 -107 -82 -107q-24 0 -70.5 19.5t-73.5 19.5q-46 0 -59 -49l-10 1q9 106 83 106z" />
    <glyph glyph-name="hungarumlaut" unicode="&#x2dd;" horiz-adv-x="380" 
d="M185 550l116 179l48 -49l-156 -139zM35 550l116 179l48 -49l-156 -139z" />
    <glyph glyph-name="Wgrave" unicode="&#x1e80;" horiz-adv-x="970" 
d="M290 -9h-24l-188 606q-18 58 -32 84.5t-39 48.5v2h171v-2q-38 -57 -13 -137l146 -476l163 435l-16 45q-20 58 -34.5 84.5t-39.5 48.5v2h175v-2q-42 -56 -14 -137l165 -474l134 434q33 110 -13 177v2h132v-2q-34 -30 -52.5 -64t-38.5 -98l-179 -577h-24l-184 529zM568 790
l-4 -8l-238 108l44 69z" />
    <glyph glyph-name="wgrave" unicode="&#x1e81;" horiz-adv-x="651" 
d="M187 -8l-122 374q-26 80 -57 108v2h139v-2q-9 -13 -11 -38.5t8 -63.5l79 -258l91 249l-1 3q-30 85 -58 108v2h136v-2q-23 -34 2 -109l82 -250l80 235q31 88 -11 124v2h102v-2q-24 -22 -37.5 -44.5t-29.5 -68.5l-126 -369h-11l-119 345l-125 -345h-11zM392 539l-8 -6
l-185 163l61 53z" />
    <glyph glyph-name="Wacute" unicode="&#x1e82;" horiz-adv-x="970" 
d="M290 -9h-24l-188 606q-18 58 -32 84.5t-39 48.5v2h171v-2q-38 -57 -13 -137l146 -476l163 435l-16 45q-20 58 -34.5 84.5t-39.5 48.5v2h175v-2q-42 -56 -14 -137l165 -474l134 434q33 110 -13 177v2h132v-2q-34 -30 -52.5 -64t-38.5 -98l-179 -577h-24l-184 529zM375 790
l197 169l41 -69l-233 -108z" />
    <glyph glyph-name="wacute" unicode="&#x1e83;" horiz-adv-x="651" 
d="M187 -8l-122 374q-26 80 -57 108v2h139v-2q-9 -13 -11 -38.5t8 -63.5l79 -258l91 249l-1 3q-30 85 -58 108v2h136v-2q-23 -34 2 -109l82 -250l80 235q31 88 -11 124v2h102v-2q-24 -22 -37.5 -44.5t-29.5 -68.5l-126 -369h-11l-119 345l-125 -345h-11zM273 544l132 205
l60 -53l-184 -159z" />
    <glyph glyph-name="Wdieresis" unicode="&#x1e84;" horiz-adv-x="970" 
d="M290 -9h-24l-188 606q-18 58 -32 84.5t-39 48.5v2h171v-2q-38 -57 -13 -137l146 -476l163 435l-16 45q-20 58 -34.5 84.5t-39.5 48.5v2h175v-2q-42 -56 -14 -137l165 -474l134 434q33 110 -13 177v2h132v-2q-34 -30 -52.5 -64t-38.5 -98l-179 -577h-24l-184 529zM654 868
q0 -21 -14.5 -35.5t-35.5 -14.5q-20 0 -35 14.5t-15 35.5t15 35.5t35 14.5q21 0 35.5 -14.5t14.5 -35.5zM403 868q0 -21 -14.5 -35.5t-35.5 -14.5q-20 0 -35 14.5t-15 35.5t15 35.5t35 14.5q21 0 35.5 -14.5t14.5 -35.5z" />
    <glyph glyph-name="wdieresis" unicode="&#x1e85;" horiz-adv-x="651" 
d="M187 -8l-122 374q-26 80 -57 108v2h139v-2q-9 -13 -11 -38.5t8 -63.5l79 -258l91 249l-1 3q-30 85 -58 108v2h136v-2q-23 -34 2 -109l82 -250l80 235q31 88 -11 124v2h102v-2q-24 -22 -37.5 -44.5t-29.5 -68.5l-126 -369h-11l-119 345l-125 -345h-11zM487 659
q0 -21 -14.5 -35.5t-34.5 -14.5q-21 0 -35.5 14.5t-14.5 35.5q0 20 14.5 35t35.5 15q20 0 34.5 -15t14.5 -35zM287 659q0 -21 -14.5 -35.5t-34.5 -14.5q-21 0 -35.5 14.5t-14.5 35.5q0 20 14.5 35t35.5 15q20 0 34.5 -15t14.5 -35z" />
    <glyph glyph-name="Ygrave" unicode="&#x1ef2;" horiz-adv-x="584" 
d="M209 0v2q24 32 32 57t8 68v211l-158 276q-49 85 -97 116v2h188v-2q-22 -15 -21.5 -43.5t19.5 -63.5l144 -257l119 202q61 104 5 162v2h142v-2q-26 -20 -46 -43.5t-31 -41t-41 -67.5l-141 -239v-212q0 -44 7.5 -68.5t32.5 -56.5v-2h-162zM404 790l-4 -8l-238 108l44 69z
" />
    <glyph glyph-name="ygrave" unicode="&#x1ef3;" horiz-adv-x="429" 
d="M31 -225l-2 74q24 0 49.5 6.5t59.5 33.5t50 71l14 37l-140 368q-31 83 -60 109v2h141v-2q-31 -34 -1 -115l98 -262l97 258q31 84 -13 119v2h105v-2q-24 -23 -38 -45.5t-30 -67.5l-165 -427q-32 -83 -71 -118t-94 -41zM293 539l-8 -6l-185 163l61 53z" />
    <glyph glyph-name="endash" unicode="&#x2013;" horiz-adv-x="508" 
d="M478 271h-448v19h448v-19z" />
    <glyph glyph-name="emdash" unicode="&#x2014;" horiz-adv-x="758" 
d="M728 271h-698v19h698v-19z" />
    <glyph glyph-name="quoteleft" unicode="&#x2018;" horiz-adv-x="225" 
d="M168 755l6 -6q-52 -54 -52 -102q0 -27 41 -68v-2l-64 -51q-39 27 -39 70q0 80 108 159z" />
    <glyph glyph-name="quoteright" unicode="&#x2019;" horiz-adv-x="225" 
d="M57 526l-6 6q52 54 52 102q0 27 -41 68v2l64 51q39 -27 39 -70q0 -80 -108 -159z" />
    <glyph glyph-name="quotesinglbase" unicode="&#x201a;" horiz-adv-x="225" 
d="M57 -90l-6 6q52 54 52 102q0 27 -41 68v2l64 51q39 -27 39 -70q0 -80 -108 -159z" />
    <glyph glyph-name="quotedblleft" unicode="&#x201c;" horiz-adv-x="374" 
d="M169 755l5 -6q-52 -56 -52 -102q0 -27 41 -68v-2l-63 -51q-40 28 -40 70q0 83 109 159zM317 755l6 -6q-52 -54 -52 -102q0 -29 41 -68v-2l-64 -51q-40 28 -40 70q0 81 109 159z" />
    <glyph glyph-name="quotedblright" unicode="&#x201d;" horiz-adv-x="379" 
d="M211 526l-6 6q52 54 52 102q0 27 -41 68v2l64 51q39 -28 39 -70q0 -80 -108 -159zM57 526l-6 6q52 54 52 102q0 27 -41 68v2l64 51q39 -27 39 -70q0 -80 -108 -159z" />
    <glyph glyph-name="quotedblbase" unicode="&#x201e;" horiz-adv-x="379" 
d="M57 -90l-6 6q52 54 52 102q0 27 -41 68v2l64 51q39 -27 39 -70q0 -80 -108 -159zM211 -90l-6 6q52 54 52 102q0 27 -41 68v2l64 51q39 -27 39 -70q0 -80 -108 -159z" />
    <glyph glyph-name="dagger" unicode="&#x2020;" horiz-adv-x="416" 
d="M249 262l-32 -262h-18l-32 262l34 255l-166 -35v84l166 -34l-39 200h92l-39 -200l166 34v-84l-166 35z" />
    <glyph glyph-name="daggerdbl" unicode="&#x2021;" horiz-adv-x="416" 
d="M381 166l-166 34l39 -200h-92l39 200l-166 -34v84l165 -34l-31 150l31 150l-165 -34v84l166 -34l-39 200h92l-39 -200l166 34v-84l-165 34l31 -150l-31 -150l165 34v-84z" />
    <glyph glyph-name="bullet" unicode="&#x2022;" horiz-adv-x="281" 
d="M141 203q-34 0 -58 24.5t-24 57.5q0 35 24 59.5t58 24.5q33 0 57 -24.5t24 -59.5q0 -33 -24 -57.5t-57 -24.5z" />
    <glyph glyph-name="ellipsis" unicode="&#x2026;" horiz-adv-x="725" 
d="M112 -4q-22 0 -39 17t-17 39q0 24 16.5 40.5t39.5 16.5t40 -16.5t17 -40.5q0 -23 -17 -39.5t-40 -16.5zM362 -4q-22 0 -39 17t-17 39q0 24 16.5 40.5t39.5 16.5t40 -16.5t17 -40.5q0 -23 -17 -39.5t-40 -16.5zM612 -4q-22 0 -39 17t-17 39q0 24 16.5 40.5t39.5 16.5
t40 -16.5t17 -40.5q0 -23 -17 -39.5t-40 -16.5z" />
    <glyph glyph-name="perthousand" unicode="&#x2030;" horiz-adv-x="1155" 
d="M189 346q-67 0 -113.5 58t-46.5 143t46 142.5t114 57.5t116 -57.5t48 -142.5t-48.5 -143t-115.5 -58zM189 361q90 0 90 186q0 185 -90 185q-86 0 -86 -185q0 -186 86 -186zM578 -8q-66 0 -113 58t-47 143t46.5 142.5t113.5 57.5q68 0 116 -57.5t48 -142.5t-48 -143
t-116 -58zM963 -8q-67 0 -114 58t-47 143t46.5 142.5t114.5 57.5t115.5 -57.5t47.5 -142.5t-48 -143t-115 -58zM578 7q90 0 90 186q0 185 -90 185q-86 0 -86 -185q0 -186 86 -186zM963 7q89 0 89 186q0 185 -89 185q-87 0 -87 -185q0 -186 87 -186zM140 1l-16 13l520 729
l18 -11z" />
    <glyph glyph-name="guilsinglleft" unicode="&#x2039;" horiz-adv-x="265" 
d="M208 58l-8 -6l-145 175v20l145 175l8 -6l-91 -179z" />
    <glyph glyph-name="guilsinglright" unicode="&#x203a;" horiz-adv-x="265" 
d="M65 52l-8 6l91 179l-91 179l8 6l145 -175v-20z" />
    <glyph glyph-name="fraction" unicode="&#x2044;" horiz-adv-x="275" 
d="M-116 1l-16 13l520 729l18 -11z" />
    <glyph glyph-name="Euro" unicode="&#x20ac;" horiz-adv-x="707" 
d="M638 60q-25 -23 -88.5 -49t-133.5 -26q-128 0 -212 85t-104 221h-93v19h91q-3 28 -3 57q0 28 3 55h-91v19h94q21 135 112.5 220.5t225.5 85.5q102 0 195 -49l20 -152l-8 -2q-49 99 -98.5 141t-117.5 42q-105 0 -164.5 -77t-72.5 -209h244v-19h-245q-2 -36 -2 -55
q0 -21 2 -57h245v-19h-244q13 -132 69.5 -209t155.5 -77q85 0 138 56.5t94 168.5l8 -3z" />
    <glyph glyph-name="trademark" unicode="&#x2122;" horiz-adv-x="767" 
d="M232 405v-2h-93v2q18 28 18 65v250l-44 -2q-21 -1 -79 -89l-6 2l21 101h274l20 -101l-6 -2l-8 12l-9 13.5t-9 13t-10 13t-9 11.5t-9 10.5t-8.5 7.5t-8.5 6t-7 2l-45 2v-250q0 -35 18 -65zM443 405v-2h-75v2q16 21 21 34.5t5 38.5v197q0 19 -7 30.5t-25 24.5v2h86
l103 -240l105 240h83v-2q-19 -14 -25 -26t-6 -37v-196q0 -37 18 -66v-2h-93v2q18 29 18 66v210l-117 -269h-8l-117 269l1 -203q0 -25 6.5 -38.5t26.5 -34.5z" />
    <glyph glyph-name="onethird" unicode="&#x2153;" horiz-adv-x="678" 
d="M167 354h-122v1q17 20 22.5 36t5.5 43v226h-48v5q64 32 109 80h5v-311q0 -28 5.5 -43.5t22.5 -35.5v-1zM62 1l-16 13l520 729l18 -11zM508 -8q-63 0 -102 23l-13 89l6 1q24 -38 35 -53.5t31.5 -30t43.5 -14.5q40 0 60 31t20 81q0 103 -84 103q-35 0 -68 -22l-6 8l140 122
h-159l17 54h222v-5l-166 -144q15 4 37 4q55 0 94.5 -31.5t39.5 -88.5t-41 -92t-107 -35z" />
    <glyph glyph-name="twothirds" unicode="&#x2154;" horiz-adv-x="739" 
d="M253 354h-241v7q106 93 147.5 156t41.5 124q0 43 -17.5 67t-49.5 24q-29 0 -51.5 -24.5t-46.5 -71.5l-5 2l12 92q46 17 93 17q66 0 98.5 -28.5t32.5 -75.5q0 -54 -45 -108t-143 -127h102q34 0 55 15.5t42 46.5l4 -2zM125 1l-16 13l520 729l18 -11zM569 -8q-63 0 -102 23
l-13 89l6 1q24 -38 35 -53.5t31.5 -30t43.5 -14.5q40 0 60 31t20 81q0 103 -84 103q-35 0 -68 -22l-6 8l140 122h-159l17 54h222v-5l-166 -144q15 4 37 4q55 0 94.5 -31.5t39.5 -88.5t-41 -92t-107 -35z" />
    <glyph glyph-name="oneeighth" unicode="&#x215b;" horiz-adv-x="638" 
d="M167 354h-122v1q17 20 22.5 36t5.5 43v226h-48v5q64 32 109 80h5v-311q0 -28 5.5 -43.5t22.5 -35.5v-1zM52 1l-16 13l520 729l18 -11zM480 -8q-55 0 -92.5 27t-37.5 72q0 72 88 98q-69 38 -69 98q0 47 32.5 76.5t83.5 29.5q49 0 81.5 -25t32.5 -65q0 -63 -75 -85
q94 -46 94 -116q0 -49 -39 -79.5t-99 -30.5zM419 317q0 -30 21.5 -50.5t71.5 -42.5q40 28 40 79q0 36 -17.5 55.5t-48.5 19.5q-30 0 -48.5 -17t-18.5 -44zM481 7q38 0 61 19.5t23 51.5q0 34 -26 55.5t-89 49.5q-53 -32 -53 -91q0 -40 22.5 -62.5t61.5 -22.5z" />
    <glyph glyph-name="threeeighths" unicode="&#x215c;" horiz-adv-x="699" 
d="M140 346q-63 0 -102 23l-13 89l6 1q24 -38 35 -53.5t31.5 -30t43.5 -14.5q40 0 60 31t20 81q0 103 -84 103q-35 0 -68 -22l-6 8l140 122h-159l17 54h222v-5l-166 -144q15 4 37 4q55 0 94.5 -31.5t39.5 -88.5t-41 -92t-107 -35zM113 1l-16 13l520 729l18 -11zM541 -8
q-55 0 -92.5 27t-37.5 72q0 72 88 98q-69 38 -69 98q0 47 32.5 76.5t83.5 29.5q49 0 81.5 -25t32.5 -65q0 -63 -75 -85q94 -46 94 -116q0 -49 -39 -79.5t-99 -30.5zM480 317q0 -30 21.5 -50.5t71.5 -42.5q40 28 40 79q0 36 -17.5 55.5t-48.5 19.5q-30 0 -48.5 -17t-18.5 -44
zM542 7q38 0 61 19.5t23 51.5q0 34 -26 55.5t-89 49.5q-53 -32 -53 -91q0 -40 22.5 -62.5t61.5 -22.5z" />
    <glyph glyph-name="fiveeighths" unicode="&#x215d;" horiz-adv-x="696" 
d="M127 346q-58 0 -92 23l-13 87l5 1q25 -47 48.5 -71.5t55.5 -24.5q35 0 56.5 28.5t21.5 80.5q0 55 -24 85t-68 30q-37 0 -64 -22l-6 4l29 172h192l-10 -54h-175l-17 -102q30 18 69 18q58 0 98.5 -33t40.5 -94t-42 -94.5t-105 -33.5zM110 1l-16 13l520 729l18 -11zM538 -8
q-55 0 -92.5 27t-37.5 72q0 72 88 98q-69 38 -69 98q0 47 32.5 76.5t83.5 29.5q49 0 81.5 -25t32.5 -65q0 -63 -75 -85q94 -46 94 -116q0 -49 -39 -79.5t-99 -30.5zM477 317q0 -30 21.5 -50.5t71.5 -42.5q40 28 40 79q0 36 -17.5 55.5t-48.5 19.5q-30 0 -48.5 -17t-18.5 -44
zM539 7q38 0 61 19.5t23 51.5q0 34 -26 55.5t-89 49.5q-53 -32 -53 -91q0 -40 22.5 -62.5t61.5 -22.5z" />
    <glyph glyph-name="seveneighths" unicode="&#x215e;" horiz-adv-x="634" 
d="M133 354h-72q48 168 175 329h-203l11 56h240v-5q-120 -188 -151 -380zM48 1l-16 13l520 729l18 -11zM476 -8q-55 0 -92.5 27t-37.5 72q0 72 88 98q-69 38 -69 98q0 47 32.5 76.5t83.5 29.5q49 0 81.5 -25t32.5 -65q0 -63 -75 -85q94 -46 94 -116q0 -49 -39 -79.5
t-99 -30.5zM415 317q0 -30 21.5 -50.5t71.5 -42.5q40 28 40 79q0 36 -17.5 55.5t-48.5 19.5q-30 0 -48.5 -17t-18.5 -44zM477 7q38 0 61 19.5t23 51.5q0 34 -26 55.5t-89 49.5q-53 -32 -53 -91q0 -40 22.5 -62.5t61.5 -22.5z" />
    <glyph glyph-name="minus" unicode="&#x2212;" horiz-adv-x="532" 
d="M487 298h-442v20h442v-20z" />
    <glyph glyph-name="uni24C5" unicode="&#x24c5;" horiz-adv-x="834" 
d="M35 367q0 159 111.5 269.5t269.5 110.5q159 0 270.5 -110.5t111.5 -269.5q0 -160 -112 -270.5t-270 -110.5t-269.5 110.5t-111.5 270.5zM61 367q0 -150 104 -255.5t251 -105.5q148 0 251.5 105.5t103.5 255.5q0 149 -103.5 254t-251.5 105q-147 0 -251 -105t-104 -254z
M297 153v2q22 34 22 80v240q0 45 -22 79v2h135q138 0 138 -112q0 -58 -38.5 -92t-107.5 -34h-52v-83q0 -46 22 -80v-2h-97zM423 539q-19 0 -51 -1v-202h51q47 0 70 30.5t23 77.5q0 95 -93 95z" />
    <glyph glyph-name="idotaccent" horiz-adv-x="218" 
d="M157 659q0 -21 -14.5 -35.5t-34.5 -14.5t-35 14.5t-15 35.5q0 20 15 35t35 15t34.5 -15t14.5 -35zM53 0v2q22 60 22 152v186q0 61 -44 99v4l117 53v-341q0 -105 22 -153v-2h-117z" />
    <glyph glyph-name="space_uni0326" 
d="M133 -233l-4 5q23 17 37.5 38.5t14.5 40.5q0 27 -37 62v1l61 43q36 -26 36 -66q0 -35 -32.5 -67.5t-75.5 -56.5z" />
    <glyph glyph-name="five.num" horiz-adv-x="291" 
d="M122 346q-58 0 -92 23l-13 87l5 1q25 -47 48.5 -71.5t55.5 -24.5q35 0 56.5 28.5t21.5 80.5q0 55 -24 85t-68 30q-36 0 -64 -22l-6 4l29 172h192l-10 -54h-175l-17 -102q30 18 69 18q58 0 98.5 -33t40.5 -94t-42 -94.5t-105 -33.5z" />
    <glyph glyph-name="zero.num" horiz-adv-x="369" 
d="M184 346q-67 0 -114 58t-47 143t46.5 142.5t114.5 57.5q67 0 115 -57.5t48 -142.5t-48 -143t-115 -58zM184 361q89 0 89 186q0 185 -89 185q-87 0 -87 -185q0 -186 87 -186z" />
    <glyph glyph-name="one.num" horiz-adv-x="194" 
d="M162 354h-122v1q17 20 22.5 36t5.5 43v226h-48v5q64 32 109 80h5v-311q0 -28 5.5 -43.5t22.5 -35.5v-1z" />
    <glyph glyph-name="two.num" horiz-adv-x="304" 
d="M248 354h-241v7q106 93 147.5 156t41.5 124q0 43 -17.5 67t-49.5 24q-29 0 -51.5 -24.5t-46.5 -71.5l-5 2l12 92q46 17 93 17q66 0 98.5 -28.5t32.5 -75.5q0 -54 -45 -108t-143 -127h102q34 0 55 15.5t42 46.5l4 -2z" />
    <glyph glyph-name="three.num" horiz-adv-x="303" 
d="M135 346q-63 0 -102 23l-13 89l6 1q24 -38 35 -53.5t31.5 -30t43.5 -14.5q40 0 60 31t20 81q0 103 -84 103q-35 0 -68 -22l-6 8l140 122h-159l17 54h222v-5l-166 -144q15 4 37 4q55 0 94.5 -31.5t39.5 -88.5t-41 -92t-107 -35z" />
    <glyph glyph-name="four.num" horiz-adv-x="317" 
d="M158 354v1q22 33 22 79v20h-168v7l176 278h78l-231 -269h145v118h67v-118h49l-4 -16h-45v-20q0 -45 23 -79v-1h-112z" />
    <glyph glyph-name="six.num" horiz-adv-x="328" 
d="M165 346q-63 0 -102 43.5t-39 112.5q0 77 52 144.5t166 100.5l4 -10q-111 -44 -144 -171q25 44 83 44q51 0 86 -34.5t35 -90.5q0 -60 -41 -99.5t-100 -39.5zM167 361q33 0 52 30.5t19 85.5q0 106 -73 106q-52 0 -69 -43q-4 -24 -4 -52q0 -53 19 -90t56 -37z" />
    <glyph glyph-name="seven.num" horiz-adv-x="275" 
d="M122 354h-72q48 168 175 329h-203l11 56h240v-5q-120 -188 -151 -380z" />
    <glyph glyph-name="eight.num" horiz-adv-x="302" 
d="M147 346q-55 0 -92.5 27t-37.5 72q0 72 88 98q-69 38 -69 98q0 47 32.5 76.5t83.5 29.5q49 0 81.5 -25t32.5 -65q0 -63 -75 -85q94 -46 94 -116q0 -49 -39 -79.5t-99 -30.5zM86 671q0 -30 21.5 -50.5t71.5 -42.5q40 28 40 79q0 36 -17.5 55.5t-48.5 19.5q-30 0 -48.5 -17
t-18.5 -44zM148 361q38 0 61 19.5t23 51.5q0 34 -26 55.5t-89 49.5q-53 -32 -53 -91q0 -40 22.5 -62.5t61.5 -22.5z" />
    <glyph glyph-name="nine.num" horiz-adv-x="328" 
d="M79 356q58 23 93.5 68.5t50.5 102.5q-25 -44 -83 -44q-51 0 -86 34.5t-35 90.5q0 60 41 99.5t100 39.5q63 0 102 -43.5t39 -112.5q0 -77 -52 -144.5t-166 -100.5zM160 510q51 0 68 43q5 28 5 52q0 53 -19 90t-56 37q-33 0 -52 -30.5t-19 -85.5q0 -106 73 -106z" />
    <glyph glyph-name="five.den" horiz-adv-x="291" 
d="M122 -8q-58 0 -92 23l-13 87l5 1q25 -47 48.5 -71.5t55.5 -24.5q35 0 56.5 28.5t21.5 80.5q0 55 -24 85t-68 30q-36 0 -64 -22l-6 4l29 172h192l-10 -54h-175l-17 -102q30 18 69 18q58 0 98.5 -33t40.5 -94t-42 -94.5t-105 -33.5z" />
    <glyph glyph-name="zero.den" horiz-adv-x="368" 
d="M183 -8q-67 0 -114 58t-47 143t46.5 142.5t114.5 57.5q67 0 115 -57.5t48 -142.5t-48 -143t-115 -58zM183 7q89 0 89 186q0 185 -89 185q-87 0 -87 -185q0 -186 87 -186z" />
    <glyph glyph-name="one.den" horiz-adv-x="194" 
d="M162 0h-122v1q17 20 22.5 36t5.5 43v226h-48v5q64 32 109 80h5v-311q0 -28 5.5 -43.5t22.5 -35.5v-1z" />
    <glyph glyph-name="two.den" horiz-adv-x="304" 
d="M248 0h-241v7q106 93 147.5 156t41.5 124q0 43 -17.5 67t-49.5 24q-29 0 -51.5 -24.5t-46.5 -71.5l-5 2l12 92q46 17 93 17q66 0 98.5 -28.5t32.5 -75.5q0 -54 -45 -108t-143 -127h102q34 0 55 15.5t42 46.5l4 -2z" />
    <glyph glyph-name="three.den" horiz-adv-x="303" 
d="M135 -8q-63 0 -102 23l-13 89l6 1q24 -38 35 -53.5t31.5 -30t43.5 -14.5q40 0 60 31t20 81q0 103 -84 103q-35 0 -68 -22l-6 8l140 122h-159l17 54h222v-5l-166 -144q15 4 37 4q55 0 94.5 -31.5t39.5 -88.5t-41 -92t-107 -35z" />
    <glyph glyph-name="four.den" horiz-adv-x="317" 
d="M158 0v1q22 33 22 79v20h-168v7l176 278h78l-231 -269h145v118h67v-118h49l-4 -16h-45v-20q0 -44 23 -79v-1h-112z" />
    <glyph glyph-name="six.den" horiz-adv-x="328" 
d="M165 -8q-63 0 -102 43.5t-39 112.5q0 77 52 144.5t166 100.5l4 -10q-111 -44 -144 -171q25 44 83 44q51 0 86 -34.5t35 -90.5q0 -60 -41 -99.5t-100 -39.5zM167 7q33 0 52 30.5t19 85.5q0 106 -73 106q-52 0 -69 -43q-4 -24 -4 -52q0 -53 19 -90t56 -37z" />
    <glyph glyph-name="seven.den" horiz-adv-x="275" 
d="M122 0h-72q48 168 175 329h-203l11 56h240v-5q-120 -188 -151 -380z" />
    <glyph glyph-name="eight.den" horiz-adv-x="302" 
d="M147 -8q-55 0 -92.5 27t-37.5 72q0 72 88 98q-69 38 -69 98q0 47 32.5 76.5t83.5 29.5q49 0 81.5 -25t32.5 -65q0 -63 -75 -85q94 -46 94 -116q0 -49 -39 -79.5t-99 -30.5zM86 317q0 -30 21.5 -50.5t71.5 -42.5q40 28 40 79q0 36 -17.5 55.5t-48.5 19.5q-30 0 -48.5 -17
t-18.5 -44zM148 7q38 0 61 19.5t23 51.5q0 34 -26 55.5t-89 49.5q-53 -32 -53 -91q0 -40 22.5 -62.5t61.5 -22.5z" />
    <glyph glyph-name="nine.den" horiz-adv-x="328" 
d="M79 2q58 23 93.5 68.5t50.5 102.5q-25 -44 -83 -44q-51 0 -86 34.5t-35 90.5q0 60 41 99.5t100 39.5q63 0 102 -43.5t39 -112.5q0 -77 -52 -144.5t-166 -100.5zM160 156q51 0 68 43q5 28 5 52q0 53 -19 90t-56 37q-33 0 -52 -30.5t-19 -85.5q0 -106 73 -106z" />
    <glyph glyph-name="five.sub" horiz-adv-x="291" 
d="M122 -88q-58 0 -92 23l-13 87l5 1q25 -47 48.5 -71.5t55.5 -24.5q35 0 56.5 28.5t21.5 80.5q0 55 -24 85t-68 30q-36 0 -64 -22l-6 4l29 172h192l-10 -54h-175l-17 -102q30 18 69 18q58 0 98.5 -33t40.5 -94t-42 -94.5t-105 -33.5z" />
    <glyph glyph-name="zero.sub" horiz-adv-x="369" 
d="M184 -88q-67 0 -114 58t-47 143t46.5 142.5t114.5 57.5q67 0 115 -57.5t48 -142.5t-48 -143t-115 -58zM184 -73q89 0 89 186q0 185 -89 185q-87 0 -87 -185q0 -186 87 -186z" />
    <glyph glyph-name="one.sub" horiz-adv-x="194" 
d="M162 -80h-122v1q17 20 22.5 36t5.5 43v226h-48v5q64 32 109 80h5v-311q0 -28 5.5 -43.5t22.5 -35.5v-1z" />
    <glyph glyph-name="two.sub" horiz-adv-x="304" 
d="M248 -80h-241v7q106 93 147.5 156t41.5 124q0 43 -17.5 67t-49.5 24q-29 0 -51.5 -24.5t-46.5 -71.5l-5 2l12 92q46 17 93 17q66 0 98.5 -28.5t32.5 -75.5q0 -54 -45 -108t-143 -127h102q34 0 55 15.5t42 46.5l4 -2z" />
    <glyph glyph-name="three.sub" horiz-adv-x="303" 
d="M135 -88q-63 0 -102 23l-13 89l6 1q24 -38 35 -53.5t31.5 -30t43.5 -14.5q40 0 60 31t20 81q0 103 -84 103q-35 0 -68 -22l-6 8l140 122h-159l17 54h222v-5l-166 -144q15 4 37 4q55 0 94.5 -31.5t39.5 -88.5t-41 -92t-107 -35z" />
    <glyph glyph-name="four.sub" horiz-adv-x="317" 
d="M158 -80v1q22 33 22 79v20h-168v7l176 278h78l-231 -269h145v118h67v-118h49l-4 -16h-45v-20q0 -44 23 -79v-1h-112z" />
    <glyph glyph-name="six.sub" horiz-adv-x="328" 
d="M165 -88q-63 0 -102 43.5t-39 112.5q0 77 52 144.5t166 100.5l4 -10q-111 -44 -144 -171q25 44 83 44q51 0 86 -34.5t35 -90.5q0 -60 -41 -99.5t-100 -39.5zM167 -73q33 0 52 30.5t19 85.5q0 106 -73 106q-52 0 -69 -43q-4 -24 -4 -52q0 -53 19 -90t56 -37z" />
    <glyph glyph-name="seven.sub" horiz-adv-x="275" 
d="M122 -80h-72q48 168 175 329h-203l11 56h240v-5q-120 -188 -151 -380z" />
    <glyph glyph-name="eight.sub" horiz-adv-x="302" 
d="M147 -88q-55 0 -92.5 27t-37.5 72q0 72 88 98q-69 38 -69 98q0 47 32.5 76.5t83.5 29.5q49 0 81.5 -25t32.5 -65q0 -63 -75 -85q94 -46 94 -116q0 -49 -39 -79.5t-99 -30.5zM86 237q0 -30 21.5 -50.5t71.5 -42.5q40 28 40 79q0 36 -17.5 55.5t-48.5 19.5q-30 0 -48.5 -17
t-18.5 -44zM148 -73q38 0 61 19.5t23 51.5q0 34 -26 55.5t-89 49.5q-53 -32 -53 -91q0 -40 22.5 -62.5t61.5 -22.5z" />
    <glyph glyph-name="nine.sub" horiz-adv-x="328" 
d="M160 313q63 0 102 -43.5t39 -112.5q0 -77 -52 -144.5t-166 -100.5l-4 10q111 44 144 171q-25 -44 -83 -44q-51 0 -86 34.5t-35 90.5q0 60 41 99.5t100 39.5zM158 298q-33 0 -52 -30.5t-19 -85.5q0 -106 73 -106q52 0 69 43q4 24 4 52q0 53 -19 90t-56 37z" />
    <glyph glyph-name="plus.sub" horiz-adv-x="315" 
d="M290 106h-123v-123h-20v123h-122v18h122v123h20v-123h123v-18z" />
    <glyph glyph-name="minus.sub" horiz-adv-x="315" 
d="M290 106h-265v18h265v-18z" />
    <glyph glyph-name="five.sup" horiz-adv-x="291" 
d="M122 426q-58 0 -92 23l-13 87l5 1q25 -47 48.5 -71.5t55.5 -24.5q35 0 56.5 28.5t21.5 80.5q0 55 -24 85t-68 30q-36 0 -64 -22l-6 4l29 172h192l-10 -54h-175l-17 -102q30 18 69 18q58 0 98.5 -33t40.5 -94t-42 -94.5t-105 -33.5z" />
    <glyph glyph-name="zero.sup" horiz-adv-x="369" 
d="M184 426q-67 0 -114 58t-47 143t46.5 142.5t114.5 57.5q67 0 115 -57.5t48 -142.5t-48 -143t-115 -58zM184 441q89 0 89 186q0 185 -89 185q-87 0 -87 -185q0 -186 87 -186z" />
    <glyph glyph-name="one.sup" horiz-adv-x="194" 
d="M162 434h-122v1q17 20 22.5 36t5.5 43v226h-48v5q64 32 109 80h5v-311q0 -28 5.5 -43.5t22.5 -35.5v-1z" />
    <glyph glyph-name="two.sup" horiz-adv-x="304" 
d="M248 434h-241v7q106 93 147.5 156t41.5 124q0 43 -17.5 67t-49.5 24q-29 0 -51.5 -24.5t-46.5 -71.5l-5 2l12 92q46 17 93 17q66 0 98.5 -28.5t32.5 -75.5q0 -54 -45 -108t-143 -127h102q34 0 55 15.5t42 46.5l4 -2z" />
    <glyph glyph-name="three.sup" horiz-adv-x="303" 
d="M135 426q-63 0 -102 23l-13 89l6 1q24 -38 35 -53.5t31.5 -30t43.5 -14.5q40 0 60 31t20 81q0 103 -84 103q-35 0 -68 -22l-6 8l140 122h-159l17 54h222v-5l-166 -144q15 4 37 4q55 0 94.5 -31.5t39.5 -88.5t-41 -92t-107 -35z" />
    <glyph glyph-name="four.sup" horiz-adv-x="317" 
d="M158 434v1q22 33 22 79v20h-168v7l176 278h78l-231 -269h145v118h67v-118h49l-4 -16h-45v-20q0 -44 23 -79v-1h-112z" />
    <glyph glyph-name="six.sup" horiz-adv-x="328" 
d="M165 426q-63 0 -102 43.5t-39 112.5q0 77 52 144.5t166 100.5l4 -10q-111 -44 -144 -171q25 44 83 44q51 0 86 -34.5t35 -90.5q0 -60 -41 -99.5t-100 -39.5zM167 441q33 0 52 30.5t19 85.5q0 106 -73 106q-52 0 -69 -43q-4 -24 -4 -52q0 -53 19 -90t56 -37z" />
    <glyph glyph-name="seven.sup" horiz-adv-x="275" 
d="M122 434h-72q48 168 175 329h-203l11 56h240v-5q-120 -188 -151 -380z" />
    <glyph glyph-name="eight.sup" horiz-adv-x="302" 
d="M147 426q-55 0 -92.5 27t-37.5 72q0 72 88 98q-69 38 -69 98q0 47 32.5 76.5t83.5 29.5q49 0 81.5 -25t32.5 -65q0 -63 -75 -85q94 -46 94 -116q0 -49 -39 -79.5t-99 -30.5zM86 751q0 -30 21.5 -50.5t71.5 -42.5q40 28 40 79q0 36 -17.5 55.5t-48.5 19.5q-30 0 -48.5 -17
t-18.5 -44zM148 441q38 0 61 19.5t23 51.5q0 34 -26 55.5t-89 49.5q-53 -32 -53 -91q0 -40 22.5 -62.5t61.5 -22.5z" />
    <glyph glyph-name="nine.sup" horiz-adv-x="328" 
d="M79 436q58 23 93.5 68.5t50.5 102.5q-25 -44 -83 -44q-51 0 -86 34.5t-35 90.5q0 60 41 99.5t100 39.5q63 0 102 -43.5t39 -112.5q0 -77 -52 -144.5t-166 -100.5zM160 590q51 0 68 43q5 28 5 52q0 53 -19 90t-56 37q-33 0 -52 -30.5t-19 -85.5q0 -106 73 -106z" />
    <glyph glyph-name="plus.sup" horiz-adv-x="315" 
d="M290 616h-123v-123h-20v123h-122v18h122v123h20v-123h123v-18z" />
    <glyph glyph-name="minus.sup" horiz-adv-x="315" 
d="M290 616h-265v18h265v-18z" />
    <glyph glyph-name="space_uni0326.alt" 
d="M219 772l4 -5q-23 -17 -37.5 -39t-14.5 -40q0 -27 37 -62v-1l-61 -43q-36 26 -36 66q0 35 32.5 67.5t75.5 56.5z" />
    <glyph glyph-name="caron.alt" horiz-adv-x="380" 
d="M69 574l28 201h75l-95 -203z" />
    <glyph glyph-name="space.uc" horiz-adv-x="191" 
 />
    <glyph glyph-name="questiondown.uc" horiz-adv-x="430" 
d="M286 524h16q-7 -45 -28.5 -83.5t-46.5 -66t-49.5 -57t-41 -73t-16.5 -97.5q0 -144 113 -144q52 0 86 34t67 106l7 -2l-20 -127q-76 -29 -145 -29q-93 0 -142.5 42t-49.5 122q0 44 15.5 80.5t39 61.5t53 52t57 50.5t51 57.5t34.5 73zM288 736q23 0 39.5 -16.5t16.5 -39.5
q0 -24 -16.5 -40.5t-39.5 -16.5t-40 16.5t-17 40.5q0 23 17 39.5t40 16.5z" />
    <glyph glyph-name="exclamdown.uc" horiz-adv-x="223" 
d="M152 2v-2h-80v2l32 522h15zM112 736q23 0 39.5 -16.5t16.5 -39.5q0 -24 -16.5 -40.5t-39.5 -16.5t-40 16.5t-17 40.5q0 23 17 39.5t40 16.5z" />
    <glyph glyph-name="hyphen.uc" horiz-adv-x="281" 
d="M251 352h-221v44h221v-44z" />
    <glyph glyph-name="endash.uc" horiz-adv-x="508" 
d="M478 362h-448v19h448v-19z" />
    <glyph glyph-name="emdash.uc" horiz-adv-x="758" 
d="M728 362h-698v19h698v-19z" />
    <glyph glyph-name="guilsinglleft.uc" horiz-adv-x="278" 
d="M208 129l-8 -6l-145 175v20l145 175l8 -6l-91 -179z" />
    <glyph glyph-name="guilsinglright.uc" horiz-adv-x="278" 
d="M78 134l-8 6l91 179l-91 179l8 6l145 -175v-20z" />
    <glyph glyph-name="guillemotleft.uc" horiz-adv-x="415" 
d="M358 129l-8 -6l-145 175v20l145 175l8 -6l-91 -179zM208 129l-8 -6l-145 175v20l145 175l8 -6l-91 -179z" />
    <glyph glyph-name="guillemotright.uc" horiz-adv-x="415" 
d="M215 123l-8 6l91 179l-91 179l8 6l145 -175v-20zM65 123l-8 6l91 179l-91 179l8 6l145 -175v-20z" />
    <glyph glyph-name="parenleft.uc" horiz-adv-x="308" 
d="M278 -80l-8 -10q-91 75 -142 188.5t-51 253.5t51 254t142 189l8 -10q-61 -77 -96 -188.5t-35 -244.5t35 -244t96 -188z" />
    <glyph glyph-name="parenright.uc" horiz-adv-x="308" 
d="M38 -90l-8 10q61 77 96 188t35 244t-35 244.5t-96 188.5l8 10q91 -75 142 -189t51 -254t-51 -253.5t-142 -188.5z" />
    <glyph glyph-name="bracketleft.uc" horiz-adv-x="331" 
d="M95 -90v885h212v-19h-144v-847h144v-19h-212z" />
    <glyph glyph-name="bracketright.uc" horiz-adv-x="331" 
d="M236 795v-885h-212v19h144v847h-144v19h212z" />
    <glyph glyph-name="braceleft.uc" horiz-adv-x="311" 
d="M286 -90h-25q-83 0 -127 32t-44 92q0 35 30 109t30 114q0 86 -108 86h-17v19h17q108 0 108 86q0 40 -30 114t-30 109q0 60 44 92t127 32h25v-19h-25q-50 0 -74 -20t-24 -80q0 -25 16.5 -99t16.5 -112q0 -57 -30.5 -80t-88.5 -31v-3q59 -8 89 -30.5t30 -80.5
q0 -39 -16.5 -112.5t-16.5 -98.5q0 -61 23.5 -80.5t74.5 -19.5h25v-19z" />
    <glyph glyph-name="braceright.uc" horiz-adv-x="311" 
d="M50 -90h-25v19h25q51 0 74.5 19.5t23.5 80.5q0 25 -16.5 98.5t-16.5 112.5q0 58 30 80.5t89 30.5v3q-58 8 -88.5 31t-30.5 80q0 38 16.5 112t16.5 99q0 60 -24 80t-74 20h-25v19h25q83 0 127 -32t44 -92q0 -35 -30 -109t-30 -114q0 -86 108 -86h17v-19h-17
q-108 0 -108 -86q0 -40 30 -114t30 -109q0 -60 -44 -92t-127 -32z" />
    <glyph glyph-name="slash.uc" horiz-adv-x="398" 
d="M-5 -90l382 911h26l-383 -911h-25z" />
    <glyph glyph-name="backslash.uc" horiz-adv-x="398" 
d="M403 -90h-25l-383 911h26z" />
    <glyph glyph-name="bar.uc" horiz-adv-x="205" 
d="M114 -89h-23v911h23v-911z" />
    <glyph glyph-name="at.uc" horiz-adv-x="853" 
d="M417 -41q-167 0 -274.5 97.5t-107.5 262.5q0 181 127 309t321 128q154 0 244 -82.5t90 -227.5q0 -123 -62.5 -208.5t-160.5 -85.5q-40 0 -66.5 16.5t-35.5 42t-10.5 56.5t7.5 59l1 6q-35 -82 -80 -134.5t-93 -52.5q-36 0 -57.5 30t-21.5 85q0 117 79 216t186 99
q45 0 75 -16l32 16h6l-64 -241q-22 -68 -12 -115.5t64 -47.5q76 0 124 81.5t48 193.5q0 138 -80.5 214t-216.5 76q-117 0 -208 -58.5t-137.5 -153t-46.5 -206.5q0 -157 92 -248t242 -91q128 0 214 60l8 -16q-91 -64 -226 -64zM350 197q67 0 154 209l32 121q-15 29 -53 29
q-47 0 -89 -46.5t-64.5 -111.5t-22.5 -125q0 -76 43 -76z" />
    <glyph glyph-name="grave.uc" horiz-adv-x="380" 
d="M299 790l-4 -8l-238 108l44 69z" />
    <glyph glyph-name="dieresis.uc" 
d="M366 868q0 -21 -14.5 -35.5t-35.5 -14.5q-20 0 -35 14.5t-15 35.5t15 35.5t35 14.5q21 0 35.5 -14.5t14.5 -35.5zM115 868q0 -21 -14.5 -35.5t-35.5 -14.5q-20 0 -35 14.5t-15 35.5t15 35.5t35 14.5q21 0 35.5 -14.5t14.5 -35.5z" />
    <glyph glyph-name="macron.uc" horiz-adv-x="308" 
d="M1 836v42h306v-42h-306z" />
    <glyph glyph-name="acute.uc" horiz-adv-x="380" 
d="M65 790l197 169l41 -69l-233 -108z" />
    <glyph glyph-name="circumflex.uc" 
d="M338 782l-147 88l-147 -88l-8 8l152 155h5l152 -155z" />
    <glyph glyph-name="caron.uc" 
d="M158 782h-4l-152 155l7 8l147 -88l147 88l7 -8z" />
    <glyph glyph-name="breve.uc" 
d="M190 849q99 0 129 86h9q-2 -23 -9 -44.5t-22 -44t-43 -36.5t-65 -14q-48 0 -79.5 25t-42.5 53.5t-14 60.5h9q33 -86 128 -86z" />
    <glyph glyph-name="dotaccent.uc" 
d="M240 868q0 -21 -14.5 -35.5t-34.5 -14.5q-21 0 -35.5 14.5t-14.5 35.5t14.5 35.5t35.5 14.5q20 0 34.5 -14.5t14.5 -35.5z" />
    <glyph glyph-name="ring.uc" horiz-adv-x="300" 
d="M63 866q0 37 24.5 61t62.5 24t62.5 -24t24.5 -61t-25 -60.5t-62 -23.5t-62 23.5t-25 60.5zM96 866q0 -66 54 -66t54 66q0 31 -14 49.5t-40 18.5t-40 -18.5t-14 -49.5z" />
    <glyph glyph-name="tilde.uc" 
d="M112 903q32 0 87.5 -24t85.5 -24q26 0 40.5 13.5t23.5 46.5l9 -1q-1 -23 -4.5 -39.5t-12 -37t-27 -32t-45.5 -11.5q-32 0 -87 24t-85 24q-27 0 -41 -13.5t-24 -46.5l-9 1q1 23 4.5 39.5t12 37t27 32t45.5 11.5z" />
    <glyph glyph-name="hungarumlaut.uc" horiz-adv-x="380" 
d="M202 790l136 159l48 -63l-177 -104zM11 790l136 159l48 -63l-177 -104z" />
    <glyph glyph-name="Cacute.pl" horiz-adv-x="747" 
d="M698 227l-20 -167q-31 -23 -108.5 -49t-163.5 -26q-169 0 -270 108.5t-101 273.5q0 162 109.5 271t283.5 109q127 0 246 -49l20 -152l-8 -2q-62 99 -122 141t-144 42q-145 0 -218 -98.5t-73 -261.5t70.5 -262.5t208.5 -99.5q104 0 168.5 56.5t113.5 168.5zM368 787
l87 174l62 -43l-141 -136z" />
    <glyph glyph-name="Nacute.pl" horiz-adv-x="706" 
d="M597 -3l-487 634l4 -465q0 -56 13.5 -88.5t56.5 -75.5v-2h-148v2q34 43 44.5 75.5t10.5 88.5v455q-19 68 -79 109v2h121l466 -606l-3 440q-1 57 -12.5 89t-48.5 75v2h138v-2q-34 -43 -44.5 -75.5t-10.5 -88.5v-566zM318 787l87 174l62 -43l-141 -136z" />
    <glyph glyph-name="Oacute.pl" horiz-adv-x="812" 
d="M405 -15q-150 0 -260 110.5t-110 269.5t110 270.5t260 111.5q151 0 261.5 -111.5t110.5 -270.5t-110.5 -269.5t-261.5 -110.5zM405 5q131 0 204.5 100t73.5 260t-73.5 261t-204.5 101q-130 0 -203 -101t-73 -261t72.5 -260t203.5 -100zM364 787l87 174l62 -43l-141 -136z
" />
    <glyph glyph-name="Sacute.pl" horiz-adv-x="542" 
d="M440 717l20 -158l-8 -3q-70 171 -198 171q-66 0 -100.5 -35t-34.5 -89q0 -28 10.5 -51.5t22.5 -38.5t40 -33t44 -26t54 -25q10 -5 15 -7q39 -18 61 -29t53.5 -33t48.5 -43.5t29.5 -54.5t12.5 -72q0 -104 -72.5 -154.5t-184.5 -50.5q-99 0 -198 38l-20 162l8 3
q45 -96 100.5 -139.5t133.5 -43.5q77 0 117.5 41t40.5 107q0 39 -13 69.5t-41 53.5t-53 37t-67 33q-44 20 -62.5 29t-52.5 31t-49.5 41.5t-28.5 50.5t-13 68q0 90 62 135.5t161 45.5q84 0 162 -30zM228 787l87 174l62 -43l-141 -136z" />
    <glyph glyph-name="Zacute.pl" horiz-adv-x="615" 
d="M543 0h-518v11l453 705l-201 -6q-74 -3 -125 -45t-96 -117l-8 3l47 181h483v-11l-452 -706l235 7q73 3 125.5 47.5t97.5 125.5l8 -3zM290 787l87 174l62 -43l-141 -136z" />
    <glyph glyph-name="acute.pl" horiz-adv-x="300" 
d="M96 547l71 202l67 -37l-131 -169z" />
    <glyph glyph-name="acute.ucpl" horiz-adv-x="300" 
d="M120 787l87 174l62 -43l-141 -136z" />
    <glyph glyph-name="cacute.pl" horiz-adv-x="472" 
d="M434 114l6 -3q-20 -58 -68.5 -92t-118.5 -34q-99 0 -159.5 66t-60.5 176q0 116 74.5 190t177.5 74q70 0 133 -30l10 -102l-8 -2q-66 116 -151 116q-73 0 -117 -57t-44 -155t46.5 -155t129.5 -57q103 0 150 65zM222 547l71 202l67 -37l-131 -169z" />
    <glyph glyph-name="divide.osf" horiz-adv-x="546" 
d="M494 233h-442v20h442v-20zM273 20q-23 0 -39.5 17t-16.5 39q0 24 16.5 40.5t39.5 16.5t40 -16.5t17 -40.5q0 -23 -17 -39.5t-40 -16.5zM273 350q-23 0 -39.5 17t-16.5 39q0 24 16.5 40.5t39.5 16.5t40 -16.5t17 -40.5q0 -23 -17 -39.5t-40 -16.5z" />
    <glyph glyph-name="eight.osf" horiz-adv-x="465" 
d="M231 -10q-88 0 -144 50.5t-56 125.5q0 66 44.5 119t109.5 82q-65 43 -100.5 87.5t-35.5 110.5q0 81 53.5 131.5t134.5 50.5q77 0 129 -48t52 -116q0 -54 -35 -100t-105 -76q73 -47 114 -98.5t41 -128.5q0 -90 -58 -140t-144 -50zM231 9q60 0 96 41.5t36 104.5
q0 28 -9.5 53.5t-20.5 42.5t-35 37.5t-39 30.5t-46 30l-16 10q-99 -70 -99 -186q0 -74 34 -119t99 -45zM257 420l10 -6q91 56 91 165q0 69 -32 109t-92 40q-57 0 -90.5 -36.5t-33.5 -93.5q0 -31 10.5 -56.5t36.5 -49t43 -35t57 -37.5z" />
    <glyph glyph-name="equal.osf" horiz-adv-x="532" 
d="M487 313h-442v21h442v-21zM487 172h-442v21h442v-21z" />
    <glyph glyph-name="f.short" horiz-adv-x="301" 
d="M71 0v2q24 37 24 137v319h-63v18h63v84q0 102 35.5 160.5t95.5 58.5q29 0 63 -14l12 -92l-6 -2q-32 49 -48.5 68.5t-30.5 19.5q-22 0 -35 -40.5t-13 -114.5v-128h109v-18h-109v-319q0 -97 23 -137v-2h-120z" />
    <glyph glyph-name="f_f.short" horiz-adv-x="555" 
d="M71 0v2q24 37 24 137v319h-63v18h63v64q0 101 46 160t118 59q42 0 60 -14l12 -92l-6 -2q-18 27 -30 43.5t-29 30.5t-32 14q-28 0 -47 -40.5t-19 -114.5v-108h181v84q0 103 33 161t91 58q34 0 65 -14l12 -92l-6 -2q-30 47 -46.5 67.5t-30.5 20.5q-21 0 -33 -40t-12 -115
v-128h109v-18h-109v-319q0 -97 23 -137v-2h-120v2q24 37 24 137v319h-181v-319q0 -97 23 -137v-2h-120z" />
    <glyph glyph-name="five.osf" horiz-adv-x="446" 
d="M157 -245q-51 0 -93.5 16.5t-60.5 33.5l-18 137l8 2q39 -88 80.5 -129t97.5 -41q65 0 100.5 48.5t35.5 122.5q0 100 -61.5 171.5t-177.5 103.5l109 277h262l-25 -70h-243l-54 -138q116 -32 187 -110.5t71 -192.5q0 -103 -61 -167t-157 -64z" />
    <glyph glyph-name="four.osf" horiz-adv-x="478" 
d="M280 -195v195h-279v10l352 491h8v-447h104l-11 -54h-93v-195h-81zM280 54v310l-220 -310h220z" />
    <glyph glyph-name="four.osfalt" horiz-adv-x="478" 
d="M280 -195v195h-283v10l309 467h107l-389 -454h256v157h81v-157h100l-5 -23h-95v-195h-81z" />
    <glyph glyph-name="greater.osf" horiz-adv-x="530" 
d="M485 228l-430 -208v25l409 196l-409 196v25l430 -208v-26z" />
    <glyph glyph-name="less.osf" horiz-adv-x="530" 
d="M475 20l-430 208v26l430 208v-25l-409 -196l409 -196v-25z" />
    <glyph glyph-name="minus.osf" horiz-adv-x="532" 
d="M487 233h-442v20h442v-20z" />
    <glyph glyph-name="multiply.osf" horiz-adv-x="472" 
d="M406 57l-170 170l-170 -170l-15 15l170 170l-170 170l15 15l170 -170l170 170l15 -15l-170 -170l170 -170z" />
    <glyph glyph-name="nacute.pl" horiz-adv-x="530" 
d="M170 2v-2h-117v2q22 51 22 152v187q0 62 -44 100v2l113 53v-93l4 -1q75 89 171 89q68 0 104.5 -39t36.5 -107v-190q0 -61 3.5 -91.5t18.5 -61.5v-2h-117v2q22 54 22 152v175q0 51 -24.5 82t-78.5 31q-78 0 -136 -59v-228q0 -105 22 -153zM244 547l71 202l67 -37
l-131 -169z" />
    <glyph glyph-name="nine.osf" horiz-adv-x="525" 
d="M258 509q103 0 167 -82.5t64 -201.5q0 -67 -24 -134.5t-72 -132.5t-132.5 -120.5t-194.5 -90.5l-3 9q114 44 191 123t116 178q-46 -50 -123 -50q-98 0 -155.5 71t-57.5 175t65 180t159 76zM259 490q-70 0 -106 -65t-36 -179q0 -220 141 -220q78 0 122 60q26 79 26 165
q0 101 -35.5 170t-111.5 69z" />
    <glyph glyph-name="oacute.pl" horiz-adv-x="562" 
d="M281 -15q-103 0 -177 74.5t-74 177.5q1 104 75 179t176 75q103 0 177 -75t74 -179q0 -103 -74 -177.5t-177 -74.5zM281 4q81 0 124 66.5t43 166.5t-43.5 167.5t-123.5 67.5t-123.5 -67.5t-43.5 -167.5t43 -166.5t124 -66.5zM256 547l71 202l67 -37l-131 -169z" />
    <glyph glyph-name="one.osf" horiz-adv-x="254" 
d="M217 0h-174v2q28 31 37 56t9 78v293h-83v11l161 67h2v-371q0 -53 9.5 -78t38.5 -56v-2z" />
    <glyph glyph-name="plus.osf" horiz-adv-x="532" 
d="M487 233h-210v-210h-22v210h-210v20h210v210h22v-210h210v-20z" />
    <glyph glyph-name="sacute.pl" horiz-adv-x="386" 
d="M324 472l10 -98l-7 -2q-56 101 -140 101q-43 0 -69.5 -23t-26.5 -59q0 -27 19.5 -48t36 -29t61.5 -27q7 -3 11 -5q32 -13 52.5 -23.5t43.5 -29t34.5 -44.5t11.5 -60q0 -67 -48.5 -103.5t-132.5 -36.5q-71 0 -139 28l-10 114l7 2q31 -66 68.5 -96t87.5 -30q52 0 79.5 27.5
t27.5 67.5q0 41 -28.5 64t-88.5 47q-34 14 -52 23t-43.5 27.5t-37.5 43.5t-12 58q0 67 49 98.5t120 31.5q65 0 116 -19zM165 547l71 202l67 -37l-131 -169z" />
    <glyph glyph-name="seven.osf" horiz-adv-x="440" 
d="M102 -245h-86q39 101 85 195.5t100 185t90.5 148t94.5 143.5h-348l16 70h382v-10q-208 -353 -334 -732z" />
    <glyph glyph-name="six.osf" horiz-adv-x="525" 
d="M267 -10q-103 0 -167 82.5t-64 201.5q0 67 24 134.5t72 132.5t132.5 120.5t194.5 90.5l3 -9q-114 -44 -191 -123t-116 -178q46 50 123 50q98 0 155.5 -71t57.5 -175t-65 -180t-159 -76zM266 9q70 0 106 65t36 179q0 220 -141 220q-78 0 -122 -60q-26 -79 -26 -165
q0 -101 35.5 -170t111.5 -69z" />
    <glyph glyph-name="three.osf" horiz-adv-x="452" 
d="M188 -245q-51 0 -94.5 14t-64.5 32l-21 141l8 2q43 -88 84 -129t99 -41q64 0 100.5 45t36.5 113q0 88 -56.5 143.5t-146.5 72.5v5q90 25 140.5 80t50.5 130q0 56 -26.5 90.5t-70.5 34.5q-45 0 -81.5 -36.5t-75.5 -105.5l-7 2l19 127q21 11 63 21.5t87 10.5
q79 0 124.5 -38t45.5 -103q0 -123 -146 -182q70 -24 114.5 -80.5t44.5 -134.5q0 -94 -64 -154t-163 -60z" />
    <glyph glyph-name="three.osfalt" horiz-adv-x="452" 
d="M188 -245q-51 0 -94.5 14t-64.5 32l-21 141l8 2q43 -88 84 -129t99 -41q64 0 100.5 45t36.5 113q0 88 -56.5 143.5t-146.5 72.5v5q184 53 184 186q0 57 -31 90t-90 33q-74 0 -123 -39l-5 6q70 78 171 78q74 0 118 -39.5t44 -103.5q0 -119 -145 -181q70 -24 114.5 -80
t44.5 -134q0 -94 -64 -154t-163 -60z" />
    <glyph glyph-name="two.osf" horiz-adv-x="470" 
d="M395 0h-367v8q268 163 268 347q0 63 -28 98t-74 35q-43 0 -77.5 -34t-66.5 -104l-7 2l21 122q57 33 138 33q86 0 132.5 -41t46.5 -111q0 -157 -238 -283h187q41 0 60.5 12.5t40.5 46.5l7 -3z" />
    <glyph glyph-name="two.osfalt" horiz-adv-x="470" 
d="M395 0h-367v8q271 164 271 327q0 60 -33 93.5t-96 33.5q-71 0 -120 -39l-5 6q70 78 175 78q78 0 123.5 -42t45.5 -112q0 -80 -62 -148t-185 -133h188q41 0 60.5 12.5t40.5 46.5l7 -3z" />
    <glyph glyph-name="zacute.pl" horiz-adv-x="428" 
d="M368 0h-350v7l291 452l-138 -4q-23 0 -48.5 -16.5t-36 -28t-41.5 -46.5l-5 2l33 110h324v-8l-289 -451l151 3q41 1 70 25t69 76l5 -2zM203 547l71 202l67 -37l-131 -169z" />
    <glyph glyph-name="zero.osf" horiz-adv-x="533" 
d="M266 -10q-96 0 -166 77.5t-69 180.5t70.5 181t164.5 78q96 0 165.5 -77.5t69.5 -181.5t-69.5 -181t-165.5 -77zM266 9q74 0 110.5 68.5t36.5 170.5q0 65 -14.5 117.5t-48.5 87.5t-84 35t-84 -35t-48.5 -87.5t-14.5 -117.5q0 -102 36.5 -170.5t110.5 -68.5z" />
    </font>
</defs>
</svg>
